<?xml version="1.0" standalone="no"?>
<!DOCTYPE svg PUBLIC "-//W3C//DTD SVG 1.1//EN" "http://www.w3.org/Graphics/SVG/1.1/DTD/svg11.dtd" >
<svg xmlns="http://www.w3.org/2000/svg" xmlns:xlink="http://www.w3.org/1999/xlink" version="1.1">
<metadata>
Created by FontForge 20190801 at Thu Nov 10 18:51:01 2022
 By root
Copyright (c) Font Awesome
</metadata>
<defs>
<font id="FontAwesome6Brands-Regular" horiz-adv-x="448" >
  <font-face 
    font-family="Font Awesome 6 Brands"
    font-weight="400"
    font-stretch="normal"
    units-per-em="512"
    panose-1="2 0 5 3 0 0 0 0 0 0"
    ascent="448"
    descent="-64"
    x-height="408.6"
    bbox="-0.152039 -66.9504 641.5 448.299"
    underline-thickness="0"
    underline-position="0"
    unicode-range="U+0020-1F4B2"
  />
<missing-glyph horiz-adv-x="384" 
d="M64 57.7002v268.6l89.5 -134.3zM102.5 0l89.5 134.3l89.5 -134.3h-179zM230.5 192l89.5 134.3v-268.6zM281.5 384l-89.5 -134.3l-89.5 134.3h179zM0 400v-416c0 -26.5 21.5 -48 48 -48h288c26.5 0 48 21.5 48 48v416c0 26.5 -21.5 48 -48 48h-288
c-26.5 0 -48 -21.5 -48 -48z" />
    <glyph glyph-name="exclamation" unicode="exclamation" horiz-adv-x="128" 
d="M96 384v-256c0 -17.7002 -14.2998 -32 -32 -32s-32 14.2998 -32 32v256c0 17.7002 14.2998 32 32 32s32 -14.2998 32 -32zM64 -32c-22.0996 0 -40 17.9004 -40 40s17.9004 40 40 40s40 -17.9004 40 -40s-17.9004 -40 -40 -40z" />
    <glyph glyph-name="hashtag" unicode="hashtag" 
d="M181.3 415.6l-0.100586 0.000976562c-17.4004 2.90039 -33.9004 -8.89941 -36.8008 -26.2998l-11.5 -69.2998h-68.9004c-17.7002 0 -32 -14.2998 -32 -32s14.2998 -32 32 -32h58.2002l-21.2998 -128h-68.9004c-17.7002 0 -32 -14.2998 -32 -32s14.2998 -32 32 -32
h58.2002l-9.7002 -58.9004c-2.90039 -17.4004 8.89941 -33.9004 26.2998 -36.8008s33.9004 8.89941 36.8008 26.2998l11.5 69.2998h95.2002l-9.7998 -58.7002c-2.90039 -17.4004 8.89941 -33.9004 26.2998 -36.8008s33.9004 8.89941 36.8008 26.2998l11.5 69.2998h68.9004
c17.7002 0 32 14.2998 32 32s-14.2998 32 -32 32h-58.2002l21.2998 128h68.9004c17.7002 0 32 14.2998 32 32s-14.2998 32 -32 32h-58.2002l9.7002 58.7998c2.90039 17.4004 -8.89941 33.9004 -26.2998 36.8008s-33.9004 -8.89941 -36.8008 -26.2998l-11.5 -69.2998
h-95.0996l9.7998 58.7998c2.90039 17.4004 -8.89941 33.9004 -26.2998 36.8008zM187.099 256.001h95.0996l-21.2998 -128h-95.0996z" />
    <glyph glyph-name="dollar-sign" unicode="dollar&#x2d;sign" horiz-adv-x="320" 
d="M160 448c-17.7002 0 -32 -14.2998 -32 -32v-34.7002c-14.7998 -1.7998 -29 -5 -42 -10c-33 -12.5996 -61 -37.3994 -68.2002 -76.2998c-3.7998 -21.2998 -2 -41.2998 6.2998 -59.0996c8.2002 -17.5996 21.4004 -30.2998 35.5 -39.7002
c25.7998 -17.0996 60.5996 -26.5996 89 -34.2998l2.7998 -0.799805c32.2002 -8.7998 57.1006 -15.8994 73.3008 -26.6992c7.2998 -4.90039 11 -9.40039 12.9004 -13.4004c1.7998 -3.7998 3.2002 -9.89941 1.2998 -20.5996c-2.2002 -12 -9.90039 -22 -26.8008 -28.9004
c-17.7998 -7.2998 -44.0996 -10 -76 -5.2998c-19.9004 3.2002 -54.3008 12.2998 -75.2012 21.5996c-16.0996 7.2002 -35 -0.0996094 -42.2002 -16.1992s0 -35 16.2002 -42.2002c27 -12 67.0996 -22.5 91.5 -26.2998v0h0.200195
c0.400391 -0.0996094 0.900391 -0.0996094 1.30078 -0.199219v-34.9004c0 -17.7002 14.2998 -32 32 -32s32 14.2998 32 32v33c15.7998 1.7998 30.7002 5.39941 44.4004 10.999c32.5 13.2998 58.7002 38.7002 65.6006 76.7002c3.7998 21.2998 2 41.2998 -6.2998 59.0996
c-8.2002 17.5996 -21.4004 30.2998 -35.5 39.7002c-25.7998 17.0996 -60.5996 26.5996 -89 34.2998l-2.7998 0.799805c-32.2002 8.7998 -57.1006 15.8994 -73.3008 26.6992c-7.2998 4.90039 -11 9.40039 -12.9004 13.4004c-1.7998 3.7998 -3.2002 9.89941 -1.2998 20.5996
c2 11.0996 9.59961 21 27.8994 28c18.9004 7.2998 46.4004 9.7002 78.5 4.90039c11.2998 -1.7002 39.5996 -6.2998 48.8994 -8.7002c17.2002 -4.2998 34.6006 6 38.9004 23.2002s-6.10059 34.6006 -23.2002 38.9004c-13 3.2998 -44.5 8.39941 -55.0996 9.99902
c-1.59961 0.299805 -3.09961 0.5 -4.69922 0.700195v35.7002c0 17.7002 -14.2998 32 -32 32z" />
    <glyph glyph-name="percent" unicode="percentage" horiz-adv-x="384" 
d="M374.6 329.4l-320 -320c-12.5 -12.5 -32.7998 -12.5 -45.2998 0s-12.5 32.7998 0 45.2998l320 320c12.5 12.5 32.7998 12.5 45.2998 0s12.5 -32.7998 0 -45.2998zM128 320c0 -35.2998 -28.7002 -64 -64 -64s-64 28.7002 -64 64s28.7002 64 64 64s64 -28.7002 64 -64z
M384 64c0 -35.2998 -28.7002 -64 -64 -64s-64 28.7002 -64 64s28.7002 64 64 64s64 -28.7002 64 -64z" />
    <glyph glyph-name="asterisk" unicode="asterisk" horiz-adv-x="384" 
d="M192 416c-17.7002 0 -32 -14.2998 -32 -32v-135.5l-111.6 67c-15.2002 9.09961 -34.7998 4.19922 -43.8994 -11.001s-4.19922 -34.7998 11.001 -43.8994l114.3 -68.5996l-114.2 -68.5c-15.2002 -9.09961 -20.1006 -28.6992 -11.001 -43.8994
s28.6992 -20.1006 43.8994 -11.001l111.5 66.9004v-135.5c0 -17.7002 14.2998 -32 32 -32s32 14.2998 32 32v135.5l111.6 -67c15.2002 -9.09961 34.7998 -4.19922 43.8994 11.001s4.19922 34.7998 -11.001 43.8994l-114.3 68.5996l114.2 68.5
c15.2002 9.09961 20.1006 28.6992 11.001 43.8994s-28.6992 20.1006 -43.8994 11.001l-111.5 -66.9004v135.5c0 17.7002 -14.2998 32 -32 32z" />
    <glyph glyph-name="plus" unicode="add" 
d="M256 368v-144h144c17.7002 0 32 -14.2998 32 -32s-14.2998 -32 -32 -32h-144v-144c0 -17.7002 -14.2998 -32 -32 -32s-32 14.2998 -32 32v144h-144c-17.7002 0 -32 14.2998 -32 32s14.2998 32 32 32h144v144c0 17.7002 14.2998 32 32 32s32 -14.2998 32 -32z" />
    <glyph glyph-name="less-than" unicode="less&#x2d;than" horiz-adv-x="384" 
d="M380.6 366.3c-7.90039 15.7998 -27.1006 22.1982 -42.9004 14.2979l-320 -160c-10.9004 -5.40039 -17.7002 -16.5 -17.7002 -28.5996s6.7998 -23.1992 17.7002 -28.5996l320 -160c15.7998 -7.90039 35 -1.5 42.9004 14.2998s1.5 35 -14.2998 42.9004l-262.7 131.4
l262.7 131.4c15.7998 7.90039 22.2002 27.1006 14.2998 42.9004z" />
    <glyph glyph-name="equals" unicode="equals" 
d="M48 320h352c17.7002 0 32 -14.2998 32 -32s-14.2998 -32 -32 -32h-352c-17.7002 0 -32 14.2998 -32 32s14.2998 32 32 32zM48 128h352c17.7002 0 32 -14.2998 32 -32s-14.2998 -32 -32 -32h-352c-17.7002 0 -32 14.2998 -32 32s14.2998 32 32 32z" />
    <glyph glyph-name="greater-than" unicode="greater&#x2d;than" horiz-adv-x="384" 
d="M3.40039 366.3c7.90039 15.7998 27.1006 22.1982 42.9004 14.2979l320 -160c10.9004 -5.40039 17.7002 -16.5 17.7002 -28.5996s-6.90039 -23.1992 -17.7002 -28.5996l-320 -160c-15.7998 -7.90039 -35 -1.5 -42.9004 14.2998s-1.5 35 14.2998 42.9004l262.8 131.4
l-262.8 131.4c-15.7998 7.90039 -22.2002 27.1006 -14.2998 42.9004zM3.40039 366.298z" />
    <glyph glyph-name="question" unicode="question" horiz-adv-x="320" 
d="M96 352h97c34.7998 0 63 -28.2002 63 -63c0 -26 -16 -49.2998 -40.2002 -58.7998l-63 -24.5c-24.5996 -9.5 -40.7998 -33.2002 -40.7998 -59.6006v-18.0996c0 -17.7002 14.2998 -32 32 -32s32 14.2998 32 32v18.0996l63 24.5c48.7998 19 81 66 81 118.4
c0 70.0996 -56.9004 127 -127 127h-97c-53 0 -96 -43 -96 -96c-0 -17.7002 14.2998 -32 32 -32s32 14.2998 32 32s14.2998 32 32 32zM144 -32c22.0996 0 40 17.9004 40 40s-17.9004 40 -40 40s-40 -17.9004 -40 -40s17.9004 -40 40 -40z" />
    <glyph glyph-name="at" unicode="at" horiz-adv-x="512" 
d="M256 384c106 0 192.002 -86.001 192.002 -192.001v-32c0 -17.7002 -14.2998 -32 -32 -32s-32 14.2998 -32 32v32v80c0 17.7002 -14.2998 32 -32 32c-8.2002 0 -15.6006 -3.09961 -21.3008 -8.09961c-21 15.2002 -46.7998 24.1006 -74.7002 24.1006
c-70.7002 0 -128 -57.2998 -128 -128s57.2998 -128 128 -128c33.5 0 64 12.9004 86.7998 33.9004c17.5996 -20.7002 43.8994 -33.9004 73.1992 -33.9004c53 0 96 43 96 96v32c0 141.4 -114.6 256 -256 256s-256 -114.6 -256 -256s114.6 -256 256 -256
c17.7002 0 32 14.2998 32 32s-14.2998 32 -32 32c-106 0 -192 86 -192 192s86 192 192 192zM320.002 191.999c0 -35.2998 -28.7002 -64 -64 -64s-64 28.7002 -64 64s28.7002 64 64 64s64 -28.7002 64 -64z" />
    <glyph glyph-name="firefox-browser" unicode="firefox&#x2d;browser" horiz-adv-x="512" 
d="M130.22 320.452v0c0.0800781 -0.00976562 0.160156 -0.00976562 0 0zM481.64 275.103c0 -0.921875 26.2822 -55.293 14.71 -131.989c-17.4111 -115.393 -119.79 -202.619 -240.43 -202.619c-134.71 0 -243.92 109.19 -243.92 243.891
c0 7.87891 2.22363 31.917 6.75977 52.2998c11.3682 51.0762 39.209 84.6299 55.5 101.229c7.29297 7.53809 15.2744 14.3779 23.8398 20.4307c0.921875 0.641602 8.03027 4.83984 8.15039 4.30957c-0.570312 -8.42969 -1.24023 -48.8301 8.42969 -61.0801h0.120117
c14.1602 15.9199 33.6504 33.96 58.71 45.3701c-5.11133 -19.5801 -4.87207 -40.1729 0.691406 -59.6299c2.19141 -1.46973 4.29883 -3.06152 6.31055 -4.76953c3.71777 -3.15332 7.92285 -7.34766 16.7695 -16.0605c16.5547 -16.3037 59 -33.1797 59.0898 -35.1797
c-0.400391 -6.08008 -21.8301 -27 -29.3301 -27c-69.3701 0 -80.6201 -41.9502 -80.6201 -41.9502c3.45996 -39.8193 41.0664 -88.1904 100.53 -90.8008c121.59 -5.33594 145.13 145.34 57.3896 189.2c22.4697 3.91016 45.8193 -5.12988 58.8193 -14.2803
c-10.4629 18.2656 -44.792 62.8584 -107.62 62.2891c-17.1328 -0.155273 -34.0303 -4.01758 -49.5303 -11.3203l-0.519531 -0.209961c-0.81543 -0.277344 -1.68066 -0.379883 -2.53809 -0.302734c-0.858398 0.078125 -1.69043 0.333984 -2.44238 0.75293
s-1.40918 0.991211 -1.92578 1.67969c-0.517578 0.688477 -0.885742 1.47754 -1.08008 2.31641c-0.306641 1.45312 -0.109375 2.9668 0.560547 4.29199s1.77148 2.38184 3.12305 2.99609c15.0293 7.13965 31.3135 11.2637 47.9307 12.1367
c7.24512 44.3691 35.8701 96.7871 82.5801 122.74l0.120117 0.0703125c2.15625 0.570312 -1.91211 -0.969727 13.0801 -24.6602c38.1982 -60.3613 84.9707 -88.0801 112.551 -156.83c-0.0283203 0.134766 -0.0449219 0.271484 -0.0498047 0.40918
c-3.03027 20.1201 -10.9805 47.1104 -24.7002 74c16.8604 -8.73047 38.3301 -36.2305 48.9404 -61.7305z" />
    <glyph glyph-name="ideal" unicode="ideal" horiz-adv-x="576" 
d="M125.61 282.52c27.0908 -0.0107422 49.0498 -21.9688 49.0605 -49.0596c0.00195312 -8.62012 -2.26758 -17.0889 -6.5791 -24.5537c-18.8936 -32.709 -66.1113 -32.6992 -84.9922 0.0175781s4.73633 73.6035 42.5107 73.5957zM86.1514 22.1592v140.52h78.9404v-140.52
h-78.9404zM237.611 233.759c0 -20.4502 -8.99023 -23.2598 -18.7402 -23.2598h-14.0498v45.79h14.0498c8.74023 0 18.7402 -2.53027 18.7402 -22.5303zM439.302 187.759h57.0908c-1.78027 -98.4805 -52.1104 -165.641 -196.721 -165.641h-94.8301v165.62h14
c25.9805 0 41.5 17.1904 41.5 46c0 27.9102 -15.9004 45.2598 -41.5 45.2598h-14v82.8096h94.8301c88.9404 0 186.83 -26.8896 196.07 -151.31h-33.6904v68.5703h-22.75v-91.3096zM329.553 187.759l-0.0410156 22.7402h-33.5098v12.5h30v22.6904h-30v10.5801h31.7305
v22.7295h-54.4297v-91.2402h56.25zM404.212 187.759l23.6699 -0.0195312l-27.5303 91.3398h-32.3496l-27.5303 -91.3203h23.6602l5.17969 17.6699h29.7402zM299.652 416c218.35 0 250.97 -139.999 251 -223.479c0 -144.79 -89.1504 -224.521 -251 -224.521h-267.65v448
h267.65zM299.652 -10.9189c148.9 0 229.899 69.3496 229.899 203.439c0 137.8 -87.7998 202.41 -229.899 202.41h-246.58v-405.85h246.58zM383.512 253.931h1.37109l7.51953 -25.8096h-16.4004zM383.513 253.931z" />
    <glyph glyph-name="microblog" unicode="microblog" 
d="M399.36 85.7695l0.15332 0.0625c-27.5889 -31.248 -29.1367 -77.6738 -3.69043 -110.69c0.808594 -1.01953 1.12012 -2.34668 0.850586 -3.62012c-0.496094 -2.3877 -2.83203 -3.92285 -5.2207 -3.43066c-32.2803 7.17969 -61.3105 24.8301 -79.8906 49.9199
c-1.85449 2.53906 -5.14551 3.57617 -8.12109 2.55957c-25.5303 -8.9375 -52.3906 -13.4814 -79.4404 -13.4395c-122.86 0 -222.46 91.4795 -222.46 204.43s99.5996 204.44 222.46 204.44s222.46 -91.4902 222.46 -204.44c0 -47.4502 -17.6104 -91.1006 -47.1006 -125.791z
M329.523 235.603c0.677734 0.513672 1.25195 1.12793 1.68262 1.8623c2.53223 4.31543 -0.556641 9.75391 -5.56055 9.78906l-71.8799 1.50977l-23.6602 67.9199c-0.269531 0.776367 -0.68457 1.49512 -1.22266 2.11719c-3.27246 3.78516 -9.41504 2.6084 -11.0576 -2.11816
l-23.6602 -67.9199l-71.8799 -1.50977c-0.825195 -0.015625 -1.63965 -0.188477 -2.40039 -0.508789c-4.61133 -1.94336 -5.38965 -8.14941 -1.40137 -11.1709l57.2998 -43.4902l-20.79 -68.8604c-0.235352 -0.783203 -0.321289 -1.60449 -0.25293 -2.41992
c0.419922 -4.99414 6.08789 -7.66113 10.2031 -4.80078l59.0596 41.0801l59.0596 -41.0498c0.678711 -0.473633 1.44238 -0.813477 2.24902 -1.00098c4.87402 -1.13379 9.14746 3.43359 7.69238 8.2207l-20.7803 68.8604zM329.527 235.604z" />
    <glyph glyph-name="square-pied-piper" unicode="pied&#x2d;piper&#x2d;square" 
d="M32 29c50.5996 81 90.7002 136.999 161.3 218.399c64 74.4004 160.9 139.7 253.9 168.601h-327.2c-66 0 -119.2 -53.2998 -119.2 -119.2l-0.799805 -328zM448.001 415.999c0 0 0 -328.799 0.0996094 -328.799c0 -65.9004 -53.2998 -119.2 -119.3 -119.2h-328.4
c18.5 25.5 61.7002 54 84.9004 66c35.5 18.0996 76.4004 28.5 105.301 56.2998c42.0996 40.5 47.7998 105 71 158.6c43.5996 100.3 186.399 167.1 186.399 167.1zM448.001 416z" />
    <glyph glyph-name="unity" unicode="unity" 
d="M243.583 356.397l-0.000976562 91.6045l204.417 -119.417v-238.835l-78.3838 45.7754v93.5625c0.103516 3.44434 -3.875 5.66895 -6.70215 3.9209l-95.1934 -55.6289c-2.66992 -1.53711 -4.50293 -4.50391 -4.50293 -7.8418v-111.205
c-0.103516 -3.39062 3.875 -5.66895 6.70312 -3.91992l80.1123 46.7812l78.3838 -45.7754l-204.417 -119.417l-204.417 119.417l78.3848 45.7754l80.1113 -46.7812c2.87988 -1.80176 6.75488 0.582031 6.70312 3.91992v111.205c0 3.12598 -1.62305 6.14551 -4.50293 7.8418
l-95.1924 55.6289c-2.87988 1.80078 -6.75488 -0.583008 -6.70215 -3.9209v-93.5635l-78.3848 -45.7754v238.835l204.417 119.417v-91.6025l-80.0596 -46.7812c-2.98438 -1.58887 -2.93262 -6.25195 -0.000976562 -7.84082l95.1924 -55.6289
c2.6709 -1.58984 6.07422 -1.69629 8.9541 0l95.1924 55.6289c2.98535 1.6416 2.88086 6.19824 0.000976562 7.83984z" />
    <glyph glyph-name="dailymotion" unicode="dailymotion" 
d="M298.93 181c7.12012 -3.98828 12.9961 -9.87305 16.9717 -17c4.0459 -7.15723 6.14844 -15.248 6.09961 -23.4697c-0.0332031 -13.6602 -4.58691 -25.083 -13.6602 -34.2695s-20.4434 -13.7803 -34.1104 -13.7803c-13.4336 0 -24.5771 4.48047 -33.4307 13.4404
s-13.2803 20.4932 -13.2803 34.5996c0 13.4336 4.53711 24.5732 13.6104 33.4199s20.2197 13.2705 33.4395 13.2705c8.52539 0.111328 16.9287 -2.03125 24.3604 -6.21094zM0.00195312 416h448v-448h-448v448zM374.712 42.7402l-0.0302734 264.348l-55.79 -12.0898v-77.9199
c-7.81348 7.86035 -16.1465 13.5273 -25 17.001c-9.49805 3.58789 -19.5869 5.35547 -29.7393 5.20996c-17.6934 -0.00683594 -33.5996 -4.37305 -47.7197 -13.0996c-14.0547 -8.6748 -25.4482 -21.0547 -32.9297 -35.7803
c-7.83984 -15.1064 -11.7598 -31.8467 -11.7598 -50.2197c-0.00683594 -18.8066 3.85645 -35.7695 11.5898 -50.8896c7.41504 -14.7715 18.8281 -27.165 32.9395 -35.7705c14.2197 -8.7334 30.5166 -13.0996 48.8896 -13.0996c26.6602 0 45.2539 8.7334 55.7803 26.2002
h0.669922v-23.8896h53.0996zM374.712 42.7383z" />
    <glyph glyph-name="square-instagram" unicode="instagram&#x2d;square" 
d="M224 245.34c29.458 -0.0107422 53.3369 -23.8848 53.3594 -53.3418c0 -9.35645 -2.46094 -18.5479 -7.13574 -26.6523c-20.5176 -35.5674 -71.8438 -35.5869 -92.3877 -0.0341797s5.10254 80.0127 46.1641 80.0283zM348.708 286.337
c8.34961 -21.0703 6.46875 -71.0605 6.46875 -94.3408s1.91992 -73.3301 -6.42969 -94.3301c-5.48926 -13.9102 -16.5 -24.9209 -30.4102 -30.4102c-21.0596 -8.36035 -70.9893 -6.43066 -94.2988 -6.43066s-73.3096 -1.86035 -94.3096 6.42969
c-13.9102 5.48926 -24.9209 16.5 -30.4102 30.4102c-8.32031 21.0703 -6.4707 71.0605 -6.4707 94.3408s-1.84961 73.3301 6.43066 94.3301c5.48926 13.9102 16.5 24.9209 30.4102 30.4102c21.0596 8.36035 71.0098 6.43066 94.3096 6.43066
s73.2998 1.86035 94.2998 -6.42969c13.9102 -5.48926 24.9209 -16.5 30.4102 -30.4102zM223.997 109.997c45.3105 -0.0556641 82.0547 36.6895 81.999 82c0 14.3936 -3.78906 28.5342 -10.9863 41c-31.5615 54.667 -110.466 54.667 -142.027 0s7.89062 -123 71.0146 -123z
M309.376 258.297c10.5762 0.00585938 19.1729 8.56348 19.1289 19.1396c0 3.36328 -0.885742 6.66699 -2.56836 9.5791c-7.37402 12.7559 -25.791 12.7461 -33.1514 -0.0175781s1.85645 -28.709 16.5908 -28.7012zM399.994 415.996c26.5098 0 48 -21.4902 48 -48v-352
c0 -26.5098 -21.4902 -48 -48 -48h-352c-26.5098 0 -48 21.4902 -48 48v352c0 26.5098 21.4902 48 48 48h352zM382.874 125.996c1.49023 26.4404 1.49219 105.561 0.00195312 131.881c-1.21973 25.6299 -7.17969 48.3496 -25.8496 67.0498s-41.3701 24.5605 -67 25.8506
c-26.4102 1.49023 -105.59 1.49023 -132 0c-25.5303 -1.21973 -48.2207 -7.12012 -67.001 -25.7803s-24.5605 -41.3701 -25.8506 -67c-1.49023 -26.3896 -1.49023 -105.58 0 -132c1.21973 -25.5801 7.10938 -48.2998 25.8496 -67s41.3701 -24.5605 67 -25.8506
c26.4102 -1.49023 105.59 -1.49023 132 0c25.5996 1.21973 48.29 7.18945 67 25.8496s24.5596 41.3701 25.8496 67z" />
    <glyph glyph-name="mixer" unicode="mixer" horiz-adv-x="512" 
d="M114.57 371.93l128.318 -172.399c3.07129 -4.24609 3.07129 -9.9834 0 -14.2295l-128.89 -173.24c-16.1689 -21.6914 -47.5361 -24.6699 -67.499 -6.40918c-17.8496 16.1797 -18.9697 43.5195 -4.73926 62.7695l92.3301 124.15l-91.7803 123
c-14.25 19.25 -12.8301 46.5898 4.75 62.7695c19.9639 18.2676 51.3398 15.2881 67.5098 -6.41113zM470.238 68.4209c14.2305 -19.25 13.1104 -46.5928 -4.72949 -62.7725c-19.9639 -18.2676 -51.3398 -15.2881 -67.5098 6.41113l-128.57 173.5
c-3.07129 4.24609 -3.07129 9.9834 0 14.2295l128 172.12c16.1699 21.6992 47.5459 24.6787 67.5098 6.41113c17.5801 -16.1797 18.9697 -43.5195 4.75 -62.7695l-91.7803 -123z" />
    <glyph glyph-name="shopify" unicode="shopify" 
d="M388.32 343.9c0.400391 -2.40039 54.4404 -367.9 54.4404 -367.9l-125.69 -31.2002v432.73c8.00977 -8.00977 29.6201 -28.8301 29.6201 -28.8301s35.2305 -0.799805 37.2305 -0.799805c2.2373 -0.102539 4.08496 -1.78223 4.39941 -4zM288.65 377.53
c9.20996 2.7998 14.8066 4.39746 14.8066 4.39746c1.45898 0.210938 2.92773 0.344727 4.40039 0.400391v-438.33l-302.58 52.4795s36.7998 281.82 38 291.82c1.58984 13.2002 2 13.6006 16 18.001c0.400391 0.400391 19.6104 6.41016 47.2305 14.8105
c2.82031 21.2197 13.21 48.4395 26.8203 70.0596c19.25 30.8301 43.25 48.0303 67.25 48.8301c12.4199 0.370117 22.8203 -3.62988 30.8203 -12.3994c0.400391 -0.799805 1.2002 -1.2002 1.60059 -2c1.30957 0.3125 2.65527 0.447266 4.00098 0.400391
c18.4199 0 34 -10.8496 44.4404 -30.8594c2.87891 -5.66406 5.29004 -11.5537 7.20996 -17.6104zM233.407 360.309c0.400391 13.21 -1.2002 32.8311 -8.00977 47.2012c-6.7998 -3.2002 -12.8096 -8.41016 -17.21 -12.8105c-11.21 -12.3701 -20.8203 -31.1797 -25.6201 -50
c17.21 5.20996 34.8398 10.8096 50.8398 15.6094zM200.576 423.56c-36.8301 -0.799805 -69.251 -58.8408 -78.0107 -97.2305c13.1699 4 27.5801 8.40039 42 12.8105c4.7998 24.4502 16.4102 50.0303 31.6201 66.4502c6 6 12.4102 11.21 18.8105 14.4102
c-4.38867 2.4873 -9.37793 3.71875 -14.4199 3.55957zM154.146 203.389c-0.400391 4.80957 0.000976562 23.6104 29.6211 25.6201c20.4199 1.59961 37.6299 -6.40039 37.6299 -6.40039l15.21 57.5996s-13.2305 6.41016 -39.2305 4.81055
c-67.25 -4.41016 -97.6699 -51.2402 -94.4697 -97.6807c3.59961 -55.2402 58.8398 -53.2402 60.8398 -86.8604c0.410156 -8.00977 -4.80957 -19.6201 -18.8096 -20.4199c-21.6201 -1.59961 -48.4404 18.8203 -48.4404 18.8203l-10.4004 -44
s26.8203 -28.8203 75.6504 -25.6201c40.4297 2.41016 68.4492 34.8301 65.6494 82.4697c-4 60.4404 -71.6504 66.0508 -73.25 91.6611zM249.416 365.12c8.80664 2.7998 16.8125 5.2002 24.0195 7.2002c-4.00977 12.4297 -12.8096 32.8301 -31.2295 36.4297
c5.61035 -14.4102 7.20996 -31.6299 7.20996 -43.6299z" />
    <glyph glyph-name="deezer" unicode="deezer" horiz-adv-x="576" 
d="M451.46 203.29v72.71h124.54v-72.71h-124.54zM451.46 377.18h124.54v-72.6699h-124.54v72.6699zM451.46 102.12v72.6797h124.54v-72.6797h-124.54zM-0 0.910156v72.6699h124.54v-72.6699h-124.54zM150.47 0.910156v72.6699h124.53v-72.6699h-124.53zM300.989 0.910156
l0.00976562 72.6699h124.53v-72.6699h-124.54zM451.459 0.910156v72.6699h124.54v-72.6699h-124.54zM300.999 102.12v72.6797h124.53v-72.6797h-124.53zM150.479 102.12l-0.0107422 72.6797h124.53v-72.6797h-124.52zM150.479 203.29l-0.0107422 72.71h124.53v-72.71
h-124.52zM150.478 203.29z" />
    <glyph glyph-name="edge-legacy" unicode="edge&#x2d;legacy" horiz-adv-x="512" 
d="M25.71 219.84h0.279297c0.0703125 0.160156 0.0703125 0.320312 0.0703125 0.480469zM486.289 204.33l0.00292969 -52.0703h-314.08c1.38965 -128.49 191.39 -124.061 272.26 -67.5703v-104.43c-47.3604 -28.5303 -156.78 -53.1699 -240.13 -21.3301
c-70.6201 27.1602 -119.92 100.55 -120.75 172c-1.09961 92.2197 45.7002 153.42 120.75 188.32c-15.79 -19.9297 -27.9697 -41.54 -34.3398 -78.9297h175.85c10.25 105 -99.4199 105 -99.4199 105c-103.3 -3.62012 -177.95 -63.6904 -220.37 -125
c14.5596 114.47 92.9395 219.96 232.829 219.68c85.0195 0 157.609 -39.8799 198.589 -113.27c21.0498 -37.9404 28.8096 -78.4004 28.8096 -122.4zM486.292 204.33z" />
    <glyph glyph-name="google-pay" unicode="google&#x2d;pay" horiz-adv-x="640" 
d="M105.72 233l99.6582 -0.00390625c1.17676 -7.2002 1.76172 -14.4844 1.75 -21.7803c0 -32.7598 -11.4102 -60.2998 -31.4102 -78.9102c-17.4502 -16.3799 -41.5303 -25.9102 -70 -25.9102c-40.125 0.100586 -76.7139 22.9736 -94.3799 59.001v0.150391
c-15.1201 30.2773 -15.1201 65.9023 0 96.1797c17.6611 36.0469 54.2402 58.9561 94.3809 59.1104c26.3047 0.264648 51.6797 -9.7207 70.75 -27.8398l-30.2803 -30.6201c-10.8047 10.5693 -25.3975 16.3623 -40.5098 16.0811
c-27.5996 0 -50.9297 -18.9102 -59.2998 -44.3701v0c-4.37988 -13.3154 -4.37988 -27.6836 0 -40.999c8.37012 -25.3096 31.7002 -44.2197 59.2998 -44.2197c14.2803 0 26.46 3.73047 36 10.2803c11.1816 7.54492 18.8135 19.3135 21.1406 32.6006h-57.0996v41.25z
M495.128 236.996c10.1299 -9.33984 15.1211 -22.4492 15.0508 -38.999v-78.7002h-22.6104v17.7197h-1c-9.79004 -14.5898 -22.71 -21.8896 -39 -21.8896c-13.79 0 -25.54 4.16992 -34.79 12.5098c-9.12891 7.78516 -14.252 19.2773 -13.9404 31.2705
c0 13.25 4.98047 23.6699 14.8203 31.5596s23.0498 11.7695 39.4902 11.7695c14.0898 0 25.54 -2.67969 34.6396 -7.75v5.50977c-0.00488281 8.14551 -3.53906 15.8896 -9.68945 21.2305c-6.23828 5.63867 -14.3418 8.76953 -22.75 8.79004
c-13.207 0 -23.627 -5.66699 -31.2607 -17l-20.8496 13.2598c11.1602 16.5195 28.04 24.8594 50.5 24.8594c17.46 0 31.2598 -4.75977 41.3896 -14.1396zM475.898 147.697c7.78027 7.4502 11.7412 16.2285 11.7412 26.3584
c-7.33984 5.94043 -17.6396 8.94043 -30.7998 8.78027c-9.54004 0 -17.75 -2.38965 -24.0703 -7s-9.54004 -10.4199 -9.54004 -17.4199c-0.03125 -6.14648 2.85059 -11.9443 7.76953 -15.6299c5.19727 -4.15039 11.6787 -6.36035 18.3291 -6.24902
c9.99414 0.0126953 19.5654 4.0332 26.5703 11.1602zM382.249 289.695c21.4951 -20.4541 22.6543 -54.3135 2.6084 -76.1904c-0.889648 -0.889648 -1.76953 -1.79004 -2.64941 -2.67969c-11.0098 -10.5703 -24.5098 -15.9307 -40.5098 -15.9307h-39v-75.6396h-23.6299
v186.74h62.6699c15.1592 0.305664 29.7881 -5.58008 40.5107 -16.2998zM365.667 227.464c12.3174 13.0771 11.9893 33.6221 -0.740234 46.2988c-6.01758 5.94238 -14.1426 9.26074 -22.5996 9.23047h-39.6299v-65.21h39.6299
c8.80957 -0.279297 17.3135 3.24805 23.3398 9.68066zM614.307 246.993h25.6895l-79 -183.87h-24.3496l29.3496 64.3203l-51.79 119.55h25.6904l37.4199 -91.7002h0.450195zM614.306 246.993z" />
    <glyph glyph-name="rust" unicode="rust" horiz-adv-x="512" 
d="M508.52 198.25c4.64258 -2.87305 4.59277 -9.63281 -0.0498047 -12.5059l-21.8203 -13.5098c-0.169922 -1.95996 -0.339844 -3.91992 -0.549805 -5.87012l18.7197 -17.5c3.98242 -3.72461 2.66602 -10.3359 -2.43945 -12.25l-24 -9
c-0.540039 -1.88965 -1.08008 -3.7793 -1.66992 -5.64941l15 -20.8301c3.18066 -4.43262 0.594727 -10.6631 -4.79004 -11.54l-25.4199 -4.15039c-0.900391 -1.71973 -1.79004 -3.4502 -2.73047 -5.15039l10.6797 -23.4199
c1.05469 -2.31641 0.834961 -5.01367 -0.580078 -7.12988c-1.39941 -2.13477 -3.82031 -3.37402 -6.37012 -3.25977l-25.8203 0.910156c-1.18652 -1.48633 -2.38965 -2.95312 -3.60938 -4.39941l5.92969 -25.1602c1.23926 -5.3125 -3.52832 -10.0801 -8.84082 -8.84082
l-25.1504 5.92969c-1.45312 -1.21289 -2.91992 -2.41602 -4.40039 -3.60938l0.910156 -25.8203c0.193359 -5.45703 -5.41992 -9.21191 -10.3896 -6.9502l-23.4199 10.6797c-1.7002 -0.94043 -3.43066 -1.83008 -5.15039 -2.73047l-4.15039 -25.4199
c-0.87207 -5.38867 -7.1123 -7.97363 -11.54 -4.7793l-20.8203 15c-1.87012 -0.599609 -3.75977 -1.12988 -5.64941 -1.67969l-9 -24c-1.92285 -5.09473 -8.52148 -6.40918 -12.25 -2.44043l-17.5 18.7305c-1.9502 -0.219727 -3.87988 -0.389648 -5.87988 -0.55957
l-13.5098 -21.8203c-2.87305 -4.64258 -9.62695 -4.64258 -12.5 0l-13.5098 21.8203c-1.95996 0.169922 -3.92969 0.339844 -5.87988 0.549805l-17.5 -18.7197c-3.72852 -3.96875 -10.3271 -2.6543 -12.25 2.44043l-9 24
c-1.88965 0.549805 -3.79004 1.08008 -5.65039 1.67969l-20.8301 -15c-4.42773 -3.19434 -10.668 -0.609375 -11.54 4.7793l-4.15039 25.4199c-1.71973 0.900391 -3.4502 1.79004 -5.14062 2.73047l-23.4297 -10.6797c-4.96973 -2.26172 -10.583 1.49316 -10.3896 6.9502
l0.919922 25.8203c-1.48633 1.18652 -2.95605 2.38965 -4.40918 3.60938l-25.1602 -5.92969c-5.3125 -1.23926 -10.0801 3.52832 -8.84082 8.84082l5.92969 25.1602c-1.21973 1.45312 -2.41992 2.91992 -3.59961 4.40039l-25.8301 -0.910156
c-2.55469 -0.134766 -4.98535 1.10938 -6.37012 3.25977c-1.41211 2.11816 -1.62793 4.81543 -0.570312 7.13086l10.6299 23.4297c-0.94043 1.69043 -1.83008 3.4209 -2.73047 5.14062l-25.4199 4.15039c-5.38477 0.876953 -7.9707 7.10742 -4.79004 11.54l15 20.8301
c-0.599609 1.87012 -1.12988 3.75977 -1.67969 5.64941l-24 9c-5.10547 1.91406 -6.42188 8.52539 -2.43945 12.25l18.7197 17.5c-0.209961 1.9502 -0.379883 3.87012 -0.549805 5.87012l-21.8203 13.5098c-4.64258 2.87305 -4.64258 9.62695 0 12.5l21.8604 13.5
c0.169922 1.96973 0.339844 3.92969 0.549805 5.87988l-18.7197 17.5c-3.98242 3.72461 -2.66602 10.3359 2.43945 12.25l24 9c0.549805 1.88965 1.08984 3.79004 1.67969 5.66016l-15 20.8203c-3.18066 4.43262 -0.594727 10.6631 4.79004 11.54l25.4102 4.13965
c0.900391 1.73047 1.79004 3.46094 2.73047 5.16113l-10.6602 23.4102c-1.05762 2.31543 -0.841797 5.0127 0.569336 7.13086c1.4248 2.10645 3.8291 3.33691 6.37109 3.26074l25.8096 -0.910156c1.19043 1.48047 2.39062 2.95996 3.62109 4.41016l-5.92969 25.1602
c-1.23926 5.3125 3.52832 10.0801 8.84082 8.84082l25.1504 -5.96973c1.41992 1.21973 2.92969 2.41992 4.41992 3.61035l-0.919922 25.8096c-0.232422 5.47852 5.39941 9.27246 10.3896 7l23.4004 -10.6299c1.70996 0.94043 3.42969 1.83008 5.16016 2.73047
l4.15039 25.4102c0.876953 5.38477 7.10742 7.9707 11.54 4.79004l20.8203 -15c1.87012 0.599609 3.77051 1.12988 5.66016 1.67969l9 24c1.91406 5.10547 8.52539 6.42188 12.25 2.43945l17.5 -18.7197c1.9502 0.209961 3.87988 0.379883 5.87988 0.549805l13.5098 21.8203
c2.87305 4.64258 9.62695 4.64258 12.5 0l13.4795 -21.8398c1.96973 -0.169922 3.92969 -0.339844 5.87988 -0.549805l17.5 18.7197c3.72461 3.98242 10.3359 2.66602 12.25 -2.43945l9 -24c1.88965 -0.540039 3.7793 -1.08008 5.63965 -1.66992l20.8604 14.9697
c4.43262 3.18066 10.6631 0.594727 11.54 -4.79004l4.15039 -25.4199c1.71973 -0.889648 3.44922 -1.79004 5.14941 -2.73047l23.4199 10.7305c4.99023 2.27246 10.6221 -1.52148 10.3896 -7l-0.910156 -25.8203c1.48633 -1.18652 2.95312 -2.38965 4.39941 -3.60938
l25.1602 5.92969c5.3125 1.23926 10.0801 -3.52832 8.84082 -8.84082l-5.87988 -25.1602c1.21289 -1.45312 2.41602 -2.91992 3.60938 -4.40039l25.8203 0.910156c5.45703 0.193359 9.21191 -5.41992 6.9502 -10.3896l-10.6797 -23.4199
c0.94043 -1.7002 1.83008 -3.41992 2.73047 -5.15039l25.4199 -4.15039c5.38477 -0.876953 7.9707 -7.10742 4.79004 -11.54l-15 -20.8301c0.589844 -1.86035 1.12988 -3.76074 1.66992 -5.64062l24 -9c5.10547 -1.91406 6.42188 -8.52539 2.43945 -12.25l-18.7197 -17.5
c0.209961 -1.9502 0.379883 -3.87988 0.549805 -5.87988zM357.52 69.1641l32.1396 -6.87988c6.24805 6.27832 12.043 12.9922 17.3408 20.0908h-79.0498c-12.5 0 -24.21 17.6396 -27.0996 26.46c-2.88965 7.86035 -7.14941 32.4502 -9.05957 40
c-6.12988 24.5898 -25.3799 25.8701 -29.79 25.8701h-48.4805l-0.0498047 -34.3496h44.8301c1.71973 0 2.88965 -0.339844 2.88965 -1.91016v-54.1904c0 -1.62012 -1.16992 -1.91016 -2.88965 -1.91016h-153.17c4.9834 -6.76074 10.416 -13.1787 16.2607 -19.21
l31.5098 6.75977c7.49512 1.59863 14.8662 -3.18359 16.46 -10.6797l7.63965 -35.6602c49.5254 -23.0029 106.618 -23.2734 156.359 -0.740234l7.63965 35.6699c1.6123 7.51074 9.00879 12.292 16.5195 10.6797zM383.289 34.6738l-0.0507812 0.00195312
c0.00878906 8.25 -6.55273 15.0068 -14.7998 15.2402h-0.44043c-2.6582 -0.00878906 -5.26758 -0.712891 -7.56934 -2.04199c-10.1602 -5.86621 -10.1602 -20.5312 0 -26.3975s22.8604 1.46582 22.8604 13.1973zM157.668 35.3555l-0.0507812 0.00195312
c0.00488281 8.23047 -6.52344 14.9795 -14.75 15.249h-0.450195c-2.66797 -0.00195312 -5.28906 -0.704102 -7.60059 -2.03711c-10.1641 -5.85938 -10.1738 -20.5244 -0.0175781 -26.3975c10.1562 -5.87207 22.8613 1.45215 22.8691 13.1836zM69.5674 213.848
c-2.60156 -24.0293 -0.537109 -48.335 6.08008 -71.5811h53.5996v119.73h-26.5596l6.76953 -15.2197c3.11816 -7.01074 -0.0439453 -15.2217 -7.05957 -18.3301zM58.3076 249.907c0.000976562 -2.52734 0.649414 -5.00293 1.85059 -7.22656
c5.57715 -10.3213 20.2363 -10.7354 26.3867 -0.745117s-0.820312 22.8916 -12.5479 23.2227h-0.459961c-8.41699 -0.00585938 -15.2354 -6.83398 -15.2295 -15.251zM213.467 225.419h58.6992c12.4902 0 27.6807 4.41016 27.6807 16.7002
c0 14.8496 -19.79 18.6201 -23.0703 18.6201h-63.2598zM398.996 141.289c10.3096 1.12988 21.999 5.71289 22.0186 26.4629v8.82031c0 1.86035 0.780273 3.12988 2.69043 3.12988h19.2803c0.811523 10.8379 0.677734 21.7256 -0.400391 32.54l-34.5898 15.3301
c-6.97559 3.14551 -10.1328 11.3086 -7.08984 18.3291l18 40.5703c-27.2832 47.8525 -74.2275 81.2881 -128.37 91.4297l-26.2598 -25c-5.52441 -5.31445 -14.3193 -5.11719 -19.5996 0.44043l-23.4697 24.5996c-40.5215 -7.6582 -77.3877 -28.4619 -104.891 -59.1904h198.9
c4.99023 0 23.5098 -2.23047 40.2695 -13.2305c11.9102 -7.88965 29.4004 -23.96 29.4004 -49.4805c0 -23.6201 -19.5996 -41.3105 -38.46 -53.2607c15.1797 -12 24.79 -18.9102 30.5703 -51.4004c1.37012 -5.96973 12.2002 -11.2197 22 -10.0898zM239.995 387.792
c-0.00390625 -2.54102 0.62793 -5.04297 1.83691 -7.27734c5.58398 -10.3174 20.2432 -10.7217 26.3867 -0.727539s-0.835938 22.8916 -12.5635 23.2148h-0.450195c-8.39355 -0.0166016 -15.1934 -6.81641 -15.21 -15.21zM436.835 234.002
c5.44434 -0.078125 10.5195 2.75391 13.3096 7.42969c6.0127 10.0752 -1.13672 22.8809 -12.8682 23.0498h-0.44043c-5.44434 0 -10.4756 -2.9043 -13.1982 -7.61914c-5.86621 -10.1602 1.46582 -22.8604 13.1973 -22.8604z" />
    <glyph glyph-name="tiktok" unicode="tiktok" 
d="M448 238.09l-0.000976562 87.3799c-23.8252 -0.00488281 -47.126 6.99902 -67 20.1396c-28.2324 18.1934 -47.7305 47.207 -53.9102 80.2197v0c-1.29883 7.31738 -1.92188 14.7383 -1.86035 22.1699h-88v-349.38c0 -20.9043 -8.76758 -40.8496 -24.1699 -54.9824
c-42.3242 -38.8369 -110.818 -17.292 -123.289 38.7803s40.4346 104.618 95.2305 87.3828v89.8896c-35.8008 4.96289 -72.2354 -2.14746 -103.543 -20.208c-108.39 -62.5254 -108.447 -218.939 -0.103516 -281.545s243.831 15.5518 243.877 140.683v178.72
c35.7988 -25.625 78.7441 -39.3545 122.77 -39.249zM447.999 238.09z" />
    <glyph glyph-name="unsplash" unicode="unsplash" 
d="M448 217.83h-141.13v-124.92h-165.74v124.92h-141.13v-249.83h448v249.83zM306.87 416v-124.91h-165.74v124.91h165.74zM306.87 416z" />
    <glyph glyph-name="cloudflare" unicode="cloudflare" horiz-adv-x="640" 
d="M407.906 128.087c12.1836 -0.574219 22.2168 -5.50977 28.2324 -13.9014c6.54785 -9.09961 8 -21.5 4.09961 -34.9004l-3.27344 -11.2646c-0.699219 -2.33887 -2.83105 -3.95703 -5.27148 -4.00098c-0.0419922 -0.000976562 -0.0791016 -0.0195312 -0.12207 -0.0195312
l-426.1 0.0507812c-2.2373 0.00878906 -4.12891 1.65625 -4.44531 3.87109c-0.681641 4.62109 -1.02539 9.28613 -1.02832 13.958c0 52.3916 41.9238 95.0137 94.2002 96.5293c-2.09668 8.22461 -2.6377 16.7686 -1.59473 25.1924
c6.44043 52.042 66.8027 77.5957 108.652 45.9971c8.12988 23.5801 21.9404 44.7949 40.2119 61.7725c85.668 79.5996 225.379 36.6113 251.48 -77.3789c0.112305 -0.536133 0.166992 -1.08301 0.164062 -1.63086c0.0126953 -1.00293 -0.165039 -1.99902 -0.523438 -2.93555
l-13.2861 -34.542c-10.4756 -27.21 -40.3906 -49.5244 -68.0215 -50.7842l-232.94 -2.93555c-2.43848 -0.170898 -4.54395 -1.77148 -5.36035 -4.07617c-0.500977 -1.38281 -0.317383 -2.9209 0.494141 -4.14746c0.837891 -1.17969 2.18457 -1.89355 3.63184 -1.92578z
M513.855 226.9c69.668 0 126.143 -56.1973 126.146 -125.53c0.0126953 -11.4951 -1.5625 -22.9365 -4.68164 -34c-0.589844 -2.01172 -2.44238 -3.3877 -4.53809 -3.37012h-175.91c-0.0478516 0 -0.0898438 0.0166016 -0.135742 0.0166016
c-1.85352 0.0761719 -3.08691 1.94629 -2.42676 3.67969l3.69531 9.60645c10.4756 27.21 40.3906 49.5137 68.1445 50.7832l51.125 2.93945c2.43359 0.176758 4.5332 1.77539 5.35059 4.07422c0.503906 1.3916 0.3125 2.94043 -0.513672 4.16895
c-0.810547 1.14453 -2.10938 1.84473 -3.51074 1.89355l-49.2002 2.93945c-12.1836 0.577148 -22.2178 5.5 -28.2373 13.9004c-6.54883 9.10352 -8 21.4893 -4.09961 34.8896l9.07715 31.1934c0.456055 1.48438 1.77539 2.53711 3.32422 2.65234
c2.12012 0.101562 4.25 0.163086 6.39062 0.163086z" />
    <glyph glyph-name="guilded" unicode="guilded" 
d="M443.427 384c0.0712891 -29.082 -1.88574 -58.1318 -5.85449 -86.9414h-336.147s0.366211 -52.0498 27.0918 -105.883c27.458 -51.8184 65.3164 -85.1035 96.5488 -98.3623c32.2695 15.082 63.4434 41.2686 80.4551 69.4814h-88.5889
c-22.9229 18.998 -40.96 50.5146 -45.0996 86.9434h259.889c-12.8164 -58.5713 -40.0098 -111.838 -65.917 -145.761c-36.084 -47.1279 -84.8311 -83.0176 -140.549 -103.478c-1.25586 0 -113.21 33.8652 -177.267 161.643
c-21.2256 42.2979 -43.418 119.098 -43.418 222.357h438.856z" />
    <glyph glyph-name="hive" unicode="hive" horiz-adv-x="512" 
d="M260.353 193.122c0.400391 -0.69043 0.400391 -1.5459 0.00390625 -2.23828l-127.412 -221.778l-0.00585938 -0.00878906c-0.850586 -1.47168 -2.97559 -1.47168 -3.8252 0.000976562l-128.816 221.778c-0.399414 0.691406 -0.399414 1.54395 0 2.23535l127.409 221.778
l0.00585938 0.00878906c0.849609 1.47266 2.97461 1.47363 3.8252 0.00195312zM299.429 218.831l-110.624 193.825c-0.853516 1.47363 0.197266 3.32031 1.90039 3.34082h66.5078c0.787109 -0.000976562 1.5127 -0.425781 1.90039 -1.11133l110.625 -193.824
c0.853516 -1.47363 -0.197266 -3.32031 -1.90039 -3.34082h-66.5088c-0.787109 0.00195312 -1.5127 0.425781 -1.90039 1.11035zM511.697 193.111c0.394531 -0.69043 0.394531 -1.53711 0 -2.22754l-126.807 -221.774
c-0.389648 -0.685547 -1.11719 -1.10938 -1.90625 -1.11133h-66.5996c-1.70508 0.0166016 -2.75977 1.86426 -1.90625 3.33984l126.171 220.66l-126.168 220.66c-0.853516 1.47559 0.201172 3.32324 1.90625 3.33984h66.5996
c0.790039 -0.000976562 1.51953 -0.425781 1.91016 -1.1123zM366.014 163.081c1.70312 -0.0195312 2.75488 -1.86621 1.90137 -3.34082l-108.8 -190.631c-0.387695 -0.685547 -1.11328 -1.10938 -1.90039 -1.11035h-66.5088
c-1.70312 0.0205078 -2.75391 1.86719 -1.90039 3.34082l108.8 190.631c0.387695 0.685547 1.11328 1.10938 1.90039 1.11035h66.5078z" />
    <glyph glyph-name="42-group" unicode="&#x34;&#x32;&#x2d;group" horiz-adv-x="640" 
d="M320 352c21.0107 0 41.8174 -4.13867 61.2295 -12.1787c19.4111 -8.04102 37.0498 -19.8262 51.9082 -34.6846c14.8574 -14.8574 26.6426 -32.4961 34.6836 -51.9082c8.04004 -19.4111 12.1787 -40.2178 12.1787 -61.2285s-4.13867 -41.8174 -12.1787 -61.2295
c-8.04102 -19.4111 -19.8262 -37.0498 -34.6836 -51.9082c-14.8584 -14.8574 -32.4971 -26.6426 -51.9082 -34.6836c-19.4121 -8.04004 -40.2188 -12.1787 -61.2295 -12.1787v320zM0 192l160.002 160l160.001 -160l-160.001 -160zM480 192
c0 42.4346 16.8574 83.1309 46.8623 113.137c30.0068 30.0049 70.7031 46.8633 113.138 46.8633v-320c-21.0107 0 -41.8174 4.1377 -61.2295 12.1787c-19.4131 8.04004 -37.0498 19.8262 -51.9082 34.6836c-14.8574 14.8584 -26.6436 32.4951 -34.6836 51.9082
c-8.04102 19.4121 -12.1787 40.2188 -12.1787 61.2295z" />
    <glyph glyph-name="instalod" unicode="instalod" horiz-adv-x="512" 
d="M153.384 -32l50.8457 146.789l298.325 57.4463l-115.441 -204.235h-233.729zM504.727 207.922l-144.497 -27.8223l-204.561 235.9h231.444zM124.386 399.19l101.24 -116.753l-102.391 -295.593l-115.962 205.154zM124.385 399.189z" />
    <glyph glyph-name="octopus-deploy" unicode="octopus&#x2d;deploy" horiz-adv-x="512" 
d="M455.6 98.7998c12.4395 -10.5996 42.6357 -26.4766 42.5254 -45.2656c-0.15332 -24.6084 -48.4258 5.24023 -53.8184 9.51953c6.13867 -10.7275 66.998 -74.1787 28.2617 -78.6943c-35.6562 -4.1582 -67.1406 45.6416 -88.5615 67.0225
c-36 35.9082 -29.7373 -43.5332 -29.9004 -59.9443c-0.256836 -25.9092 -18.5576 -78.4209 -51.4111 -44.2207c-27.1377 28.2314 -16.873 73.2617 -35.7383 104.623c-20.6641 34.3525 -55.0361 -34.3545 -63.627 -46.9268
c-9.59668 -14.042 -57.6084 -82.041 -76.708 -45.8125c-15.499 29.4004 9.2793 75.5127 21.4629 102.103c-4.44336 -9.65723 -35.9307 -23.9414 -45.1309 -28.5889c-20.7871 -10.4971 -41.8867 -16.7246 -65.2646 -15.0449
c-27.8906 2.00098 -38.3779 11.6582 8.42773 41.8584c38.5625 24.8389 83.8623 67.4209 66.6621 117.582c-9.37305 27.3301 -22.3574 50.7568 -24.0908 80.2998c-1.4707 25.0107 2.27148 50.0547 10.9883 73.5439c34.5752 92.8057 137.363 136.747 230.253 108.847
c86.0371 -25.8398 145.23 -125.74 109.575 -212.79c-20.5752 -50.2334 -29.7959 -89.0205 16.0947 -128.11z" />
    <glyph glyph-name="perbyte" unicode="perbyte" 
d="M305.314 163.422c15.9307 0.000976562 28.5732 -4.50098 37.9277 -13.5068s14.0322 -20.7842 14.0322 -35.335c0 -14.8936 -4.58984 -26.9307 -13.7695 -36.1104s-21.9111 -13.7695 -38.1934 -13.7695h-58.7109v98.7217h58.7139zM149.436 319.3
c15.9346 0.00488281 28.5781 -4.49707 37.9307 -13.5049s14.0293 -20.7871 14.0293 -35.3379c0 -14.8896 -4.58984 -26.9258 -13.7695 -36.1074s-21.9102 -13.7725 -38.1904 -13.7725h-58.7109v98.7227h58.7109zM366.647 416
c44.9082 -0.0507812 81.3037 -36.4434 81.3545 -81.3516v-285.295c-0.0507812 -44.9092 -36.4443 -81.3027 -81.3535 -81.3535h-285.294c-44.9092 0.0507812 -81.3027 36.4443 -81.3535 81.3535v285.295c0.0507812 44.9082 36.4443 81.3008 81.3525 81.3516h285.294z
M430.284 49.3525v285.296c-0.0400391 35.1279 -28.5078 63.5947 -63.6357 63.6338h-285.294c-35.1279 -0.0390625 -63.5947 -28.5059 -63.6348 -63.6338v-285.295c0.0390625 -35.1289 28.5068 -63.5967 63.6348 -63.6357h285.294
c35.1289 0.0390625 63.5967 28.5068 63.6357 63.6348zM305.316 319.301c15.9307 0.00488281 28.5732 -4.49707 37.9277 -13.5049s14.0322 -20.7871 14.0322 -35.3379c0 -14.8896 -4.58984 -26.9258 -13.7695 -36.1074s-21.9111 -13.7725 -38.1934 -13.7725h-58.7109v98.7227
h58.7139z" />
    <glyph glyph-name="uncharted" unicode="uncharted" 
d="M171.73 215.187c-0.712891 -0.0283203 -1.4209 0.113281 -2.06836 0.413086l-115.932 67.9004v-85.2891c-0.0800781 -2.62012 -1.11133 -5.12207 -2.90039 -7.03906c-1.80078 -1.65918 -4.17773 -2.55078 -6.625 -2.48438
c-1.74219 -0.0859375 -3.4707 0.34668 -4.96777 1.24219l-22.3584 12.835c-3.10352 1.58301 -5.03223 4.79785 -4.96875 8.28125v115.107c0.114258 3.43359 1.99316 6.56445 4.96875 8.28125l100.2 57.9658c2.95801 1.65625 6.56445 1.65625 9.52246 0l22.3584 -12.8379
c3.10352 -1.58301 5.03223 -4.79785 4.96777 -8.28125c-0.114258 -3.43359 -1.99316 -6.56445 -4.96875 -8.28125l-74.5293 -43.4727l116.757 -68.3184c1.19043 -0.699219 1.96387 -1.93652 2.07129 -3.3125c0 -1.65723 -0.414062 -3.31348 -1.65723 -4.1416
c-7.47559 -6.66211 -12.6846 -15.4912 -14.9004 -25.2559c-0.834961 -2.00684 -2.7959 -3.31348 -4.96973 -3.3125zM323.274 70.2695c4.96777 0 9.52637 -4.55664 10.3496 -9.11035v-26.085c-0.114258 -3.43359 -1.99316 -6.56445 -4.96875 -8.28125l-100.2 -57.5527
c-1.53613 -0.797852 -3.23828 -1.22363 -4.96875 -1.24219c-1.74219 -0.0859375 -3.4707 0.34668 -4.96777 1.24219l-100.2 57.5527c-3.10449 1.58301 -5.0332 4.79785 -4.96875 8.28125v26.085c0.0585938 5.23535 4.28809 9.46484 9.52344 9.52344
c1.74219 0.0859375 3.47168 -0.34668 4.96875 -1.24219l74.5293 -43.0605v133.323c0.0742188 3.1875 3.14648 5.44141 6.20996 4.55469c9.5127 -2.55566 19.5488 -2.41211 28.9844 0.415039c3.31055 1.24512 6.21094 -1.65527 6.21094 -4.55566v-134.152l74.5283 43.0625
c1.55273 0.75293 3.24512 1.17578 4.96973 1.24219zM286.009 369.998c-12.7021 0 -23 10.2988 -23 23.001c0 4.03711 1.0625 8.00293 3.08105 11.499c8.85254 15.333 30.9844 15.333 39.8369 0s-2.21289 -34.5 -19.918 -34.5zM349.636 380.085
c12.7021 0 23 -10.2988 23 -23.001c0 -4.03711 -1.0625 -8.00293 -3.08105 -11.499c-8.85254 -15.333 -30.9844 -15.333 -39.8369 0s2.21289 34.5 19.918 34.5zM412.817 296.398c-12.7021 0 -23 10.2988 -23 23.001c0 4.03711 1.0625 8.00293 3.08105 11.499
c8.85254 15.333 30.9844 15.333 39.8369 0s-2.21289 -34.5 -19.918 -34.5zM349.636 305.6c12.7021 0 23 -10.2988 23 -23.001c0 -4.03711 -1.0625 -8.00293 -3.08105 -11.499c-8.85254 -15.333 -30.9844 -15.333 -39.8369 0s2.21289 34.5 19.918 34.5zM286.009 222.354
c-12.7041 0 -23.002 10.2969 -23 23.001c0 4.03711 1.0625 8.00293 3.08105 11.499c8.85254 15.333 30.9844 15.333 39.8369 0s-2.21289 -34.5 -19.918 -34.5zM223.935 185.997c-12.7041 0 -23.002 10.2969 -23 23.001c0 4.03711 1.0625 8.00293 3.08105 11.499
c8.85254 15.333 30.9844 15.333 39.8369 0s-2.21289 -34.5 -19.918 -34.5zM412.817 268.356c12.7012 0 22.998 -10.2998 23 -23.001c0 -4.03711 -1.0625 -8.00293 -3.08105 -11.499c-8.85254 -15.333 -30.9844 -15.333 -39.8369 0s2.21289 34.5 19.918 34.5z
M412.817 196.083c12.7012 0 22.998 -10.2998 23 -23.001c0 -4.03711 -1.0625 -8.00293 -3.08105 -11.499c-8.85254 -15.333 -30.9844 -15.333 -39.8369 0s2.21289 34.5 19.918 34.5zM412.817 196.082z" />
    <glyph glyph-name="watchman-monitoring" unicode="watchman&#x2d;monitoring" horiz-adv-x="512" 
d="M256 432c132.548 0 240 -107.452 240 -240s-107.452 -240 -240 -240s-240 107.452 -240 240s107.452 240 240 240zM121.69 18.8779l27.6846 204.862l-9.46777 7.40039c-3.16895 2.48633 -4.98047 6.32129 -4.88672 10.3486c0 7.04883 0.143555 19.5488 0.143555 19.5488
l13.9434 2.0127l0.121094 10.9668l-102.9 -17.8955c-6.36621 -20.7783 -9.59766 -42.3896 -9.58691 -64.1211c0 -70.3223 33.3154 -132.973 84.9492 -173.123zM227.383 302.148l0.0410156 -3.61914l193.512 37.7002c-41.5498 47.6729 -101.696 75.0322 -164.935 75.0254
c-74.4863 0 -140.374 -37.3623 -180.018 -94.2998l73.5068 -19.1758l0.0478516 4.36914l-8.48145 7.61816s-6.93359 5.37988 0.144531 9.34375c7.18652 4.02637 39.5283 34.5 39.5283 34.5c7.20312 7.34668 10.1123 5.47656 15.46 0c0 0 32.3418 -30.4756 39.5303 -34.5
c7.07715 -3.96387 0.143555 -9.34375 0.143555 -9.34375zM261.447 -27.1211c118.386 2.90918 213.813 100.046 213.813 219.12c-0.0107422 16.8799 -1.97363 33.7021 -5.85059 50.1309l-241.711 31.3906l0.116211 -10.4736l13.9434 -2.0127
s0.143555 -12.5049 0.143555 -19.5488c0.0927734 -4.02734 -1.71875 -7.8623 -4.88867 -10.3486l-9.4668 -7.40039zM261.447 -27.1221z" />
    <glyph glyph-name="wodu" unicode="wodu" horiz-adv-x="640" 
d="M178.414 108.294l45.917 170.76h-36.8311l-27.9785 -117.667h-0.479492l-29.1777 117.667h-35.1572l-29.6553 -116.231h-0.477539l-27.0264 116.231h-37.5479l45.2002 -170.76h38.0283l28.46 116.231h0.477539l28.9336 -116.231h37.3145zM271.4 235.287
c-38.7412 0 -63.8535 -25.8281 -63.8555 -65.291c0 -39.2217 25.1123 -65.0498 63.8555 -65.0498c38.9893 0 64.1006 25.8281 64.1006 65.0498c0 39.4629 -25.1162 65.291 -64.1006 65.291zM271.4 130.534c-22.957 0 -29.8926 19.8516 -29.8945 39.4619
c0 19.8496 2.19434 39.6992 29.8945 39.6992c23.1992 0 30.1328 -19.8477 30.1328 -39.6992c0 -19.6104 -6.93262 -39.4619 -30.1328 -39.4619zM435.083 124.078v-15.7842h32.2871v170.76h-33.96v-62.1826h-0.240234c-7.89258 12.1982 -22.2412 18.416 -36.8301 18.416
c-36.3516 0 -54.7666 -30.8516 -54.7666 -64.0947c0 -34.2012 18.1748 -66.2461 55.4844 -66.2461c15.7832 0 29.6553 5.74023 37.5479 19.1318h0.477539zM405.427 209.7c22.0039 0 29.1777 -19.1357 29.1777 -39.2227c0 -20.3271 -6.69629 -39.9404 -29.1787 -39.9404
c-21.0459 0 -29.8936 20.3291 -29.8936 39.7002c0 20.3291 7.6543 39.4629 29.8945 39.4629zM592.959 108.294v123.646h-33.9609v-64.8184c0 -25.1104 -7.89062 -35.3936 -26.3057 -35.3936c-15.7861 0 -21.7656 10.043 -21.7656 30.3721v69.8389h-33.959v-76.0518
c0 -30.6133 9.08691 -50.9414 45.2002 -50.9414c14.3496 0 29.1768 6.69727 37.7861 20.5674h0.717773v-17.2188h32.2871zM602.452 145.125v-36.8301h37.5469v36.8301h-37.5469zM602.452 145.125z" />
    <glyph glyph-name="notdef" unicode="notdef" horiz-adv-x="384" 
d="M64 57.7002v268.6l89.5 -134.3zM102.5 0l89.5 134.3l89.5 -134.3h-179zM230.5 192l89.5 134.3v-268.6zM281.5 384l-89.5 -134.3l-89.5 134.3h179zM0 400v-416c0 -26.5 21.5 -48 48 -48h288c26.5 0 48 21.5 48 48v416c0 26.5 -21.5 48 -48 48h-288
c-26.5 0 -48 -21.5 -48 -48z" />
    <glyph glyph-name="wirsindhandwerk" unicode="wirsindhandwerk" horiz-adv-x="512" 
d="M50.7715 -31.8125v64.9561l83.3604 47.0088v-111.965h-83.3604zM379.818 -31.8125v111.965l82.3506 -47.0088v-64.9561h-82.3506zM379.824 416.188h82.3438v-360.794l-205.992 122.286l-205.404 -122.286v360.794h83.7324v-219.756l121.672 72.3818l123.648 -72.3818
v219.756zM379.823 416.188z" />
    <glyph glyph-name="bots" unicode="bots" horiz-adv-x="640" 
d="M86.3438 250.166c34.8848 0 61.9219 -27.6191 61.9248 -73.5557c0 -47.6787 -27.3223 -73.8428 -61.9219 -73.8428c-15.6992 0 -29.9453 6.39648 -41.5732 19.7695v-8.08789c0 -4.52344 -3.66699 -8.18945 -8.19043 -8.18848h-28.3936
c-4.52344 -0.000976562 -8.19043 3.66504 -8.19043 8.18848v177.533c0 4.52344 3.66699 8.19043 8.19043 8.19043h28.3936c4.52344 0 8.19043 -3.66699 8.19043 -8.19043v-61.874c9.94434 12.835 25.335 20.2607 41.5703 20.0576zM71.5156 142.308
c17.7344 0 31.1074 13.083 31.1074 34.3057c0 20.9307 -13.373 34.0127 -31.1074 34.0127c-9.59277 0 -21.2168 -5.2334 -26.7451 -12.791v-43.0273c5.52441 -7.55762 17.1523 -12.5 26.7451 -12.5zM227.888 201.341c9.60938 0 17.4004 -7.78906 17.4004 -17.3984
c0 -3.05469 -0.803711 -6.05566 -2.33105 -8.70117c-6.69727 -11.5996 -23.4404 -11.5996 -30.1377 0s1.67383 26.0996 15.0684 26.0996zM273.957 291.301c78.166 -3.72656 126.281 -87.0625 90.4248 -156.62c-37.9141 -73.5488 -141.229 -78.4736 -185.968 -8.86523
s2.65332 161.545 85.3057 165.485v44.6611c-5.54102 2.30859 -8.85059 8.04102 -8.0791 13.9941c1.31543 10.1592 13.1357 15.085 21.2764 8.86523s6.49609 -18.9189 -2.95996 -22.8594v-44.6611zM359.951 183.934c0 30.5303 -40.793 55.2812 -91.1123 55.2812
s-91.1113 -24.75 -91.1113 -55.2812s40.791 -55.2812 91.1113 -55.2812s91.1123 24.75 91.1123 55.2812zM309.788 166.533c-9.60938 0 -17.3984 7.78906 -17.3994 17.3984v0c0 3.05469 0.803711 6.05566 2.33105 8.70117c6.69727 11.5996 23.4404 11.5996 30.1377 0
s-1.6748 -26.0996 -15.0693 -26.0996zM580.703 197.543c23.8369 -4.36133 59.2988 -10.1738 59.2939 -48.2637c0 -26.7461 -23.5479 -46.5146 -63.957 -46.5146c-21.7783 0 -44.2178 6.3916 -59.4414 16.6914c-3.64941 2.43359 -4.74512 7.30371 -2.49121 11.0664
l10.2002 16.8906c0.03125 0.0556641 0.0654297 0.109375 0.100586 0.163086c2.44238 3.81836 7.51758 4.93359 11.3359 2.49121c11.6289 -7.35742 29.0713 -13.5791 42.623 -13.5791c13.377 0 18.9004 4.35742 18.9004 10.7578c0 6.68652 -10.7568 8.72168 -24.1299 11.0479
c-23.8379 3.77832 -57.5625 9.30078 -57.5625 45.6426c0 24.7109 21.2227 46.2246 60.1787 46.2246c18.3057 0.143555 36.2988 -4.74707 52.0137 -14.1387c3.82617 -2.30762 5.10156 -7.25391 2.86719 -11.123l-8.61133 -14.8857
c-0.0615234 -0.112305 -0.129883 -0.223633 -0.200195 -0.333984c-2.43555 -3.79785 -7.48926 -4.90234 -11.2881 -2.4668c-10.3301 6.5127 -22.2734 10.0107 -34.4844 10.1006c-10.4668 0 -17.7344 -4.36133 -17.7344 -9.88477
c0 -6.10547 7.55859 -7.26855 22.3867 -9.88574zM484.774 136.758l4.98828 -19.2627c0.947266 -3.68066 -0.771484 -7.52832 -4.14453 -9.27832c-6.2168 -3.24609 -15.417 -5.44629 -27.5996 -5.44629c-28.4922 0 -43.9004 14.2451 -43.9004 41.2822v63.667h-15.1152
c-4.49707 0 -8.14258 3.64551 -8.14258 8.14258v22.6709v0c0 4.49707 3.64551 8.14258 8.14258 8.14258h15.1143v30.2324v0c0 4.49707 3.64551 8.14258 8.14258 8.14258h28.1943c4.49707 0 8.14258 -3.64551 8.14258 -8.14258v-30.2324h20.3506
c4.49609 -0.000976562 8.14062 -3.64648 8.14062 -8.14258v-22.6709c0 -4.49609 -3.64453 -8.1416 -8.14062 -8.14258h-20.3486v-51.166c0 -8.13867 4.65137 -14.2451 12.5 -14.2451c1.39355 0.00390625 2.78418 0.133789 4.1543 0.387695
c4.24219 0.835938 8.40625 -1.76074 9.52148 -5.93848zM484.774 136.758z" />
    <glyph glyph-name="cmplid" unicode="cmplid" horiz-adv-x="640" 
d="M226.119 59.835c0 -0.492188 -0.0966797 -0.975586 -0.28125 -1.43164l-10.7061 -41.1348c-0.814453 -2.91016 -3.375 -4.99121 -6.39062 -5.19336h-148.568c-0.953125 -0.0478516 -1.90625 -0.0722656 -2.85938 -0.0722656
c-39.8467 0.106445 -67.4951 39.7451 -53.8311 77.1758l26.9072 103.55c12.5957 43.7432 51.5332 74.6953 96.9902 77.0996h148.503c0.0634766 0.00488281 0.126953 0.00488281 0.189453 0.00488281c0.47168 0 0.938477 -0.0888672 1.37695 -0.261719
c1.97461 -0.75293 2.97266 -2.95703 2.23633 -4.9375l-10.7686 -41.1309c-0.797852 -2.92188 -3.36816 -5.01074 -6.3916 -5.19434h-148.567c-15.2373 -0.861328 -28.2441 -11.3076 -32.373 -26l-26.9092 -102.583c-4.72656 -12.5508 4.5127 -25.9658 17.9238 -26.0244
l149.596 0.0195312c0.564453 -0.0107422 1.12012 -0.141602 1.62891 -0.384766c1.39355 -0.606445 2.29492 -1.98145 2.29492 -3.50098zM306.656 366.804l-21.375 -80.917h-51.1309l21.3467 80.915c0.785156 2.92871 3.35938 5.02441 6.38672 5.2002h41h0.193359
c2.12012 0.00976562 3.84082 -1.71191 3.83008 -3.83203c0 -0.466797 -0.0849609 -0.929688 -0.250977 -1.36621zM180.361 79.7529l31.957 122.559h51.1309l-31.9521 -122.559h-51.1357zM511.851 368.279c-0.00195312 -0.509766 -0.111328 -1.01172 -0.320312 -1.47656
l-91.46 -349.439c-0.797852 -2.92188 -3.36914 -5.01074 -6.39258 -5.19336h-41h-0.167969c-2.13184 0.00488281 -3.8584 1.73145 -3.86426 3.86328c0 0.458008 0.0888672 0.911133 0.261719 1.33496l91.3291 349.436c0.852539 2.95508 3.51074 5.02539 6.58496 5.12891h41
c0.0927734 0.00683594 0.171875 0.00683594 0.229492 0.00683594c2.04395 -0.00292969 3.7207 -1.61816 3.7998 -3.66016zM324.646 63.5332c0.109375 0.0136719 0.185547 0.0126953 0.293945 0.0126953c2.67871 -0.00683594 4.48633 -2.73926 3.44434 -5.20703
l-10.7686 -41.1309c-0.789062 -2.92676 -3.36426 -5.01953 -6.39062 -5.19336h-40.9053c-0.133789 -0.0117188 -0.240234 -0.0117188 -0.299805 -0.0117188c-2.10156 0.00683594 -3.79492 1.72461 -3.77148 3.82617c0 0.470703 0.0908203 0.9375 0.267578 1.37402
l10.7373 41.1357c0.832031 2.89941 3.38379 4.97266 6.39258 5.19434h41zM635.97 371.933v-0.0947266c0.0693359 0.00585938 0.138672 0.00585938 0.207031 0.00585938c2.00977 -0.00488281 3.67578 -1.55859 3.82031 -3.56348
c-0.00195312 -0.508789 -0.111328 -1.01172 -0.320312 -1.47559l-91.3955 -349.44c-0.806641 -2.91602 -3.37305 -5.00098 -6.39258 -5.19336h-40.9678h-0.167969c-2.12695 0.00488281 -3.85156 1.72461 -3.86328 3.85156c0 0.458984 0.0771484 0.914062 0.228516 1.34668
l91.46 349.436c0.820312 2.89648 3.38574 4.95508 6.3916 5.12793h41zM371.559 222.769c-0.791016 -2.92969 -3.36719 -5.02246 -6.39746 -5.19043h-41.1289c-0.120117 -0.0117188 -0.224609 -0.0117188 -0.300781 -0.0117188
c-1.97754 0.00488281 -3.61621 1.53418 -3.75684 3.50684v0.207031c0 0.508789 0.0878906 1.01367 0.259766 1.49219l10.834 41.0996c0.84375 2.89648 3.38379 4.97363 6.38965 5.22559h41.0996h0.167969c2.12305 -0.00390625 3.8457 -1.71875 3.86035 -3.8418
c0 -0.47168 -0.0771484 -0.94043 -0.227539 -1.3877z" />
    <glyph glyph-name="bilibili" unicode="bilibili" horiz-adv-x="512" 
d="M488.6 343.9h-0.00195312c-16.7002 16.3496 -38.2998 25.3301 -64.7002 26.0996h-29.2998l25.2998 25.8096c5.7002 5.73047 8.60059 13 8.60059 21.79c0 8.7998 -2.90039 16.0596 -8.60059 21.7969c-5.7998 5.73535 -13.0996 8.60352 -21.8994 8.60352
s-16.2998 -2.86816 -22.3994 -8.60352l-74.5 -69.3975h-88l-73.2998 69.3975c-5.7998 5.73535 -13.0996 8.60352 -21.8994 8.60352s-16.0996 -2.86816 -21.8496 -8.60352c-5.75 -5.7373 -8.62988 -12.9971 -8.62988 -21.7969c0 -8.79004 2.87988 -16.0596 8.62988 -21.79
l25.3496 -25.8096h-29.3799c-26.4502 -0.769531 -48.21 -9.75 -65.2803 -26.0996c-17.0576 -18.0996 -25.9727 -39.6992 -26.7393 -65.6992v-198.4c0.766602 -28.2998 9.68164 -51.2002 26.7393 -68.6006c17.0703 -17.4004 38.8301 -26.4004 65.2803 -27.2002h327.88
c26.4004 0.799805 48.3008 9.7002 65.501 26.7002c17.2998 17 26.0996 38.7002 26.5 65.1006v202.4c1.09961 26 -6.60059 47.5996 -23.3008 65.6992zM449.798 274.2v-194.4c-0.400391 -9.2002 -3.80078 -17 -10.1006 -23.5s-14.0996 -9.7998 -23.2998 -9.7998h-320.35
c-9.2002 0 -17.0605 3.2998 -23.5801 9.7998s-9.7793 14.2998 -9.7793 23.5v194.4c0.379883 9.59961 3.63965 17.3994 9.7793 23.499c6.12988 6.09961 13.9902 9.39941 23.5801 9.7998h320.35c8.7002 -0.400391 17.5 -3.7002 22.7002 -9.7998
c7 -6.09961 10.2998 -13.8994 10.7002 -23.499zM185.498 231.5h0.00195312c-6.2998 6.2998 -14.0996 9.59961 -23.2998 10c-10.0996 -0.400391 -17 -3.7002 -23.2998 -10s-9.7002 -14.0996 -10.1006 -23.1992v-33.2998c0.400391 -9.2002 3.7002 -16.9004 9.7998 -23.2002
s14 -9.5 23.5996 -9.5s17.3994 3.2002 23.5996 9.5c6.09961 6.2998 9.39941 14 9.7998 23.2002v33.2998c-0.400391 9.09961 -3.80078 16.8994 -10.1006 23.1992zM377 231.5h0.000976562c-6.2998 6.2998 -14.0996 9.59961 -23.2998 10
c-9.2002 -0.400391 -17 -3.7002 -23.2998 -10s-9.7002 -14.0996 -10 -23.1992v-33.2998c0.299805 -9.2002 2.7002 -16.9004 9.7002 -23.2002c6.2002 -6.2998 14 -9.5 23.5996 -9.5s17.5 3.2002 23.5996 9.5s9.39941 14 9.7998 23.2002v33.2998
c-0.400391 9.09961 -3.80078 16.8994 -10.1006 23.1992z" />
    <glyph glyph-name="golang" unicode="golang" horiz-adv-x="640" 
d="M400.1 253.2c3.7002 0.900391 4.99707 2.50195 3.09668 5.30176c-7.7998 18.0996 -19.5996 33 -36.0996 43.9004c-25.2998 17.2002 -53.2998 21.5 -82.5996 15.2998c-35.7998 -6.5 -65.0996 -24.9004 -87.2998 -53.9004c-20.5 -25.9004 -30.5 -57.3008 -26.4004 -91.3008
c3.40039 -28.7002 16.5 -51.7002 39.5 -69.2002c25 -18.7002 53.2998 -24.6006 83.8994 -20.501c37 4.90039 66.2998 23.3008 87.8994 52.9004c6 6.7002 10.2998 13.7998 14 21.0996c5.2002 -18.9004 15.7998 -35.2002 31.0996 -48.5
c21.7998 -18.7002 47.7002 -26.7998 76 -27.3994c2.7998 0.299805 5.59961 0.599609 8.5 0.799805c5.40039 0.5 10.9004 1 16.5 2c29 5.90039 54.2002 19 73.9004 39.9004c29.7998 29.2998 42 63.5 36.7002 105.6c-4.09961 29.9004 -19.2998 52.7002 -43.8994 69.5
c-27.2002 18.4004 -57.1006 21.5 -88.9004 15.9004c-37.9004 -6.5 -64.5 -22.0996 -87.2002 -52c-9.7998 -12.7998 -17.0996 -26.2998 -21.5996 -39.7002h-101.1c-3.7998 0 -6 -4 -6.90039 -5.7998c-4.40039 -8.09961 -11.9004 -24.2998 -15.9004 -34
c-2.2002 -5.2998 -0.600586 -9.2998 5.89941 -9.2998h60.0996c-0.799805 -1.2002 -1.5 -2.2998 -2.2998 -3.2998v0v0c-2.09961 -3 -4 -5.7002 -6.09961 -8.2998c-14 -15.9004 -31.7998 -23.3008 -53.7998 -20.501c-23.7998 3.40039 -40.8994 23.9004 -41.1992 48.9004
c-0.299805 25.2002 10.6006 45.5 31.8008 59.2002c17.7002 11.5 36.7002 14.2998 56.4004 4.7002c6.5 -3.2002 9.90039 -6.60059 14.6006 -11.9004c3.90039 -4.5 4.30078 -4.40039 8.50098 -3.2002l0.599609 0.0996094c8.5 2.2002 15.9004 4.2002 23.2002 6.10059
c9.2002 3.2998 18.2002 4.7998 29.1006 7.59961zM48.2969 247.603l112.801 -0.300781c0.900391 0 2.5 0.900391 3.09961 1.90039l5.2998 8.09961c0.599609 0.900391 0.299805 1.80078 -0.900391 1.80078h-111.26c-1.25 0 -2.80957 -0.599609 -3.42969 -1.5l-6.5498 -8.40039
c-0.620117 -1 -0.310547 -1.59961 0.939453 -1.59961zM1.24414 218.901l147.354 0.300781c1.2998 0 2.5 0.700195 2.7998 1.90039l2.5 7.5c0.299805 0.900391 -0.299805 1.90039 -1.5 1.90039h-142.12c-1.24316 0 -2.80078 -0.700195 -3.4248 -1.60059l-6.54297 -8.40039
c-0.623047 -0.900391 -0.311523 -1.60059 0.93457 -1.60059zM75.7178 192.103l4.36035 7.7998c0.629883 1 1.87012 1.90039 3.12012 1.90039h62.2998c1.2998 0 1.89941 -0.900391 1.89941 -2.2002l-0.599609 -7.5c0 -1.2002 -1.2998 -2.10059 -2.2002 -2.10059
l-67.9502 0.299805c-1.24023 0 -1.5498 0.900391 -0.929688 1.80078zM577.198 210.103c0.0996094 -1 0.100586 -2.10059 0.200195 -3.30078c-1.59961 -26.7998 -15 -45.8994 -39.5996 -59.499c-16.5 -8.5 -33.5996 -9.40039 -50.7998 -1.90039
c-22.4004 10 -34.2002 34.5996 -28.6006 58.8994c6.7998 29.2998 25.5 47.7002 54.5 54.2002c29.5996 6.90039 58 -10.5996 63.5996 -41.3994c0.400391 -2.2002 0.5 -4.40039 0.700195 -7z" />
    <glyph glyph-name="pix" unicode="pix" horiz-adv-x="512" 
d="M242.4 155.5l-76.6982 -76.6992c-14.2002 -14.2002 -33.1006 -22 -53.1006 -22h-9.2998l97.5 -97.4004c30.2998 -29.5 79.5 -29.5 109.8 0l97.0996 97.0996h-15.0996c-20 0 -38.9004 7.7998 -53.1006 22l-77 77c-5.40039 5.40039 -14.7002 5.40039 -20.1006 0z
M262.502 229.101l76.999 77.001c14.2002 14.2002 33.1006 22 53.1006 22h15.2002l-97.2002 97.1396c-30.2998 30.3457 -79.5 30.3457 -109.9 0l-97.4004 -97.4404h9.2998c20 0 38.9004 -6.90039 53.1006 -22l76.7002 -76.7002c5.5 -5.59961 13.7002 -5.5 20.1006 0z
M112.601 305.302l-31.8193 0.000976562l-58.0195 -58.0996c-30.3457 -30.2998 -30.3457 -79.5 0 -109.8l58.0195 -58h31.8203c13.7998 0 26.5 5.59961 37.0996 15.3994l76.7002 76.5996c13.9004 14 38.2002 14 52.1006 0.0996094l77 -77
c9.7998 -9.7998 23.2998 -15.3994 37.0996 -15.3994h37.7002l58.2998 58.2998c30.2998 30.2998 30.2998 79.5 0 109.8l-58.2998 58.2998h-37.7002c-13.7998 0 -27.2998 -5.59961 -37.0996 -15.2998l-77 -77c-7.2002 -6.2998 -16.6006 -10.7998 -26.001 -10.7998
c-9.5 0 -18.9004 4.5 -26.1006 10.7998l-76.7002 76.7002c-10.5996 9.7998 -23.2998 15.3994 -37.0996 15.3994z" />
    <glyph glyph-name="sitrox" unicode="sitrox" 
d="M212.439 447.991c-70.6836 -0.466797 -148.439 -57.5918 -148.439 -127.991h384v128h-235.561v-0.00878906zM237.256 256l-173.256 -0.000976562c0 -70.4238 76.915 -127.562 146.809 -127.994v-0.00488281h173.191c0 70.4004 -76.8652 127.525 -146.744 127.993
v0.00683594zM235.564 -63.9941v-0.00683594h-235.565v128h384c0 -70.3994 -77.749 -127.521 -148.435 -127.993z" />
    <glyph glyph-name="hashnode" unicode="hashnode" horiz-adv-x="512" 
d="M35.1904 276.9l135.91 135.91c46 46.9102 122.9 46.9102 169.801 0l135.9 -135.91c46.9004 -46 46.9004 -122.9 0 -169.801l-135.9 -135.9c-46.9004 -46.9004 -123.801 -46.9004 -169.801 0l-135.91 135.9c-46.9102 46.9004 -46.9102 123.801 0 169.801zM315.5 132.5
c32.7998 32.9004 32.7998 86.1006 0 118.9c-32.9004 32.9004 -86.1006 32.9004 -118.9 0c-32.9004 -32.7998 -32.9004 -86 0 -118.9c32.7998 -32.7998 86 -32.7998 118.9 0z" />
    <glyph glyph-name="meta" unicode="meta" horiz-adv-x="640" 
d="M640 130.1l-0.000976562 -0.000976562c0 149.8 -81.5996 275.5 -180.699 275.5c-52.5 0 -93.5 -39.4004 -130.6 -89.5c-51 64.8203 -94.5996 89.5 -144.8 89.5c-104.12 0 -183.9 -135.1 -183.9 -278.1c-0 -88.5996 43.4199 -145.899 116.2 -145.899
c52.2998 0 89.8994 24.5996 156.899 141.199c0 0 27 49.2002 47.0996 83c6.7002 -10.7998 12.9004 -22.5 21.2002 -35l31.4004 -52.5996c61.0996 -102 94.2998 -136.6 156.899 -136.6c70.9004 0 110.301 57.2002 110.301 148.5zM287.399 255.799v-0.000976562
c-40.7002 -62.2998 -65.4004 -101.399 -65.4004 -101.399c-54.2002 -84.7998 -73 -103.8 -103.2 -103.8c-31.0996 0 -49.5801 27.2002 -49.5801 75.7002c0 103.9 51.8799 210 113.78 210c33.5 0 61.5 -18.4004 104.4 -80.5zM531.199 50.5977h0.000976562
c-30.9004 0 -45.7002 20.4004 -104.4 114.5l-37.5 62.4004c-10.2002 16.4004 -19.9004 31.6006 -29.3008 45.4004c33.7998 52.0996 61.7002 78.0195 94.9004 78.0195c68.9004 0 123.2 -101.22 123.2 -225.42c0 -47.4004 -14.7002 -74.9004 -46.9004 -74.9004z" />
    <glyph glyph-name="padlet" unicode="padlet" horiz-adv-x="640" 
d="M297.9 448h-0.00292969c-7.59961 -0.182617 -14.5 -4.7959 -17.5 -11.7793l-132.1 -308.42l-0.0996094 -0.400391l2.7002 -10l42.9004 -158c3.7002 -16.2002 19.7002 -26.2998 35.7998 -22.5996l68.5 15.5996l68.4004 -15.5996
c16.0996 -3.7002 32.0996 6.39941 35.7998 22.5996l42.9004 158l2.7998 10l-0.200195 0.400391l-0.299805 -0.0996094l-132 308.52c-3.09961 7.05957 -9.89941 11.6719 -17.499 11.7783zM160.098 125.901l131.801 -25.7998l5.2002 320.18l8.59961 -320.18l131 25.0996
l-0.200195 -0.0996094l-130.6 -39.2998l-7.90039 -121.5l-6.90039 122.5zM425.999 225.401l42.7998 -97.5996l-31.5996 -109l157 247.6h-73.7998zM597.499 266.602l-17.7998 -65.7002l47.5996 -22.7002c7.7002 -3.7002 15.6006 4.7002 11.6006 12.2002zM127.299 129.502
l42.0996 96l-151.85 84.2002c-10.4219 5.7998 -21.8418 -5.7998 -15.9395 -16.2002l157.09 -275.5z" />
    <glyph glyph-name="nfc-directional" unicode="nfc&#x2d;directional" horiz-adv-x="512" 
d="M211.8 -40.5996l-0.000976562 0.00390625c-1.59961 2.5 -4.19922 4.2998 -7.09961 5c-55 12.4004 -104.6 44.4004 -137.02 89.9004c-33.2998 45.5996 -48.9502 101.699 -44.0703 157.899s29.9697 108.8 70.6201 147.93c40.6699 39.1396 94.0703 62.2295 150.471 64.9795
v-89.5098l-24.5 26.0098c-2.09961 2.17969 -4.89941 3.44922 -7.89941 3.5293c-3 0.0898438 -5.90039 -1.02051 -8.10059 -3.08008c-2.2002 -1.16016 -3.5 -4.90039 -3.5 -7.90039c-0.0996094 -2.99023 1 -5.90039 3 -8.06055l44.0996 -46.5996
c1 -1.09961 2.2998 -2 3.7002 -2.59961s3 -0.899414 3.59961 -0.899414c2.40039 0 3.90039 0.299805 5.40039 0.899414c1.40039 0.599609 2.60059 1.5 3.7002 2.59961l44 46.5996c1 1.09961 1.7998 2.33008 2.39941 3.71973c0.5 1.37988 0.700195 2.85938 0.700195 4.33984
c0 1.49023 -0.400391 2.9502 -1 4.2998c-0.599609 1.36035 -1.5 2.58008 -2.5 3.59961c-1.09961 1.02051 -2.39941 1.82031 -3.7998 2.35059s-2.80078 0.780273 -4.30078 0.730469c-1.5 -0.0400391 -3 -0.370117 -4.2998 -0.980469
c-1.40039 -0.599609 -2.60059 -1.46973 -3.60059 -2.5498l-24.5 -25.9102v100.98c0 1.48145 -0.299805 2.95312 -0.799805 4.32715c-0.599609 1.37402 -1.39941 2.62207 -2.49902 3.67383c-1.90039 1.05176 -2.30078 1.88672 -3.70117 2.45605
c-2.2002 0.569336 -2.7998 0.862305 -4.2998 0.862305c-63 0.0126953 -123.8 -23.2002 -170.71 -65.21c-46.9502 -41.9902 -76.7539 -99.79 -83.7197 -162.49c-6.96484 -62.5996 9.40039 -125.5 45.96 -176.8c36.5703 -51.2998 90.7705 -87.2998 152.171 -101.2
c3 -0.599609 6 -0.0996094 8.59961 1.5c2.5 1.59961 4.2998 4.19922 4.89941 7.09961c0.700195 2.90039 0.200195 6 -1.39941 8.5zM171.398 321.904l0.000976562 -0.00390625c0.900391 1.2002 1.40039 2.60059 1.7002 4.10059c0.299805 1.40039 0.299805 2.90039 0 4.40039
s-0.899414 2.90039 -1.69922 4.10059c-0.900391 1.2002 -1.90039 2.2998 -3.2002 3.09961s-2.7002 1.39941 -4.10059 1.59961c-1.5 0.299805 -3 0.299805 -4.5 0c-1.40039 -0.400391 -2.80078 -1 -4.00098 -1.7998c-23.5996 -16 -42.7998 -37.5 -56.1396 -62.7002
c-13.3096 -25.0996 -20.2695 -53.1992 -20.2695 -81.5996c0 -28.5 6.95996 -56.5 20.2695 -81.5996c13.3398 -25.2002 32.54 -46.7002 56.1396 -62.7002c2.40039 -1.7002 5.5 -2.2998 8.40039 -0.899414c2.09961 -0.299805 5.59961 1.40039 7.2998 3.90039
c0.799805 2.40039 2.2998 5.5 1.7002 8.40039c-0.5 3 -2.2002 5.59961 -4.7002 7.2998c-20.5 13.9004 -37.2002 32.6006 -48.7998 55.4004c-11.5996 21 -17.6992 45.4004 -17.6992 70.2002s6.09961 49.2002 17.6992 71.1006s28.2998 40.6006 48.7998 54.501
c1.2002 0.799805 2.2998 1.89941 3.09961 3.19922zM340.899 64.5v0.00488281c-0.799805 -1.2998 -1.39941 -2.7002 -1.59961 -4.10059c-1.2002 -1.5 -0.299805 -3 0 -4.40039c0.299805 -1.5 0.899414 -2.90039 1.69922 -4.10059
c0.900391 -1.2002 1.10059 -2.2998 3.2002 -3.09961c1.2002 0.0996094 2.60059 -1.30078 4.10059 -1.60059s2.90039 -0.299805 4.40039 0s2.7998 0.899414 4.09961 1.7998c23.4004 16 42.7002 37.5 55.9004 62.5996c13.2998 25.0996 19.3994 53.0996 19.3994 81.5996
c0 28.4004 -6.09961 56.4004 -19.3994 81.5c-13.2002 25.0996 -32.5 46.5996 -55.9004 62.5996c-1.2998 0.900391 -2.59961 1.5 -4.09961 1.7998s-2.90039 0.299805 -4.40039 0s-2.90039 -0.799805 -4.10059 -1.59961c-2.09961 -0.799805 -2.2998 -1.89941 -3.2002 -3.09961
c-0.799805 -1.2002 -1.39941 -2.60059 -1.69922 -4.10059c-0.299805 -1.40039 -1.2002 -2.90039 0 -4.40039c0.200195 -1.40039 0.799805 -2.80078 1.59961 -4.10059c0.799805 -1.2002 1.89941 -2.2998 2.19922 -3.09961c21.2998 -14 38 -31.7998 49.5996 -54.5
c11.5 -21.9004 17.5 -46.3008 17.5 -71.001s-6 -49.1006 -17.5 -70.9004c-11.5996 -21.9004 -28.2998 -40.6006 -49.5996 -54.6006v-0.0996094c-0.299805 -0.799805 -1.39941 -1.89941 -2.19922 -3.09961zM312.3 441.698v0
c-1.40039 0.325195 -2.90039 0.362305 -4.40039 0.109375c-1.40039 -0.25293 -2.80078 -0.791992 -4.10059 -1.58594c-1.2002 -0.792969 -2.2998 -1.82617 -3.2002 -3.03613c-0.799805 -1.21973 -1.39941 -2.58984 -1.7998 -4.03027
c-0.299805 -1.4502 -0.299805 -2.9502 -0.0996094 -4.41016c-0.599609 -1.45996 0.800781 -2.86035 1.60059 -4.11035c0.799805 -1.25977 1.7998 -2.33984 3 -3.2002c1.2998 -0.849609 2.59961 -1.45996 4.09961 -1.79004c55 -12.4297 103.7 -44.3896 137 -89.9395
c33.2998 -45.5996 48.8994 -100.8 44.0996 -157.899c-4.90039 -56.2002 -30 -107.9 -70.7002 -147.9c-40.7002 -39.2002 -94.1006 -62.2002 -150.501 -65v87.5l24.5 -25.9004c2 -2.2002 4.90039 -2.60059 7.90039 -3.60059c3 -0.0996094 5.90039 1.10059 8.10059 4.00098
c2.09961 1.2002 3.39941 4 3.49902 7s-1 5.90039 -3.09961 8.10059l-44 46.5996c-2.2002 2.2002 -5.10059 3.40039 -9.10059 3.40039c-2.2002 0 -6 -1.2002 -7.2998 -3.40039l-44.0996 -46.5996c-2 -2.2002 -3.09961 -5.10059 -3 -8.10059c0 -3 1.2998 -5.7998 3.5 -7
c2.2002 -2.90039 5.10059 -4.10059 8.10059 -4.00098c3 1 5.7998 1.40039 7.89941 3.60059l24.5 26v-99.2002c0 -1.5 0.299805 -2.90039 0.899414 -4.30078c0.5 -1.40039 0.5 -2.60059 2.40039 -3.7002c1.09961 -1 2.2998 -1.90039 3.7002 -2.40039
c1.40039 -0.599609 2.80078 -0.899414 4.30078 -0.899414c48.4004 0 95.7002 13.7002 136.601 39.4004c40.9004 25.7998 73.6006 62.7002 94.501 106.3c20.7998 43.5996 28.7998 92.2998 23.2002 140.3c-5.7002 48 -24.9004 93.4004 -55.3008 130.99
c-36.2998 44.7305 -86.5 75.9707 -142.7 88.7041zM353.1 191.905l0.000976562 -0.00195312c0 31.4004 -17.5 61.1006 -49.2998 83.501c-2.40039 1.7998 -5.5 2.39941 -8.40039 1.89941c-3 -0.5 -5.59961 -2.09961 -7.2998 -4.59961
c-1.7998 -2.40039 -2.39941 -5.5 -1.89941 -8.40039c0.5 -3 2.09961 -5.59961 4.59961 -7.2998c25.5996 -18.0996 39.6992 -41.1992 39.6992 -65.0996c0 -21.4004 -11.4004 -42.2002 -32.2002 -59.2998l-63.0996 62.7998c-2.09961 2.09961 -5 3.2998 -8 3.2998
s-5.7998 -1.2002 -8 -3.2998c-2.09961 -2.09961 -3.2998 -5 -3.2998 -8c-0.799805 -3 1.2002 -5.90039 3.40039 -8l70.0996 -69.7998c1.7998 -1.90039 4.2998 -3 7 -3.2002c2.59961 -0.299805 5.2998 0.5 7.39941 2c31.7998 22.4004 49.2998 52.1006 49.2998 83.501z
M216.7 106.503l-0.000976562 0.00195312c2.90039 0.5 5.60059 2.2002 7.30078 4.60059c1.7002 2.5 2.40039 5.5 1.90039 8.40039c-0.5 3 -2.2002 5.59961 -4.60059 7.39941c-25.5996 18 -39.6992 42 -39.6992 65c0 21.4004 11.2998 42.1006 32.2002 59.4004
l63.0996 -62.9004c1.2002 -2.09961 5 -3.2998 8 -3.2998c2.90039 0 5.80078 1.2002 7.90039 3.2998c1.2998 2.2002 3.2998 5 3.2998 8s-1.2002 5.90039 -3.2998 8l-70.0996 69.7998c-1.90039 1.90039 -4.30078 3 -7.00098 3.2998
c-2.59961 0.200195 -5.2998 -0.5 -7.5 -2.09961c-31.7002 -22.4004 -50.1006 -52.1006 -50.1006 -83.501s18.4004 -61.1006 50.1006 -83.501c2.5 -1.7002 5.5 -2.40039 8.5 -1.90039z" />
    <glyph glyph-name="nfc-symbol" unicode="nfc&#x2d;symbol" horiz-adv-x="576" 
d="M392.9 415.57l-0.00292969 -0.000976562c-7.7002 -1.33984 -14.6006 -5.68945 -19.1006 -12.0996c-4.59961 -6.41016 -6.39941 -14.3604 -4.99902 -22.0898c1.2998 -7.73047 5.7002 -14.6201 12.1006 -19.1406c67 -47.1396 103.9 -107.739 103.9 -169.339
c0 -56.9004 -29.7002 -111.4 -84.2998 -156.101l-165.1 164.4c-5.5 5.5 -13 8.59961 -20.9004 8.59961c-7.7998 0 -15.2998 -3.2002 -20.8994 -8.7002c-5.5 -5.59961 -9.5 -13.0996 -9.5 -20.8994c0.900391 -7.90039 4 -15.4004 9.59961 -20.9004l183.4 -182.7
c4.90039 -4.90039 11.4004 -7.90039 18.4004 -8.5c6.90039 -0.599609 13.8008 1.30078 18.6006 5.30078c84.0996 58.7002 129.899 136.4 129.899 219.5c0 81.4004 -45.7998 158.96 -129.899 217.69c-5.5 4.51953 -13.5 6.30957 -21.2002 4.97949zM186.897 -31.6006
l0.000976562 -0.000976562c7.7998 1.40039 14.7002 5.7002 19.2002 12.1006s6.2998 14.4004 5 22.1006c-1.40039 7.7998 -5.7002 14.5996 -13 19.1992c-66.2002 47.0996 -103.07 107.699 -103.07 171.1c0 55.2002 29.6699 109.2 84.2695 154.4l165.1 -164.5
c4.7002 -5.5 13.1006 -8.59961 20.9004 -8.59961c7.90039 0 15.4004 3.2002 20.9004 8.7002c5.59961 5.59961 8.69922 14 8.59961 20.9004c0 7.90039 -3.09961 15.4004 -8.69922 20.9004l-183.4 182.67c-4.90039 4.91016 -11.4004 7.91992 -18.3008 8.50977
c-7 0.589844 -13.9004 -1.28027 -19.6006 -5.29004c-83.1299 -58.7305 -128.96 -136.29 -128.96 -217.69c0 -83.0996 45.8301 -160.8 128.96 -219.5c6.5 -4.5 14.4004 -6.2998 22.1006 -5z" />
    <glyph glyph-name="screenpal" unicode="screenpal" horiz-adv-x="512" 
d="M233.5 425.51c0 -12.4199 10.0996 -22.4902 22.5 -22.4902s22.5 10.0703 22.5 22.4902s-10.0996 22.4902 -22.5 22.4902s-22.5 -10.0703 -22.5 -22.4902zM313.4 189c0 31.7002 -25.7002 57.4004 -57.4004 57.4004s-57.4004 -25.7002 -57.4004 -57.4004
s25.7002 -57.4004 57.4004 -57.4004s57.4004 25.7002 57.4004 57.4004zM337.2 98c-22.4004 -19.9004 -52.0996 -30.9004 -81.0996 -30.9004c-29.9004 0 -58.8008 11 -81.1006 30.9004s-36.5 47.3008 -39.9004 77.001h-119.71c3.5498 -61.4004 30.4395 -119.2 75.1699 -161.4
c44.7402 -42.2002 103.94 -65.7998 165.44 -65.7998s120.7 23.5996 165.4 65.7998c44.7998 42.2002 71.7002 100 75.2002 161.4h-119.5c-3.40039 -29.7002 -17.6006 -57.1006 -39.9004 -77.001zM73.1416 307.7c-0.400391 12.4004 -10.79 22.2002 -23.2002 21.7998
c-12.4199 -0.400391 -22.1602 -10.8008 -21.7598 -23.3008c0.410156 -12.4004 10.79 -22.1006 23.21 -21.7002s22.1504 10.8008 21.75 23.2012zM438.901 307c0 -12.5 10 -22.5 22.5 -22.5c12.4004 0 22.4004 10 22.4004 22.5c0 12.4004 -10 22.5 -22.4004 22.5
c-12.5 0 -22.5 -10.0996 -22.5 -22.5zM317.901 352.73v0c17.2998 14.7197 28.7998 35.0898 32.3994 57.4902c-15.0996 6.41016 -30.7998 11.2598 -46.8994 14.4697c0 -12.5703 -5 -24.6201 -13.9004 -33.5098c-8.90039 -8.87988 -20.9004 -13.8799 -33.5 -13.8799
s-24.5996 5 -33.5 13.8799c-8.90039 8.88965 -13.9004 20.9395 -13.9004 33.5098c-16.0996 -3.20996 -31.7998 -8.05957 -46.8994 -14.4697c3.59961 -22.4004 15.0996 -42.7705 32.3994 -57.4902c17.2998 -13.8301 39.2002 -22.8301 61.9004 -22.8301
s44.6006 9 61.9004 22.8301zM82.7812 217l-0.00292969 0.00292969c21.3203 7.59961 39.3203 22.5 50.7207 42.0996c11.2998 19.5996 15.2998 42.6992 11.2002 64.999s-16 42.4795 -33.5996 56.8291c-13.0898 -9.87012 -25.1396 -21.04 -35.96 -33.3301
c5.38965 -3.09961 10.1094 -7.2998 13.8994 -12.2002c3.79004 -5 6.57031 -10.5996 8.18066 -16.5996s2.01074 -12.2998 1.20117 -18.5c-0.80957 -6.09961 -2.83984 -12.0996 -5.9502 -17.5s-7.26074 -10.1006 -12.2012 -13.9004s-10.5801 -6.5 -16.5898 -8.2002
c-6.00977 -1.59961 -12.29 -2 -18.46 -1.2002c-6.16992 0.900391 -12.1201 2.90039 -17.5098 6c-5.25 -15.5996 -8.88965 -31.5996 -10.8496 -47.8994c21.2002 -8 44.5605 -8.2002 65.9209 -0.600586zM429.198 216.903l-0.00195312 -0.000976562
c21.4004 -7.59961 43.9004 -7.39941 66 0.700195c-2 16.2002 -5.59961 32.2998 -10.8994 47.7998c-10.7998 -6 -23.7002 -7.59961 -35.7002 -4.2998s-22.2002 11.2002 -28.4004 22c-7.09961 10.7998 -8 23.5996 -4.7998 35.5996
c3.09961 12.0996 10.7998 22.3994 21.5 28.7998c-10.7998 12.29 -22.8994 23.46 -35.999 33.3096c-17.5 -14.3496 -29.4004 -34.5098 -33.5 -56.71c-4.09961 -22.2998 -0.199219 -45.3994 11.1006 -64.999c11.4004 -19.5996 29.4004 -34.5996 50.7002 -42.1992z" />
    <glyph glyph-name="space-awesome" unicode="space&#x2d;awesome" horiz-adv-x="512" 
d="M96 192v-32h-32v-32h-32v-32h-32v-160h128v256h-32zM512 96h-32v32h-32v32h-32v32h-32v-256h128v160zM320 384v32h-32v32h-64v-32h-32v-32h-32v-384h32v32h128v-32h32v384h-32zM288 320v-64h-64v64h64z" />
    <glyph glyph-name="square-font-awesome" unicode="square&#x2d;font&#x2d;awesome" 
d="M384.5 415.5c35.2998 0 64 -28.7002 64 -64v-320c0 -35.2998 -28.7002 -64 -64 -64h-320c-35.2998 0 -64 28.7002 -64 64v320c0 35.2998 28.7002 64 64 64h320zM336.5 135.5v160c-31.5996 -11.2002 -41.1992 -16 -59.7988 -16c-31.4004 0 -43.4004 16 -74.6006 16
c-25.4004 0 -37.4004 -10.4004 -57.6006 -14.4004v6.40039c0 8.7998 -7.2002 16 -16 16s-16 -7.2002 -16 -16v-192c0 -8.7998 7.2002 -16 16 -16s16 7.2002 16 16v153.6c20.2002 4 32.2002 14.4004 57.6006 14.4004c31.4004 0 43.2002 -16 74.6006 -16
c10.2002 0 17.7998 1.40039 27.7998 4.60059v-96c-10 -3.2002 -17.5996 -4.60059 -27.7998 -4.60059c-31.4004 0 -43.4004 16 -74.6006 16c-10.2002 0 -18.2002 -1.7998 -25.6006 -4v-32c7.40039 2.40039 15.4004 4 25.6006 4c31.4004 0 43.2002 -16 74.6006 -16
c18.5996 0 28.1992 4.7998 59.7988 16z" />
    <glyph glyph-name="square-gitlab" unicode="gitlab&#x2d;square" 
d="M48 416c-26.5 0 -48 -21.5 -48 -48v-352c0 -26.5 21.5 -48 48 -48h352c26.5 0 48 21.5 48 48v352c0 26.5 -21.5 48 -48 48h-352zM382.1 223.1l0.402344 -1.2002c5.59961 -16.7998 7.19922 -35.2002 2.29883 -52.5c-5 -17.2002 -15.4004 -32.4004 -29.8008 -43.3008
l-0.200195 -0.0996094l-68.4004 -51.2002l-54.0996 -40.9004c-2.40039 -1 -5.40039 -2.7998 -8.40039 -2.7998s-6.7998 1.7998 -8.2998 2.7998l-54.2002 40.9004l-67.8799 50.9004l-0.379883 0.299805l-0.169922 0.0996094c-14.3496 10.7998 -24.79 26 -29.75 43.2998
s-4.16992 35.7002 2.25 52.5l0.469727 1.2002l44.6602 116.4c0.900391 2.2998 2.5 4.2998 4.5 5.59961c1.59961 1 3.39941 1.59961 5.19922 1.7998c1.7998 1 2.7998 -0.0996094 5.39941 -0.799805c1.7002 -0.599609 2.40039 -1.69922 4.5 -2.99902
c1.2002 -1.40039 2.2002 -3 2.7002 -4.7998l29.2002 -92.2002h122.9l30.2002 92.2002c0.5 1.7998 1.40039 3.39941 2.60059 4.7998s2.7998 2.40039 4.5 3.10059c1.7002 0.599609 3.60059 0.899414 5.40039 0.699219s3.59961 -0.799805 5.19922 -1.7998
c2 -1.2998 3.7002 -3.2998 4.60059 -5.59961z" />
    <glyph glyph-name="square-twitter" unicode="square&#x2d;twitter" 
d="M400 416c26.5 0 48 -21.5 48 -48v-352c0 -26.5 -21.5 -48 -48 -48h-352c-26.5 0 -48 21.5 -48 48v352c0 26.5 21.5 48 48 48h352zM351.1 257.2c12.7998 9.2998 24.001 20.8994 32.9014 33.999c-11.7998 -5.09961 -24.5996 -8.7998 -37.7998 -10.2002
c13.5996 8.09961 23.8994 20.8994 28.7998 36.0996c-12.5996 -7.5 -26.7998 -13 -41.5996 -15.7998c-12 12.7998 -29 20.7002 -47.9004 20.7002c-40 0 -73.2998 -36.0996 -64 -80.5996c-54.4004 2.7998 -102.9 28.7998 -135.2 68.5996
c-5.7002 -9.7002 -8.90039 -20.9004 -8.90039 -33.1006c-0.0361328 -21.9443 10.9287 -42.4463 29.2002 -54.5996c-10.7002 0.400391 -20.9004 3.40039 -29.6006 8.30078v-0.799805c0 -31.9004 22.5 -58.3008 52.5 -64.4004
c-10.4004 -2.7002 -19.5 -2.7002 -29.5996 -1.2002c8.2998 -26 32.5 -44.9004 61.2998 -45.5c-22.5 -17.5996 -50.7002 -28 -81.4004 -28c-5.40039 0 -10.5 0.200195 -15.7998 0.799805c29 -18.5996 63.5 -29.3994 100.7 -29.3994c120.6 0 186.6 99.9004 186.6 186.601
c0 2.7998 0 5.7002 -0.200195 8.5z" />
    <glyph glyph-name="square-facebook" unicode="facebook&#x2d;square" 
d="M400 416c26.5098 0 48 -21.4902 48 -48v-352c0 -26.5098 -21.4902 -48 -48 -48h-137.25v152.31h57.7803l11 71.6904h-68.7803v46.5498c0 19.6104 9.61035 38.7305 40.4199 38.7305h31.2695v61s-28.3799 4.83984 -55.5195 4.83984
c-56.6699 0 -93.6699 -34.3301 -93.6699 -96.4805v-54.6396h-63v-71.6904h63v-152.31h-137.25c-26.5098 0 -48 21.4902 -48 48v352c-0 26.5098 21.4902 48 48 48h352z" />
    <glyph glyph-name="linkedin" unicode="linkedin" 
d="M416 416c17.5996 0 32 -14.5 32 -32.2998v-383.4c0 -17.7998 -14.4004 -32.2998 -32 -32.2998h-384.1c-17.5996 0 -31.8994 14.5 -31.8994 32.2998v383.4c0 17.7998 14.2998 32.2998 31.8994 32.2998h384.1zM135.4 32h0.0996094v213.8h-66.5v-213.8h66.4004zM102.2 275
c21.2998 0 38.5 17.2002 38.5 38.5c0 21.2002 -17.2998 38.5 -38.5 38.5c-21.2998 0 -38.5 -17.2998 -38.5 -38.5s17.2002 -38.5 38.5 -38.5zM384.3 32l0.000976562 117.2c0 57.5996 -12.5 101.899 -79.7002 101.899c-32.2998 0 -54 -17.7002 -62.9004 -34.5h-0.900391
v29.2002h-63.7002v-213.8h66.4004v105.8c0 27.9004 5.2998 54.9004 39.8994 54.9004c34 0 34.5 -31.9004 34.5 -56.7002v-104h66.4004z" />
    <glyph glyph-name="square-github" unicode="github&#x2d;square" 
d="M400 416c26.5 0 48 -21.5 48 -48v-352c0 -26.5 -21.5 -48 -48 -48h-352c-26.5 0 -48 21.5 -48 48v352c0 26.5 21.5 48 48 48h352zM277.3 32.2998c66 22 110.802 84.8975 110.702 158.298c0 91.7998 -74.4004 161.5 -166.2 161.5s-162 -69.7002 -162 -161.5
c0 -73.4004 46.2002 -136.2 112.2 -158.3c8.5 -1.5 11.5 3.7002 11.5 8c0 4.09961 -0.200195 26.6992 -0.200195 40.5996c0 0 -46.4004 -10 -56.1006 19.7002c0 0 -7.59961 19.2002 -18.3994 24.2002c0 0 -15.0996 10.4004 1.10059 10.2002
c0 0 16.4004 -1.2998 25.5 -17.0996c14.5 -25.5996 38.7998 -18.1992 48.2998 -13.8994c1.5 10.5996 5.7998 18 10.5996 22.2998c-37 4.09961 -74.2998 9.5 -74.2998 73.0996c0 18.2002 5 27.2998 15.5996 39c-1.7998 4.40039 -7.39941 22.1006 1.7002 45.001
c13.9004 4.2998 45.7002 -17.9004 45.7002 -17.9004c13.2002 3.7002 27.5 5.60059 41.5996 5.60059s28.3994 -1.90039 41.5996 -5.60059c0 0 31.7998 22.2002 45.7002 17.9004c9.09961 -23 3.39941 -40.7002 1.69922 -45c10.5996 -11.7002 17.0996 -20.7998 17.0996 -39
c0 -63.9004 -39 -69 -76 -73.0996c6.09961 -5.2002 11.2998 -15.1006 11.2998 -30.7002c0 -22.2998 -0.200195 -49.8994 -0.200195 -55.2998c0 -4.2998 3.09961 -9.5 11.5 -8zM179.202 93.3965c2 0.400391 3.2998 1.7002 3 3c-0.200195 1.2998 -2 2.09961 -3.90039 1.89941
c-1.90039 -0.400391 -3.2002 -1.7002 -3 -3.2002c0.200195 -1.2998 2 -2.09961 3.90039 -1.69922zM169.702 94.2969c0 1.5 -1.7998 2.59961 -3.7002 2.39941c-2 0 -3.5 -1.09961 -3.5 -2.39941c0 -1.5 1.5 -2.59961 3.7002 -2.39941c2 0 3.5 1.09961 3.5 2.39941z
M156.002 95.3965c0.5 1.2998 -0.799805 2.7998 -2.7998 3.39941c-1.7002 0.400391 -3.7002 -0.199219 -4.10059 -1.49902s0.899414 -2.7998 2.7998 -3.2002c1.7002 -0.599609 3.7002 0 4.10059 1.2998zM143.702 100.797
c0.900391 0.799805 0.399414 2.80078 -0.900391 4.10059c-1.5 1.5 -3.40039 1.7002 -4.30078 0.600586c-1 -0.900391 -0.599609 -2.80078 0.900391 -4.10059c1.5 -1.5 3.40039 -1.7002 4.30078 -0.600586zM134.602 109.897c1.09961 0.799805 1.09961 2.60059 0 4.10059
c-0.900391 1.5 -2.60059 2.2002 -3.7002 1.2998c-1.09961 -0.700195 -1.09961 -2.40039 0 -3.90039s2.7998 -2.09961 3.7002 -1.5zM128.102 119.599c0.900391 0.700195 0.700195 2.2002 -0.399414 3.5c-1.09961 1 -2.59961 1.5 -3.5 0.599609
c-0.900391 -0.700195 -0.700195 -2.2002 0.399414 -3.5c1.09961 -1 2.59961 -1.5 3.5 -0.599609zM121.401 126.999c0.400391 0.799805 -0.199219 1.89844 -1.49902 2.59863c-1.2998 0.5 -2.39941 0.200195 -2.7998 -0.399414
c-0.400391 -0.900391 0.199219 -2 1.49902 -2.59961c1.09961 -0.700195 2.39941 -0.5 2.7998 0.400391z" />
    <glyph glyph-name="twitter" unicode="twitter" horiz-adv-x="512" 
d="M459.37 296.284c20.4668 14.9453 38.3389 33.4629 52.6309 54.2539c-18.8418 -8.12109 -39.3086 -13.9697 -60.4258 -16.2432c21.7656 12.9941 38.334 33.4609 46.1318 57.8271c-20.1426 -12.0195 -42.8838 -20.792 -66.5986 -25.3398
c-19.168 20.4668 -46.457 33.1367 -76.6699 33.1367c-58.1523 0 -104.935 -47.1064 -104.935 -104.935c0 -8.12207 0.974609 -16.2432 2.59863 -24.04c-87.0654 4.54883 -164.71 46.1318 -216.365 109.807c-9.09668 -15.5938 -14.2939 -33.4619 -14.2939 -52.9541
c0 -36.3857 18.5166 -68.5479 46.7803 -87.3906c-17.2168 0.649414 -33.4619 5.52246 -47.4307 13.3193v-1.29883c0 -51.0049 36.0615 -93.2383 84.1426 -102.985c-8.77148 -2.27344 -18.1934 -3.57324 -27.6143 -3.57324c-6.82324 0 -13.3203 0.650391 -19.8184 1.62402
c13.3203 -41.584 51.9805 -71.7969 98.1123 -72.7715c-36.0605 -28.2637 -81.2188 -44.832 -130.273 -44.832c-8.77246 0 -16.8936 0.325195 -25.3408 1.29883c46.457 -29.8867 101.685 -47.1055 161.137 -47.1055c192.975 0 298.558 159.838 298.558 298.558
c0 4.54785 0 9.09668 -0.325195 13.6445zM459.373 296.285z" />
    <glyph glyph-name="facebook" unicode="facebook" horiz-adv-x="512" 
d="M504 192c0 -123.78 -90.6914 -226.38 -209.251 -245v173.31h57.7803l11 71.6904h-68.7803v46.5498c0 19.6104 9.61035 38.7305 40.4102 38.7305h31.2803v61s-28.3799 4.83984 -55.5195 4.83984c-56.6699 0 -93.6699 -34.3301 -93.6699 -96.4805v-54.6396h-63v-71.6904h63
v-173.31c-118.56 18.6201 -209.25 121.22 -209.25 245c0 137 111 248 248 248s248 -111 248 -248z" />
    <glyph glyph-name="github" unicode="github" horiz-adv-x="496" 
d="M165.9 50.5996c0 2.2998 -2.59961 3.89941 -5.59961 3.59961c-2.90039 0 -5.2002 -1.59961 -5.2002 -3.59961c0 -2.2998 2.2998 -3.89941 5.59961 -3.59961c2.90039 0 5.2002 1.59961 5.2002 3.59961zM134.801 55.0996c0.700195 2 3.59863 3.00098 6.19824 2.30078
c3 -0.900391 4.90039 -3.2002 4.30078 -5.2002s-3.59961 -3 -6.19922 -2c-3 0.599609 -5 2.89941 -4.2998 4.89941zM178.999 56.8008c2.90039 0.299805 5.59961 -0.999023 5.89941 -2.89941c0.299805 -2 -1.7002 -3.90039 -4.60059 -4.60059
c-3 -0.700195 -5.59961 0.599609 -5.89941 2.59961c-0.299805 2.2998 1.7002 4.2002 4.60059 4.90039zM244.798 440.002c138.7 0 251.198 -105.304 251.198 -244.004c0 -110.9 -67.7998 -205.801 -167.8 -239.001c-12.7002 -2.2998 -17.2998 5.60059 -17.2998 12.1006
c0 8.2002 0.299805 49.9004 0.299805 83.6006c0 23.5 -7.7998 38.5 -17 46.4004c55.9004 6.2998 114.801 14 114.801 110.5c0 27.4004 -9.7998 41.2002 -25.7998 58.9004c2.59961 6.5 11.0996 33.2002 -2.60059 67.9004c-20.9004 6.59961 -69 -27 -69 -27
c-20 5.59961 -41.5 8.5 -62.7998 8.5s-42.7998 -2.90039 -62.7998 -8.5c0 0 -48.0996 33.5 -69 27c-13.7002 -34.5996 -5.2002 -61.3994 -2.60059 -67.8994c-16 -17.5996 -23.5996 -31.3994 -23.5996 -58.8994c0 -96.2002 56.4004 -104.3 112.301 -110.5
c-7.2002 -6.59961 -13.7002 -17.6992 -16 -33.6992c-14.2998 -6.59961 -51 -17.6992 -72.9004 20.9004c-13.7002 23.7998 -38.6006 25.7998 -38.6006 25.7998c-24.5 0.299805 -1.59961 -15.4004 -1.59961 -15.4004c16.4004 -7.5 27.8008 -36.5996 27.8008 -36.5996
c14.7002 -44.7998 84.7002 -29.7998 84.7002 -29.7998c0 -21 0.299805 -55.2002 0.299805 -61.4004c0 -6.5 -4.5 -14.4004 -17.2998 -12.1006c-99.7002 33.4004 -169.5 128.301 -169.5 239.201c0 138.7 106.1 244 244.8 244zM97.1963 95.0977
c1.2998 1.2998 3.59961 0.599609 5.19922 -1c1.7002 -1.90039 2 -4.2002 0.700195 -5.2002c-1.2998 -1.2998 -3.59961 -0.599609 -5.19922 1c-1.7002 1.90039 -2 4.2002 -0.700195 5.2002zM86.3965 103.197c0.700195 1 2.2998 1.2998 4.2998 0.700195
c2 -1 3 -2.59961 2.2998 -3.89941c-0.700195 -1.40039 -2.7002 -1.7002 -4.2998 -0.700195c-2 1 -3 2.59961 -2.2998 3.89941zM118.797 67.5977c1.2998 1.59961 4.2998 1.2998 6.5 -1c2 -1.90039 2.59961 -4.90039 1.2998 -6.2002c-1.2998 -1.59961 -4.2002 -1.2998 -6.5 1
c-2.2998 1.90039 -2.89941 4.90039 -1.2998 6.2002zM107.396 82.2979c1.59961 1.2998 4.19922 0.299805 5.59961 -2c1.59961 -2.2998 1.59961 -4.89941 0 -6.19922c-1.2998 -1 -4 0 -5.59961 2.2998s-1.59961 4.89941 0 5.89941zM107.396 82.2979z" />
    <glyph glyph-name="pinterest" unicode="pinterest" horiz-adv-x="496" 
d="M496 192c0 137 -111.001 248 -248.001 248s-248 -111 -248 -248c0 -105.1 65.4004 -194.899 157.601 -230.999c-2.09961 19.5996 -4.09961 49.7998 0.900391 71.2002c4.5 19.4004 29 123.2 29 123.2s-7.40039 14.7998 -7.40039 36.7998
c0 34.5 20 60.2002 44.9004 60.2002c21.2002 0 31.4004 -15.9004 31.4004 -34.9004c0 -21.2998 -13.5 -53.0996 -20.5 -82.5996c-5.90039 -24.7002 12.3994 -44.7998 36.6992 -44.7998c44.0996 0 78 46.5 78 113.6c0 59.4004 -42.7002 100.9 -103.601 100.9
c-70.5996 0 -112 -52.9004 -112 -107.601c0 -21.2998 8.2002 -44.0996 18.2998 -56.5996c2 -2.40039 2.2998 -4.60059 1.7002 -7.10059c-1.90039 -7.7998 -6.10059 -24.7002 -6.90039 -28.1006c-1.09961 -4.5 -3.59961 -5.5 -8.2998 -3.2998
c-30.9004 14.4004 -50.3008 59.7002 -50.3008 96.1006c0 78.2998 56.9004 150.1 163.9 150.1c86 0 152.9 -61.2998 152.9 -143.2c0 -85.5 -53.9004 -154.3 -128.7 -154.3c-25.0996 0 -48.6992 13.0996 -56.7988 28.5c0 0 -12.4004 -47.4004 -15.4004 -59
c-5.59961 -21.5 -20.6992 -48.5 -30.7988 -65c23.2002 -7.2002 47.7998 -11.1006 73.3994 -11.1006c137 0 248 111 248 248z" />
    <glyph glyph-name="square-pinterest" unicode="pinterest&#x2d;square" 
d="M448 368c0 26.5 -21.5 48.001 -48 48.001h-352c-26.5 0 -48 -21.5 -48 -48v-352c0 -26.5 21.5 -48 48 -48h88.5996l-2.2002 0.799805c-6.5 58.0996 -1.7998 59.7998 29.6006 192.6c0 0 -7.2998 14.7998 -7.2998 36.5c0 70.7002 75.5 78 75.5 25
c0 -21.0996 -13.4004 -52.5996 -20.3008 -81.7998c-5.7002 -24.5 12.2998 -44.4004 36.3994 -44.4004c43.7002 0 77.2002 46 77.2002 112.4c0 58.7998 -42.2998 99.8994 -102.6 99.8994c-69.9004 0 -110.9 -52.4004 -110.9 -106.601
c0 -21.0996 8.2002 -43.6992 18.2998 -55.999c2 -2.40039 2.2998 -4.5 1.7002 -7c-1.7998 -7.7002 -6 -24.4004 -6.7998 -27.8008c-1.09961 -4.5 -3.5 -5.5 -8.2002 -3.2998c-30.5996 14.2998 -49.7998 59.0996 -49.7998 95.0996c0 77.5 56.2002 148.6 162.2 148.6
c85.2002 0 151.4 -60.7002 151.4 -141.8c0 -84.5996 -53.2998 -152.699 -127.399 -152.699c-24.9004 0 -48.3008 12.9004 -56.3008 28.2002c0 0 -12.2998 -46.9004 -15.2998 -58.4004c-5 -19.2998 -17.5996 -42.8994 -27.3994 -59.2998h245.6c26.5 0 48 21.5 48 48v352z" />
    <glyph glyph-name="square-google-plus" unicode="google&#x2d;plus&#x2d;square" 
d="M400 416c26.5 0 48 -21.5 48 -48v-352c0 -26.5 -21.5 -48 -48 -48h-352c-26.5 0 -48 21.5 -48 48v352c0 26.5 21.5 48 48 48h352zM164 92c57.7002 0 95.999 40.5 95.999 97.5996c0 6.5 -0.599609 11.5996 -1.59961 16.5996h-94.4004v-34.4004h56.9004
c-2.40039 -14.5996 -17.2002 -43.0996 -56.7998 -43.0996c-34.0996 0 -61.8994 28.2998 -61.8994 63.2002c0 35 27.7998 63.2002 61.8994 63.2002c19.5 0 32.4004 -8.2998 39.8008 -15.3994l27.0996 26.0996c-17.5 16.4004 -40 26.2002 -67 26.2002
c-55.2998 0 -100 -44.7002 -100 -100s44.7002 -100 100 -100zM383.999 173.8v29.2002h-29v29h-29.2002v-29h-29v-29.2002h29v-29h29.2002v29h29z" />
    <glyph glyph-name="google-plus-g" unicode="google&#x2d;plus&#x2d;g" horiz-adv-x="640" 
d="M386.061 219.504l-181.261 0.000976562v-66.0088h108.965c-4.45215 -28.0283 -33.0039 -82.7734 -108.965 -82.7734c-65.4844 0 -118.92 54.2207 -118.92 121.276s53.4355 121.276 118.92 121.276c37.457 0 62.3398 -15.9775 76.4844 -29.5986l52.126 50.0303
c-33.5283 31.4326 -76.7471 50.292 -128.611 50.292c-106.084 0 -192 -85.915 -192 -192s85.916 -192 192 -192c110.799 0 184.404 77.7949 184.404 187.548c0 12.5723 -1.30859 22.2646 -3.14258 31.957zM571.467 213.067h55.7334v-56.001h-55.7334v-55.7334h-56.001
v55.7334h-55.7334v56.001h55.7334v55.7334h56.001v-55.7334zM571.467 213.067z" />
    <glyph glyph-name="linkedin-in" unicode="linkedin&#x2d;in" 
d="M100.28 0v299.1h-92.8799v-299.1h92.8799zM53.79 339.9c29.6904 0 53.79 24.5986 53.79 54.2988c0 19.2178 -10.252 36.9756 -26.8945 46.584c-35.8604 20.7041 -80.6855 -5.17578 -80.6855 -46.583c-0 -29.7002 24.0898 -54.2998 53.79 -54.2998zM447.9 -0.000976562
l0.100586 -0.000976562v164.3c0 80.4004 -17.2803 142.301 -111.28 142.301c-45.1904 0 -75.4805 -24.7998 -87.8809 -48.2998h-1.2998v40.7998h-89.0801v-299.1h92.7803v148.1c0 39 7.40039 76.7002 55.6904 76.7002c47.5898 0 48.29 -44.5 48.29 -79.2002v-145.6h92.6797z
M447.901 -0.00195312z" />
    <glyph glyph-name="github-alt" unicode="github&#x2d;alt" horiz-adv-x="480" 
d="M186.1 119.3c0 20.9004 -10.9004 55.1006 -36.7002 55.1006s-36.7002 -34.2002 -36.7002 -55.1006s10.9004 -55.1006 36.7002 -55.1006s36.7002 34.2002 36.7002 55.1006zM480 169.8c0 41.9004 -11.499 81.7988 -38.999 114.199
c5.09961 15.5 7.69922 31.7998 7.69922 48.2002c0 21.5 -4.7998 32.2998 -14.5996 51.7998c-44.7998 0 -73.7998 -8.5 -107.8 -35.2002c-26.2002 6.2998 -53.4004 9.2002 -80.4004 9.2002c-29.9004 0 -59.7002 -3.09961 -88.7002 -10c-34.5 27 -63.5 36 -108.8 36
c-9.7002 -19.5 -14.6006 -30.2998 -14.6006 -51.7998c0 -16.4004 2.5 -33 7.7002 -48.7998c-27.5996 -32.0996 -41.5 -71.6992 -41.5 -113.6c-0 -31.9004 5.59961 -66 20.1992 -95c39.4004 -77.5 149.801 -74.7998 225.601 -74.7998c74.5996 0 178.8 -1.7998 216.7 74.7998
c14.2998 29.2998 17.5 63.0996 17.5 95zM415.701 119.298c0 -87.9004 -80.3008 -101.3 -150.601 -101.3h-48.2002c-70 0 -150.4 13.5 -150.4 101.3c0 43.9004 26.7002 82.6006 73.5 82.6006c19 0 37.2998 -3.40039 56 -6c15 -2.2998 29.9004 -3.2002 45.1006 -3.2002
c15.2998 0 30.2002 0.900391 45.1006 3.2002c19 2.59961 37.0996 6 56 6c46.7998 0 73.5 -38.7002 73.5 -82.6006zM333.101 174.398c25.7998 0 36.7002 -34.2002 36.7002 -55.1006s-10.9004 -55.1006 -36.7002 -55.1006s-36.7002 34.2002 -36.7002 55.1006
s10.9004 55.1006 36.7002 55.1006z" />
    <glyph glyph-name="maxcdn" unicode="maxcdn" horiz-adv-x="512" 
d="M461.1 5.2998l47.7988 222.602c8.2002 38.5 -0.299805 77.2998 -23.5996 105.899c-23 28.5996 -58.9004 44.8994 -98.3008 44.8994h-372.1l44.5996 -95.4004l-59.5 -278h97.4004l59.5 278h83.4004l-59.5 -278h97.4004l59.5 278h49.2998
c10.5 0 19.2002 -3.5 24.2002 -9.59961c5.2998 -6.2002 6.7002 -15.5 4.40039 -25.7002l-51.9004 -242.7h97.4004z" />
    <glyph glyph-name="html5" unicode="html&#x35;" horiz-adv-x="384" 
d="M0 416h384l-34.9004 -395.8l-157.6 -52.2002l-156.6 52.2002zM308.2 288.1l4.39941 47.6992h-241.1l12.7998 -145.6h166.9l-6 -62.2002l-53.7002 -14.5l-53.5 14.5l-3.5 38.0996h-47.7002l6 -75.7998l98.7002 -27.2998h1.09961v0.299805l97.9004 27l13.5996 148.4h-175.6
l-4.09961 49.4004h183.8z" />
    <glyph glyph-name="css3" unicode="css&#x33;" horiz-adv-x="512" 
d="M480 416h-407.401l-16.2998 -82h333.4l-10.5 -52.7002h-333.7l-16 -82h333.4l-18.7998 -97.0996l-134.1 -44.4004l-116.4 44.4004l8 40.5996h-82l-19.5996 -94.7998l192.7 -80l223.3 80zM479.999 416z" />
    <glyph glyph-name="btc" unicode="btc" horiz-adv-x="384" 
d="M310.204 205.362c46.0059 -11.0283 74.999 -38.4463 69.3281 -99.8926c-7.24805 -76.5732 -61.5957 -97.0557 -142.895 -101.468v-68.0049h-48.5283v66.7451c-12.29 0 -25.21 0 -38.4443 0.31543v-67.0596h-48.5283v68.0049s-8.88867 0.31543 -97.3701 0.31543
l9.7666 57.666c34.7314 -0.614258 50.3301 -3.4209 53.2549 16.0713v217.429c-4.60645 24.5674 -24.709 22.1055 -63.0234 21.4277v51.6777c58.748 -0.276367 79.5283 -0.539062 97.3701 0v79.4092h48.5283v-77.833c12.9189 0.31543 25.8389 0.630859 38.4443 0.630859
v77.2031h48.5283v-79.4092c62.3916 -5.35645 109.491 -24.5781 114.85 -81.9287c4.09668 -41.9102 -13.5508 -67.1201 -41.2812 -81.2998zM150.61 313.445v-96.7402c27.416 0 113.126 -6.30273 113.126 48.2119c0 57.0352 -85.7109 48.5283 -113.126 48.5283z
M150.61 61.6689c32.7725 0 133.127 -6.93262 133.128 53.2529c0 62.3926 -100.355 53.2549 -133.128 53.2549v-106.508zM150.61 61.6689z" />
    <glyph glyph-name="youtube" unicode="youtube" horiz-adv-x="576" 
d="M549.655 323.917c11.4121 -42.8672 11.4121 -132.306 11.4121 -132.306s0 -89.4375 -11.4121 -132.305c-6.28125 -23.6504 -24.7871 -41.5 -48.2842 -47.8213c-42.5908 -11.4863 -213.371 -11.4863 -213.371 -11.4863s-170.78 0 -213.371 11.4863
c-23.4971 6.32129 -42.0029 24.1709 -48.2842 47.8213c-11.4121 42.8672 -11.4121 132.305 -11.4121 132.305s0 89.4385 11.4121 132.306c6.28125 23.6504 24.7871 42.2754 48.2842 48.5977c42.5908 11.4863 213.371 11.4863 213.371 11.4863s170.781 0 213.371 -11.4863
c23.4971 -6.32129 42.0029 -24.9473 48.2842 -48.5977zM232.146 110.408l142.739 81.2012l-142.739 81.2051v-162.406zM232.146 110.408z" />
    <glyph glyph-name="xing" unicode="xing" horiz-adv-x="384" 
d="M162.7 238l-44.7031 77.501c-4.7002 8.09961 -10.7002 12.1992 -18 12.1992h-65.0996c-8.2002 0 -12.7998 -6.2998 -8.5 -14.0996l43.9004 -75.5996c0.200195 -0.200195 0.200195 -0.299805 0 -0.299805l-69 -121.3
c-3.59961 -6.90039 0.800781 -14.4004 8.50098 -14.4004h65.0996c6.90039 0 12.8008 4.2002 17.7012 12.5c44.9004 79.0996 68.3008 120.199 70.1006 123.499zM382.598 401.901c3.7998 7.40039 -0.501953 14.1006 -8.50195 14.1006h-65.7002
c-7.09961 0 -12.8994 -4.09961 -17.499 -12.1992c-93.2998 -164.4 -141.5 -249.4 -144.8 -255.2l92.4004 -168.5c4.40039 -8.2002 10.4004 -12.2002 18 -12.2002h65.2002c8.7002 0 12.4004 7 8.5 14.0996l-91.5996 166.6v0.299805zM382.596 401.901z" />
    <glyph glyph-name="square-xing" unicode="square&#x2d;xing" 
d="M400 416c26.5 0 48 -21.5 48 -48v-352c0 -26.5 -21.5 -48 -48 -48h-352c-26.5 0 -48 21.5 -48 48v352c0 26.5 21.5 48 48 48h352zM140.4 127.8c4.90039 0 9.10059 2.89844 12.6006 9.09863c32.0996 56.5 48.7998 85.9004 50.0996 88.2002l-31.9004 55.2998
c-3.40039 5.7998 -7.7002 8.7002 -12.9004 8.7002h-46.5996c-5.7998 0 -9 -4.5 -6 -10.0996l31.4004 -54c0.0996094 -0.0996094 0.0996094 -0.199219 0 -0.199219l-49.2998 -86.7002c-2.7002 -5 0.5 -10.2998 6 -10.2998h46.5996zM360.101 341.897
c2.7998 5.2998 -0.300781 10.0996 -6.00098 10h-46.9004c-5.09961 0 -9.19922 -2.90039 -12.499 -8.7002c-66.5996 -117.4 -101.1 -178.2 -103.399 -182.3l66 -120.3c3.2002 -5.7998 7.40039 -8.7002 12.9004 -8.7002h46.5996c6.09961 0 8.7998 5 6 10.0996l-65.5 119
v0.200195zM360.1 341.897z" />
    <glyph glyph-name="dropbox" unicode="dropbox" horiz-adv-x="528" 
d="M264.4 331.7l-132.101 84.2998l-132.3 -84.2998l132.3 -83.5l-132.3 -84.2998l132.4 -85.0996l132 84.2998l-132 84.2998zM131.6 52.2998l132 -84.2998l132 84.2998l-132 84.2998zM264.399 163.899l131.3 -85l132.3 84.2998l-132.3 84.2002l132.3 84.2998l-132.3 84.2998
l-131.3 -84.2002l132 -83.5996zM264.399 163.899z" />
    <glyph glyph-name="stack-overflow" unicode="stack&#x2d;overflow" horiz-adv-x="384" 
d="M290.7 137l-8.2002 -39l-195.7 41l8.2002 39.2998zM341.7 224l-25.5 -30.7998l-153.5 128.3l25.5 30.7998zM310.5 184.3l-16.7998 -36.2998l-181.2 84.5l16.7002 36.5zM262 416l119.3 -160.3l-32 -24l-119.3 160.3zM282.5 88v-39.7002h-200v39.7002h200zM322.2 8v120h40
v-160h-359.5v160h40v-120h279.5zM322.2 8z" />
    <glyph glyph-name="instagram" unicode="instagram" 
d="M224.1 307c63.5996 0 114.899 -51.2998 114.899 -114.899s-51.2998 -114.899 -114.899 -114.899s-114.899 51.2998 -114.899 114.899s51.2998 114.899 114.899 114.899zM224.1 117.4c41.0996 0 74.7012 33.5 74.7012 74.7002s-33.5 74.7002 -74.7002 74.7002
s-74.7002 -33.5 -74.7002 -74.7002s33.5996 -74.7002 74.6992 -74.7002zM370.502 311.7c0 14.7998 -12.001 26.7988 -26.8008 26.7988s-26.7998 -12 -26.7998 -26.7998s11.9004 -26.7998 26.8008 -26.7998c14.7998 0 26.7998 11.9004 26.7998 26.8008zM446.601 284.499
c2.09961 -37 2.10156 -147.801 0.00195312 -184.801c-1.7998 -35.9004 -10 -67.7002 -36.2002 -93.9004c-26.2002 -26.2998 -58 -34.5 -93.9004 -36.2002c-37 -2.09961 -147.9 -2.09961 -184.9 0c-35.9004 1.7998 -67.6006 10 -93.9004 36.2002s-34.5 58 -36.2002 93.9004
c-2.09961 37 -2.09961 147.9 0 184.9c1.7998 35.9004 9.89941 67.7002 36.1992 93.9004s58.0996 34.4004 93.8994 36.1006c37 2.09961 147.9 2.09961 184.9 0c35.9004 -1.7998 67.7002 -10 93.9004 -36.2002c26.2998 -26.2002 34.5 -58 36.2002 -93.9004zM398.803 59.998
c11.7002 29.4004 9 99.5 9 132.1s2.7002 102.6 -9 132.1c-7.90039 19.7002 -23 34.7998 -42.5996 42.5996c-29.4004 11.5996 -99.5 9 -132.1 9s-102.6 2.7002 -132.1 -9c-19.7002 -7.90039 -34.7998 -23 -42.5996 -42.5996c-11.5996 -29.4004 -9 -99.5 -9 -132.1
s-2.7002 -102.6 9 -132.1c7.90039 -19.7002 23 -34.7998 42.5996 -42.5996c29.4004 -11.5996 99.5 -9 132.1 -9s102.6 -2.7002 132.1 9c19.7002 7.90039 34.7998 23 42.5996 42.5996z" />
    <glyph glyph-name="flickr" unicode="flickr" 
d="M400 416c26.5 0 48 -21.5 48 -48v-352c0 -26.5 -21.5 -48 -48 -48h-352c-26.5 0 -48 21.5 -48 48v352c0 26.5 21.5 48 48 48h352zM144.5 129c35.0996 0 63.5 28.4004 63.5 63.5s-28.4004 63.5 -63.5 63.5s-63.5 -28.4004 -63.5 -63.5s28.4004 -63.5 63.5 -63.5z
M303.5 129c35.0996 0 63.5 28.4004 63.5 63.5s-28.4004 63.5 -63.5 63.5s-63.5 -28.4004 -63.5 -63.5s28.4004 -63.5 63.5 -63.5z" />
    <glyph glyph-name="adn" unicode="adn" horiz-adv-x="496" 
d="M248 280.5l-64.8994 -98.7998h129.8zM496.001 192c0 136.9 -111.1 248 -248 248s-248 -111.1 -248 -248s111.1 -248 248 -248s248 111.1 248 248zM396.201 109.3h-30.2012l-33.5996 51.7002h-168.6l-33.5996 -51.7002h-30.4004l148.2 223.2z" />
    <glyph glyph-name="bitbucket" unicode="bitbucket" horiz-adv-x="512" 
d="M22.2002 416l466.801 -0.200195c0.936523 -0.0136719 1.87109 -0.0800781 2.7998 -0.200195c8.68457 -1.43066 14.582 -9.60742 13.1992 -18.2998l-67.9004 -416.8c-1.28516 -7.80859 -8.08594 -13.5049 -15.999 -13.3994h-325.7
c-10.5791 0.0849609 -19.5654 7.76367 -21.2998 18.2002l-67.9004 412.1c-0.116211 0.928711 -0.182617 1.86328 -0.199219 2.7998c0.109375 8.83691 7.3623 15.9111 16.1992 15.7998zM308.102 118.2l25.2002 147h-157.3l28.0996 -147h104zM308.102 118.2z" />
    <glyph glyph-name="tumblr" unicode="tumblr" horiz-adv-x="320" 
d="M309.8 -32.2998c3.7002 3.90039 2.19824 9.49805 0.398438 14.498l-22 64.2998c-1.59961 4.5 -3.89941 7 -7.39941 7.90039c-3.7002 1 -7.90039 -0.299805 -12.7002 -2.2002c-44.2998 -17.7998 -68 1.60059 -68 35.8008v133.2h83.4004c5.5 0 10 4.5 10 10v81.7002
c0 5.5 -4.5 9.90039 -10 9.90039h-83v115.2c0 5.5 -4.5 10 -10 10h-70.9004c-9.59961 0 -15.2998 -5.2998 -16.0996 -16.2998c-2.7998 -41.0996 -22.2998 -95.2998 -84.2998 -117.1c-6.7998 -2.40039 -11.2998 -8.80078 -11.2998 -16.001v-68c0 -5.5 4.5 -10 10 -10h47.5
v-144c0 -51.7998 26.2002 -140.6 147 -140.6c47.4004 0 83.8008 17.2002 97.4004 31.7002zM309.798 -32.3018z" />
    <glyph glyph-name="square-tumblr" unicode="square&#x2d;tumblr" 
d="M400 416c26.5 0 48 -21.5 48 -48v-352c0 -26.5 -21.5 -48 -48 -48h-352c-26.5 0 -48 21.5 -48 48v352c0 26.5 21.5 48 48 48h352zM317.7 51.7998c2.2998 2.40039 1.29883 5.90137 0.298828 9.10156l-13.7998 40.2002c-1 2.7998 -2.40039 4.39941 -4.60059 4.89941
c-2.40039 0.599609 -5 -0.200195 -8 -1.40039c-27.7002 -11.0996 -42.5 1 -42.5 22.4004v83.2998h52.0996c3.40039 0 6.2002 2.7998 6.2002 6.2002v51.0996c0 3.40039 -2.7998 6.2002 -6.2002 6.2002h-51.9004v72c0 3.40039 -2.7998 6.2002 -6.2002 6.2002h-44.2998
c-5.90039 0 -9.5 -3.2998 -10 -10.2002c-1.7998 -25.7002 -13.8994 -59.5 -52.6992 -73.2002c-4.2998 -1.5 -7.09961 -5.5 -7.09961 -10v-42.5c0 -3.40039 2.7998 -6.2002 6.2002 -6.2002h29.7002v-90c0 -32.4004 16.4004 -87.9004 91.9004 -87.9004
c29.7002 0 52.4004 10.7002 60.9004 19.7998zM317.699 51.8008z" />
    <glyph glyph-name="apple" unicode="apple" horiz-adv-x="384" 
d="M318.7 179.3c0 -1.90039 -3.50293 -61.2002 61.6973 -91.9004c-12.2002 -36.7998 -54 -118.6 -102.6 -119.3c-28.0996 0 -44.5996 17.9004 -76.3994 17.9004c-32.7998 0 -50.5996 -17.2998 -75.7998 -17.8994c-48.2002 -1.5 -94.4004 88.5 -107.2 125.2
c-9.59961 27.9336 -14.3994 55 -14.3994 81.2002c0 88.7002 59.2998 132.3 115.1 133.2c27 0 61.4004 -19.7002 76.4004 -19.7002c14.2002 0 53 23.5 88.5 20.7002c37.5 -2.90039 65.9004 -17.7002 84.7002 -44.6006c-33.5996 -20.4004 -50.1992 -48.1006 -49.999 -84.8008z
M262.098 343.5c-19.5996 -22.9004 -43.4004 -36.2998 -69.5 -34.2998c-2.2002 27.5996 8.09961 52.0996 25.5996 71.8994c15.9004 18.5 43.8008 33.5 67.9004 34.9004c0.799805 -10.5996 3.2998 -40.0996 -24 -72.5z" />
    <glyph glyph-name="windows" unicode="windows" 
d="M0 354.3v-152.101h183.6v177.4zM0 29.6992v149.9h183.6v-175.2zM203.8 1.69922v177.899h244.2v-211.6zM203.8 382.298l244.2 33.7002v-213.8h-244.2v180.1zM203.8 382.298z" />
    <glyph glyph-name="android" unicode="android" horiz-adv-x="576" 
d="M420.55 146.07c13.2549 0 23.999 10.7451 23.999 24c0 4.21289 -1.10938 8.35156 -3.21582 12c-9.2373 16 -32.3311 16 -41.5684 0s2.30957 -36 20.7852 -36zM155.449 146.07c13.2549 0 23.999 10.7451 23.999 24c0 4.21289 -1.10938 8.35156 -3.21582 12
c-9.2373 16 -32.3311 16 -41.5684 0s2.30957 -36 20.7852 -36zM429.148 290.551c82.3096 -44.7695 138.609 -128.099 146.85 -226.549h-576c8.24023 98.4502 64.5303 181.78 146.851 226.55l-47.9404 83v0c-2.25684 3.3623 -2.2627 7.75391 -0.0146484 11.1221
c4.27344 6.40332 13.876 5.7793 17.2852 -1.12305l48.54 -84.0703c78.4238 35.1729 168.137 35.1729 246.561 0l48.54 84.0703v0c1.79297 3.63086 5.59863 5.82227 9.63867 5.5498c7.68066 -0.518555 11.9199 -9.15723 7.63086 -15.5498z" />
    <glyph glyph-name="linux" unicode="linux" 
d="M220.8 324.7c-1.09961 0.599609 -3.10059 0.399414 -3.40039 1.69922c-0.200195 0.400391 0.200195 0.900391 0.600586 1.10059c1.59961 0.900391 3.7998 0.600586 5.5 -0.0996094c1.2998 -0.599609 3.39941 -1.5 3.19922 -2.90039
c-0.0996094 -1.09961 -1.7998 -1.5 -2.89941 -1.5c-1.2002 0 -2 1.2002 -3 1.7002zM198.898 323c-1 -0.0996094 -2.7002 0.400391 -2.7998 1.40039c-0.200195 1.40039 1.89941 2.30078 3.19922 2.90039c1.7002 0.700195 3.90039 1 5.5 0.0996094
c0.400391 -0.200195 0.800781 -0.700195 0.600586 -1.10059c-0.400391 -1.2002 -2.40039 -1 -3.5 -1.59961c-1 -0.5 -1.7998 -1.7002 -3 -1.7002zM419.998 44.2002c11.0996 -12.4004 15.8965 -21.5029 15.4961 -29.7031c-0.5 -8.2002 -6.5 -13.7998 -13.9004 -18.2998
c-14.9004 -9 -37.3008 -15.7998 -50.9004 -32.2002c-14.2002 -16.9004 -31.7002 -26.6006 -48.2998 -27.9004c-16.5 -1.2998 -32 6.2998 -40.2998 23v0.0996094c-1.09961 2.09961 -1.89941 4.39941 -2.49902 6.69922c-21.5 -1.2002 -40.2002 5.2998 -55.1006 4.09961
c-22 -1.2002 -35.7998 -6.5 -48.2998 -6.59961c-4.7998 -10.5996 -14.2998 -17.5996 -25.8994 -20.1992c-16 -3.7002 -36.0996 0 -55.8994 10.4004c-18.5 9.7998 -42 8.89941 -59.2998 12.499c-8.7002 1.7998 -16.2998 5 -20.0996 12.2998
c-3.7002 7.2998 -3 17.2998 2.2002 31.7002c1.7002 5.09961 0.400391 12.6992 -0.799805 20.7988c-0.599609 3.90039 -1.19922 7.90039 -1.19922 11.8008c0 4.2998 0.700195 8.5 2.7998 12.4004c4.5 8.5 11.7998 12.0996 18.5 14.5s12.7998 4 17 8.2998
c5.2002 5.5 10.1006 14.4004 16.6006 20.2002c-2.59961 17.2002 0.200195 35.4004 6.2002 53.3008c12.5996 37.9004 39.1992 74.2002 58.0996 96.7002c16.0996 22.9004 20.7998 41.3008 22.5 64.7012c1.09961 31.7998 -24.5 135.399 77.9004 135.199
c80.9004 -0.0996094 76.3008 -85.3994 75.8008 -131.3c-0.299805 -30.0996 16.2998 -50.5 33.3994 -72c15.2002 -18 35.1006 -44.2998 46.501 -74.3994c9.2998 -24.5996 12.8994 -51.7998 3.69922 -79.0996c1.40039 -0.5 2.80078 -1.2002 4.10059 -2
c1.40039 -0.799805 2.7002 -1.7998 4 -2.89941c6.59961 -5.59961 8.69922 -14.2998 10.499 -22.3994c1.90039 -8.09961 3.60059 -15.6992 7.2002 -19.6992zM223.695 360.697c-3.2002 -7.2002 -3.90039 -14.9004 -2.90039 -21.8008
c3.59961 -0.900391 8.89941 -2.40039 12.999 -4.40039c-2.09961 12.2002 4.5 23.5 11.7998 23c8.90039 -0.299805 13.9004 -15.5 9.10059 -27.2998c-0.799805 -1.90039 -2.7998 -3.40039 -3.89941 -4.60059c6.7002 -2.2998 11 -4.09961 12.5996 -4.89941
c7.90039 9.5 10.8008 26.2002 4.30078 40.4004c-9.7998 21.4004 -34.2002 21.8008 -44 -0.399414zM182.995 372.197c-18.9004 0 -23.999 -37.5 -8.39941 -52.0996c7.7998 5.7002 6.89941 4.7002 5.89941 5.5c-8 6.90039 -6.59961 27.4004 1.80078 28.1006
c6.2998 0.5 10.7998 -10.7002 9.59961 -19.6006c3.09961 2.09961 6.69922 3.59961 10.1992 4.59961c1.7002 19.2998 -9 33.5 -19.0996 33.5zM169.396 311.497c-4.2002 -3.2998 -5.59961 -7.39941 -4.19922 -12.2998c1.5 -4.90039 6.09961 -10.5 14.6992 -15.2998
c7.7998 -4.59961 12 -11.5 20 -15c2.59961 -1.09961 5.69922 -1.89941 9.59961 -2.09961c18.4004 -1.09961 27.1006 11.3008 38.2002 14.9004c11.7002 3.7002 20.1006 11 22.7002 18.0996c3.2002 8.5 -2.09961 14.7002 -10.5 18.2002
c-11.2998 4.90039 -16.2998 5.2002 -22.5996 9.2998c-10.2998 6.59961 -18.7998 8.89941 -25.8994 8.89941c-14.4004 0 -23.2002 -9.7998 -27.9004 -14.2002c-0.5 -0.5 -7.90039 -5.90039 -14.1006 -10.5zM172.697 -22.5029c2.09961 20.5 -31.5029 49.0029 -41.0029 68.9033
l-19.5996 35.5996c-6.7998 9.2002 -13.7998 14.7998 -21.8994 16c-7.7002 1.2002 -12.6006 -1.39941 -17.7002 -6.89941c-4.7998 -5.09961 -8.7998 -12.2998 -14.2998 -18c-7.7998 -6.5 -9.2998 -6.2002 -19.5996 -9.90039
c-6.2998 -2.2002 -11.2998 -4.60059 -14.7998 -11.3008c-2.7002 -5 -2.10059 -12.2002 -0.900391 -20c1.2002 -7.90039 3 -16.3008 0.599609 -23.9004v-0.200195c-5 -13.7002 -5 -21.7002 -2.59961 -26.4004c7.90039 -15.4004 46.6006 -6.10059 76.501 -21.9004
c31.4004 -16.4004 72.6006 -17.1006 75.3008 17.999zM171.294 3.40039c37.5996 -25.7002 82.2002 -15.6992 114.3 7.20117c3.2002 11 6.2998 21.2998 6.7998 29c0.799805 15.2002 1.59961 28.7002 4.39941 39.9004c3.09961 12.5996 9.2998 23.0996 21.3994 27.2998
c2.2998 21.0996 18.7002 21.0996 38.2998 12.5c18.9004 -8.5 26 -16 22.7998 -26.0996c1 0 2 0.0996094 4.2002 0c5.2002 16.9004 -14.2998 28 -30.7002 34.7998c2.90039 12 2.40039 24.0996 -0.399414 35.6992c-6 25.2998 -22.5996 47.7998 -35.1992 59
c-2.2998 0.0996094 -2.09961 -1.90039 2.60059 -6.5c11.5996 -10.7002 37.0996 -49.2002 23.2998 -84.9004c-3.90039 1 -7.60059 1.5 -10.9004 1.40039c-5.2998 29.0996 -17.5 53.1992 -23.5996 64.5996c-11.5 21.4004 -29.5 65.3008 -37.2002 95.7012
c-4.5 -6.40039 -12.4004 -11.9004 -22.3008 -15c-4.7002 -1.5 -9.7002 -5.5 -15.9004 -9c-13.9004 -8 -30 -8.7998 -42.4004 1.2002c-4.5 3.59961 -8 7.59961 -12.5996 10.2998c-1.59961 0.900391 -5.09961 3.30078 -6.19922 4.10059
c-2 -37.7998 -27.2998 -85.2998 -39.2998 -112.7c-8.2998 -19.7002 -13.2002 -40.7998 -13.7998 -61.5c-21.7998 29.0996 -5.89941 66.2998 2.60059 82.3994c9.5 17.5996 11 22.5 8.7002 20.7998c-8.59961 -14 -22 -36.2998 -27.2002 -59.2002
c-2.7002 -11.9004 -3.2002 -24 0.299805 -35.2002s11.0996 -21.5 24.5996 -29.9004c0 0 24.7998 -14.2998 38.2998 -32.5c7.40039 -10 9.7002 -18.7002 7.40039 -24.9004c-2.5 -6.7002 -9.59961 -8.90039 -16.6992 -8.90039c4.7998 -6 10.2998 -13 14.3994 -19.5996z
M428.695 14.9014c0.299805 5.09961 -3.10156 13.001 -13.7012 24.6006c-10 11.2998 -7.2002 33.0996 -17.1006 41.5996c-6.90039 6 -13.6006 5.40039 -22.6006 5.10059c-7.7002 -8.7998 -25.7998 -19.5996 -38.3994 -16.2998c-11.5 2.90039 -18 16.3008 -18.7998 29.501
c-0.299805 -0.200195 -0.700195 -0.299805 -1 -0.5c-7.09961 -3.90039 -11.0996 -10.8008 -13.6992 -21.1006c-2.5 -10.2002 -3.40039 -23.5 -4.2002 -38.7002c-0.700195 -11.7998 -6.2002 -26.3994 -9.90039 -40.5996c-3.5 -13.2002 -5.7998 -25.2002 -1.09961 -36.2998
c7.2002 -14.5 19.5 -20.4004 33.7002 -19.3008s30.4004 9.7998 43.6006 25.5c22 26.5996 62.2998 29.6992 63.2002 46.499zM173.294 299.303c-3.5 2.7998 -3.10059 6.60059 -1.7002 6.50098c2.40039 -0.299805 2.80078 -3.5 4.30078 -4.90039
c2 -1.90039 4.59961 -4.40039 7.69922 -6.90039c6.2002 -4.90039 14.5 -9.7002 24.9004 -9.7002s22.5 6 29.9004 10.2002c4.2002 2.40039 9.5 6.60059 13.9004 9.80078c3.40039 2.5 3.2002 5.40039 6 5.10059s0.799805 -3.2002 -3.10059 -6.60059
s-9.90039 -7.80078 -14.8008 -10.4004c-9.2998 -4.90039 -20.2002 -10.8008 -31.7998 -10.8008c-11.5 0 -20.7002 5.40039 -27.2998 10.6006c-3.2998 2.59961 -6 5.19922 -8 7.09961zM173.293 299.304z" />
    <glyph glyph-name="dribbble" unicode="dribbble" horiz-adv-x="512" 
d="M256 440c136.748 0 248 -111.252 248 -248s-111.252 -248 -248 -248s-248 111.252 -248 248s111.252 248 248 248zM419.97 325.634c-4.46582 -6.04102 -39.9629 -51.5479 -118.284 -83.5244c7.43555 -15.2207 12.8643 -27.5723 18.6162 -41.6133
c70.4844 8.86426 140.519 -5.34082 147.503 -6.81738c-0.46582 49.998 -18.332 95.9092 -47.835 131.955zM396.421 350.128c-52.0947 46.2188 -122.885 63.6816 -190.061 47.4883c5.85547 -7.83984 44.3281 -60.2314 79.04 -124.008
c75.3242 28.2334 107.211 71.0928 111.021 76.5195zM165.94 383.378c-59.2627 -27.9531 -103.562 -82.585 -117.298 -148.318c9.47363 -0.125 96.7471 -0.503906 195.834 25.8096c-35.0986 62.3926 -72.9512 114.85 -78.5361 122.509zM44.168 191.675
c0 -54.4072 20.626 -104.083 54.459 -141.637c34.3369 58.7793 103.932 120.731 180.53 142.307c-5.31738 12.0342 -11.1104 24.0811 -17.1748 35.9492c-105.786 -31.6592 -208.438 -30.3359 -217.706 -30.1455c-0.0654297 -2.15137 -0.108398 -4.30762 -0.108398 -6.47363z
M125.977 24.5605c62.7529 -48.9346 144.656 -56.8945 212.769 -27.8818c-3.15039 18.585 -15.4492 83.3545 -45.1895 160.638c-85.4014 -29.1338 -145.452 -87.5225 -167.579 -132.756zM374.356 16.0713c47.5225 32.1338 81.3525 83.0361 90.7949 141.978
c-7.24707 2.28711 -65.5674 19.6807 -131.947 9.05469c27.7061 -76.1357 38.9814 -138.146 41.1523 -151.032z" />
    <glyph glyph-name="skype" unicode="skype" 
d="M424.7 148.2c14.5996 -18.9004 23.2988 -42.5 23.1992 -68.0996c0 -61.7998 -50.2002 -112 -112 -112c-25.5996 0 -49.1992 8.7002 -68.1992 23.2998c-14.0996 -3 -28.8994 -4.7002 -43.7998 -4.7002c-113.4 0 -205.301 91.7998 -205.301 205.3
c0 14.9004 1.7998 29.8008 4.7002 43.8008c-14.5996 18.9004 -23.2998 42.5 -23.2998 68.2002c0 61.7998 50.2002 112 112 112c25.7002 0 49.2998 -8.7002 68.2998 -23.4004c14.0996 3 28.8994 4.7002 43.7998 4.7002c113.4 0 205.301 -91.7998 205.301 -205.3
c0 -14.9004 -1.7998 -29.8008 -4.7002 -43.8008zM230.1 56.7002c54.9004 0 111.999 27.4014 111.999 86.501c0 50.7998 -49.2998 68.2998 -90.7002 77.5996c-48.2998 11.2002 -69.0996 13.2002 -69.0996 33c0 15.5 16.2998 22.5 42 22.5c45.7998 0 46.7002 -33.5 75 -33.5
c18.9004 0 30.3008 14.9004 30.3008 31.8008c0 33.5 -55.7002 55.4004 -110.8 55.4004c-50.5 0 -109.1 -21.9004 -109.1 -81.1006c0 -65.2002 55.2998 -71.7998 117.8 -87.2002c26 -6.40039 42 -9.30078 42 -28.001c0 -14.9004 -16.5996 -26.3008 -42.2998 -26.3008
c-54 0 -56.9004 44.9004 -88.1006 44.9004c-20.5 0 -29.5 -14.5996 -29.5 -30.5996c0 -35.7998 54.9004 -65 120.5 -65zM230.099 56.7012z" />
    <glyph glyph-name="foursquare" unicode="foursquare" horiz-adv-x="368" 
d="M323.1 445c40 0 50.6982 -22.7979 42.1982 -65.1982l-48.5996 -243c-3.7002 -14.5 -9.2002 -39.7002 -44.2998 -39.7002h-83.4004c-3.40039 0 -3.7002 0.299805 -6.7998 -3.10059c0 0 -2.2002 -2.5 -131.101 -151.9
c-10.0996 -11.7002 -26.6992 -9.60059 -32.8994 -7.10059c-6.09961 2.40039 -18.1992 9.80078 -18.1992 30.1006v433.8c0 17.7998 12.4004 46.0996 49.9004 46.0996h273.2zM306.798 371.202c2.09961 9.7998 -5.30273 17.499 -13.5029 17.499h-219
c-9.7998 0 -16.5996 -8.90039 -16.5996 -16.6006v-338.8c0 -0.900391 0.900391 -1.2002 1.80078 -0.299805c80.5996 96.9004 89.5 108.301 89.5 108.301c9.2998 10.7998 13 12.5996 26.5 12.5996h73.5c10.0996 0 16 8.59961 16.9004 13.5
c0.900391 5 9.60059 49.9004 11.4004 58.8008c1.7998 9 -6.5 18.2002 -14.7998 18.2002h-90.4004c-12 0 -20.5996 8.59961 -20.5996 20.5996v13c0 12 8.59961 20.2998 20.5996 20.2998h106.4c7.40039 0 15.7002 6.7002 16.9004 13.2002zM306.796 371.201z" />
    <glyph glyph-name="trello" unicode="trello" 
d="M392.3 416c30.7998 -0.200195 55.7002 -25.2002 55.6006 -56v-336c0 -30.7998 -24.9004 -55.7998 -55.7002 -56h-336.2c-30.9004 0 -56 25.0996 -56 56c0 340 -0.0996094 336 0 336c-0 30.9004 25.0996 56 56.0996 56h336.2zM197 76.7002l0.100586 -0.000976562v254.2
c0 14.9004 -12.0996 26.9004 -26.8994 26.9004h-82.9004c-14.9004 0 -26.9004 -12.0996 -26.9004 -26.8994v-254.2c0.0996094 -14.7998 12.1992 -26.7002 26.999 -26.6006h82.7002c14.7998 0 26.7002 11.9004 26.9004 26.6006zM390.101 188.699l-0.000976562 142.1
c0 14.9004 -12.0996 26.9004 -26.8994 26.9004h-81.0996c-14.7998 0 -26.7998 -12.0996 -26.7998 -26.8994v-142.1c0 -14.9004 12.0996 -26.9004 26.8994 -26.9004h81c14.9004 0 26.9004 12.0996 26.9004 26.8994z" />
    <glyph glyph-name="gratipay" unicode="gratipay" horiz-adv-x="496" 
d="M248 440c136.9 0 248 -111.1 248 -248s-111.1 -248 -248 -248s-248 111.1 -248 248s111.1 248 248 248zM362.6 213.6c8.7998 12 19.1006 50.4004 -13.7998 72c-27.7002 18.0996 -54.2002 4.19922 -68.1006 -11.9004c-15.0996 -16.9004 -45.7998 -17.9004 -61.7002 0
c-13.9004 16.0996 -40.4004 30 -68.5 11.9004c-32.7002 -21.5996 -22.2998 -60.0996 -13.5996 -72l112.7 -152.7zM362.601 213.6z" />
    <glyph glyph-name="vk" unicode="vk" 
d="M31.4902 384.51c31.4902 31.4902 82.1797 31.4902 183.549 31.4902h17.9199c101.369 0 152.06 0 183.55 -31.4902c31.4912 -31.4902 31.4912 -82.1797 31.4912 -183.549v-17.9199c0 -101.369 0 -152.06 -31.4912 -183.55
c-31.4902 -31.4912 -82.1807 -31.4912 -183.55 -31.4912h-17.9199c-101.369 0 -152.059 0 -183.549 31.4912c-31.4902 31.4902 -31.4902 82.1807 -31.4902 183.55v17.9199c0 101.369 -0 152.059 31.4902 183.549zM75.5996 279.733
c2.42676 -116.48 60.667 -186.48 162.773 -186.48h5.78711v66.6396c18.0127 -2.26074 34.957 -9.79199 48.7051 -21.6475c13.749 -11.8564 23.6904 -27.5088 28.5752 -44.9941h53.0127c-5.44336 20.1289 -15.0967 38.874 -28.3213 54.9961
c-13.2246 16.1211 -29.7217 29.252 -48.3984 38.5244c16.7275 10.1562 31.1797 23.6533 42.4531 39.6484c11.2744 15.9961 19.127 34.1445 23.0674 53.3125h-48.1602c-10.4531 -36.96 -41.4404 -70.5596 -70.9336 -73.7324v73.7334h-48.1602v-129.173
c-29.8672 7.4668 -67.5732 43.6797 -69.2529 129.173h-51.1475z" />
    <glyph glyph-name="weibo" unicode="weibo" horiz-adv-x="512" 
d="M407 270.4c-6.7998 -21.0996 25.2002 -31.499 32 -10.2988c15.7998 47.7002 -26.4004 95.7002 -76.5 84.7998c-21.7002 -4.7002 -14.9004 -37.6006 7.09961 -32.8008c24 5.09961 45 -17.7002 37.4004 -41.7002zM214.8 1.30176c204.5 0 305.4 172.9 169.7 215.2
c-7.2002 2.2002 -12 3.7002 -8.2998 13.1006c26.5 68.2002 -34.5 85 -114 51.4004c0 0.299805 -16.2998 -7.10059 -12.2998 5.99902c29.5996 95.2002 -73.9004 94 -173.601 -5.7002c-48.2998 -48.2998 -76.2998 -99.3994 -76.2998 -143.699
c0 -84.9004 108.5 -136.301 214.8 -136.301zM358.5 147.602c5.40039 -55.7002 -58.5996 -107.4 -143.399 -116c-84.9004 -8.2998 -158 30 -163.4 85.7002s58.5996 107.4 143.399 116c84.9004 8.2998 158 -30 163.4 -85.7002zM347.9 412.901
c102.3 21.5996 189.299 -74.499 157.398 -174.299c-8.2998 -25 -44.7998 -12.2002 -37.3994 12c23.0996 71.2002 -39.4004 139.2 -111.7 124c-25.0996 -5.40039 -34.1992 32.6992 -8.29883 38.2988zM269.399 101.902c17.0996 38.2998 -3.99902 77.7002 -45.999 88.5
c-40.2998 10.2998 -85.7002 -9.7002 -103.4 -45.1006c-17.7002 -36.2998 -0.5 -76.5996 40.2998 -89.6992c42.2998 -13.7002 92 7.5 109.1 46.2998zM183.101 131.902c13.4004 -5.7002 17.7002 -20.8994 9.7002 -33.999c-8.2998 -13.2002 -26 -18.9004 -39.0996 -12.9004
c-12.9004 6 -16.9004 21.0996 -8.60059 34c8 12.5996 25.0996 18.2998 38 12.8994zM215.7 145.304c5.09961 -2 6.79883 -7.69922 3.99902 -12.8994c-2.90039 -5.09961 -9.5 -7.39941 -14.5996 -5.39941c-5.09961 2.2998 -6.59961 7.7998 -3.69922 12.8994
c2.90039 4.7998 9.2002 7.09961 14.2998 5.39941z" />
    <glyph glyph-name="renren" unicode="renren" horiz-adv-x="512" 
d="M214 278.9v156.6c-116.9 -19.7002 -206 -121.4 -206 -244.101c0 -61.0996 22 -116.6 58.4004 -159.899c86.5996 42 147.6 137 147.6 247.4zM255 -56c43.2998 0 83.6992 11 118.799 30.2998c-57.0996 36.2002 -103.3 90.7998 -118.8 154.7
c-15.0996 -63.9004 -61.2998 -118.5 -118.5 -154.6c35.2002 -19.4004 75.6006 -30.4004 118.501 -30.4004zM445.599 31.5c36.4004 43.2998 58.4004 98.7998 58.4004 159.899c0 122.7 -89.0996 224.4 -206 244.101v-156.6c0 -110.5 61 -205.4 147.6 -247.4z" />
    <glyph glyph-name="pagelines" unicode="pagelines" horiz-adv-x="384" 
d="M384 135.3c-89 71.7998 -172.001 -19.9971 -172.001 -19.9971c8.7998 24.0996 15.5996 50.0996 20 77.5c0 0 137.7 -27.5996 141.9 106.4c-91.2002 31.5 -136.4 -57.5 -136.4 -57.5c0.5 9.59961 0.5 31.7998 0 33.3994c0 0 63.2002 119.4 -61.3994 162.4
c-68.2002 -91.5 38.0996 -165.2 38.0996 -165.2c0 -0.799805 -1.7002 -36.7002 -3.2998 -53.4004c0 0 -33.5 124.6 -152.6 76.6992c9.7998 -120 149.5 -98.0996 149.5 -98.0996c-4.59961 -28.7998 -11.6992 -55.2998 -21.5996 -79.7002
c-19.2002 34.2998 -69.2998 90.3994 -178.3 45.499c43 -110.1 120.5 -98.0996 161.6 -82.1992c-36.7002 -67.4004 -92.7998 -109.801 -157.2 -110.101c-16.5996 0 -16.0996 -24.4004 0 -24.4004c77.2002 0.299805 144.101 52.8994 184.601 134.699
c0 0 132 -82.7002 187.1 54z" />
    <glyph glyph-name="stack-exchange" unicode="stack&#x2d;exchange" 
d="M17.7002 115.7l0.000976562 -22c0 -37.7002 29.2998 -68 65.2998 -68h176.3v-89.7002l86.7998 89.7002h19c36 0 65.2998 30.2998 65.2998 68v22h-412.7zM17.7012 139.3v85h412.7v-85h-412.7zM17.7012 248.7v85h412.7v-85h-412.7zM365.001 448
c36 0 65.3008 -30.2998 65.4004 -67.7002v-22.2998h-412.7v22.2998c0 37.4004 29.2998 67.7002 65.2998 67.7002h282z" />
    <glyph glyph-name="square-vimeo" unicode="square&#x2d;vimeo" 
d="M400 416c26.5 0 48 -21.5 48 -48v-352c0 -26.5 -21.5 -48 -48 -48h-352c-26.5 0 -48 21.5 -48 48v352c0 26.5 21.5 48 48 48h352zM383.8 266.4c1.90039 41.5996 -13.5986 63.002 -46.499 64.002c-44.2998 1.40039 -74.3994 -23.5996 -90.0996 -75.0996
c19.5996 8.40039 48.5996 10.6006 45.1992 -22.1992c-0.900391 -11.0996 -8.10059 -27.0996 -21.501 -48.2998c-37.2002 -58.7002 -46.2998 -39.1006 -66.7998 90.499c-5.7998 36.5 -21.0996 53.5 -46 51.0996c-22 -2 -57.2002 -38 -94.1006 -70.4004l15 -19.4004
c14.2998 10.0996 22.7002 15.0996 25.1006 15.0996c20.7998 0 31.5 -54.0996 56.7002 -146.399c12.9004 -34.4004 28.6006 -51.6006 47.3008 -51.6006c30.0996 0 66.8994 28.2998 110.399 84.7998c42.0996 54.0996 63.8994 96.7998 65.2998 127.899zM383.801 266.402z" />
    <glyph glyph-name="slack" unicode="slack&#x2d;hash" 
d="M94.1201 132.9l-0.000976562 47.0605h-47.0596c-25.9004 0 -47.0605 -21.1602 -47.0605 -47.0605s21.1602 -47.0605 47.0605 -47.0605s47.0605 21.1602 47.0605 47.0605zM117.839 132.901v-117.84c0 -25.9004 21.1602 -47.0605 47.0605 -47.0605
s47.0605 21.1602 47.0605 47.0605v117.84c0 25.9004 -21.1602 47.0605 -47.0605 47.0605s-47.0605 -21.1602 -47.0605 -47.0605zM164.898 321.882l47.0605 0.000976562v47.0596c0 25.9004 -21.1602 47.0605 -47.0605 47.0605s-47.0605 -21.1602 -47.0605 -47.0605
s21.1602 -47.0605 47.0605 -47.0605zM164.899 298.163h-117.84c-25.9004 0 -47.0605 -21.1602 -47.0605 -47.0605s21.1602 -47.0605 47.0605 -47.0605h117.84c25.9004 0 47.0605 21.1602 47.0605 47.0605s-21.1602 47.0605 -47.0605 47.0605zM353.88 251.104
l0.000976562 -47.0605h47.0596c25.9004 0 47.0605 21.1602 47.0605 47.0605s-21.1602 47.0605 -47.0605 47.0605s-47.0605 -21.1602 -47.0605 -47.0605zM330.161 251.103v117.84c0 25.9004 -21.1602 47.0605 -47.0605 47.0605s-47.0605 -21.1602 -47.0605 -47.0605v-117.84
c0 -25.9004 21.1602 -47.0605 47.0605 -47.0605s47.0605 21.1602 47.0605 47.0605zM283.102 62.1221l-47.0605 -0.000976562v-47.0596c0 -25.9004 21.1602 -47.0605 47.0605 -47.0605s47.0605 21.1602 47.0605 47.0605s-21.1602 47.0605 -47.0605 47.0605zM283.101 85.8408
h117.84c25.9004 0 47.0605 21.1602 47.0605 47.0605s-21.1602 47.0605 -47.0605 47.0605h-117.84c-25.9004 0 -47.0605 -21.1602 -47.0605 -47.0605s21.1602 -47.0605 47.0605 -47.0605z" />
    <glyph glyph-name="wordpress" unicode="wordpress" horiz-adv-x="512" 
d="M61.7002 278.6c-11.7998 -26.5 -18.4004 -55.6992 -18.4004 -86.5996c0 -84.2002 48.9004 -157 119.9 -191.4zM399.6 202.7c0 -18.2002 -6.99805 -39.2979 -15.998 -68.6982l-21.2002 -70.9004l-76.9004 228.7c12.7998 0.700195 24.2998 2 24.2998 2
c11.4004 1.2998 10.1006 18.2002 -1.39941 17.5c0 0 -34.5 -2.7002 -56.7002 -2.7002c-20.9004 0 -56 2.7002 -56 2.7002c-11.4004 0.700195 -12.8008 -16.7998 -1.30078 -17.5c0 0 10.7998 -1.2998 22.2998 -2l33.0996 -90.7998l-46.5996 -139.6l-77.5 230.4
c12.7998 0.700195 24.2998 2 24.2998 2c11.4004 1.2998 10.1006 18.2002 -1.39941 17.5c0 0 -34.5 -2.7002 -56.7002 -2.7002c-4 0 -8.7002 0.0996094 -13.7002 0.299805c38.0996 57.7998 103.5 95.8994 177.8 95.8994c55.4004 0 105.801 -21.2002 143.701 -55.9004
c-1 0.0996094 -1.90039 0.199219 -2.80078 0.199219c-20.9004 0 -35.7002 -18.2002 -35.7002 -37.7998c0 -17.5 10.0996 -32.4004 20.8994 -49.9004c8.09961 -14.2002 17.5 -32.4004 17.5 -58.7002zM259.701 173.402l65.3994 -179.199c0.400391 -1 0.900391 -2 1.5 -2.90039
c-22.0996 -7.7998 -45.7998 -12.0996 -70.5996 -12.0996c-20.9004 0 -41 3.09961 -60.0996 8.69922zM442.7 294.104c16.5996 -30.2998 26 -65.1006 26 -102.101c0 -78.5 -42.5 -147 -105.8 -183.9l65 187.9c12.2002 30.4004 16.2002 54.6006 16.2002 76.2002
c0 7.90039 -0.5 15.1006 -1.40039 21.9004zM504 192.003c0 136.8 -111.3 248 -248 248c-136.8 0 -248 -111.2 -248 -248c0 -136.7 111.2 -248 248 -248c136.7 0 248 111.2 248 248zM492.6 192.003c0 -130.5 -106.1 -236.6 -236.6 -236.6
c-130.4 0 -236.601 106.1 -236.601 236.6s106.1 236.6 236.6 236.6c130.4 0 236.601 -106.1 236.601 -236.6z" />
    <glyph glyph-name="openid" unicode="openid" 
d="M271.5 16h-0.0996094v384l-68 -33.2002v-340c-77.2002 9.7002 -135.7 52 -135.7 103c0 48.2998 52.5 88.7998 124 101.3v43c-109.2 -13.2998 -191.7 -72.7998 -191.7 -144.3c0 -74.2998 88.5 -135.5 203.5 -145.8zM448 157l-9.2002 97.5l-35 -19.7998
c-32.5996 19.7998 -74.0996 33.7998 -120.3 39.2998v-43c26.5 -4.7998 50.5 -13.2998 70 -24.7998l-36.7998 -20.7002z" />
    <glyph glyph-name="yahoo" unicode="yahoo" horiz-adv-x="512" 
d="M223.69 306.94l93.5791 0.000976562l-140.91 -338.94h-94.1699l38.5703 89.8096l-105.83 249.13h96.0703l56 -143.17zM329.09 171.151c32.1543 0 58.2217 -26.0654 58.2217 -58.2197c0 -10.2197 -2.69043 -20.2598 -7.7998 -29.1104
c-22.4092 -38.8135 -78.4316 -38.8135 -100.841 0s5.60156 87.3301 50.4189 87.3301zM394.65 416.002h104.42l-92.6299 -223.47h-104.79zM394.65 416.002z" />
    <glyph glyph-name="google" unicode="google" horiz-adv-x="488" 
d="M488 186.2c0 16.5 -1.60156 28.6992 -3.90137 41.3994h-236.1v-85.2998h140.8c-5.7998 -36.5 -42.5996 -106.9 -140.8 -106.9c-84.5996 0 -153.699 70.0996 -153.699 156.6c0 139.4 164.2 203.4 252.5 118.2l67.5 64.9004c-43.2998 40.4004 -99.5 64.9004 -166.3 64.9004
c-137.2 0 -248 -110.8 -248 -248s110.8 -248 248 -248c143.1 0 240 100.7 240 242.2zM487.998 186.199z" />
    <glyph glyph-name="reddit" unicode="reddit" horiz-adv-x="512" 
d="M201.5 142.5c13.5 0 24.5996 11 24.5996 24.5996c0 13.7998 -11 24.8994 -24.5996 24.8994c-13.7998 0 -24.8994 -11.0996 -24.8994 -24.8994c0 -13.5 11.0996 -24.5996 24.8994 -24.5996zM504 192c0 137 -111 248 -248 248s-248 -111 -248 -248s111 -248 248 -248
s248 111 248 248zM371.7 233.2c34.7002 0 46.2012 -46.5039 14.9014 -62.5039c1.2998 -5 1.89941 -10.5 1.89941 -15.7998c0 -52.5996 -59.2002 -95.1992 -132.3 -95.1992c-72.7998 0 -132 42.5996 -132 95.1992c0 5.2998 0.599609 10.5 1.69922 15.5
c-31.9004 15.9004 -20.5 62.8008 14.4004 62.8008c9.40039 0 18 -3.7998 24.0996 -10.2002c22.4004 15.5 52.3008 25.4004 85.501 26.8008l19.0996 86.4004c0.799805 3 3.89941 5.2002 6.89941 4.40039l61.2002 -13.5996c4.09961 8 12.3994 13.7998 22.0996 13.7998
c13.7998 0 24.8994 -11.2998 24.8994 -24.8994s-11.0996 -24.8994 -24.8994 -24.8994c-13.5 0 -24.5996 11 -24.5996 24.5996l-55.4004 12.5l-17.4004 -78.2998c33.5 -1.09961 63.7002 -11.0996 86.1006 -26.5996c6.09961 6.09961 14.3994 10 23.7998 10zM302.801 116.996
c2.2002 2.2002 6.09863 2.2002 8.29883 0c2.5 -2.5 2.5 -6.40039 0 -8.60059c-22.9004 -22.7998 -87.4004 -22.7998 -110.2 0c-2.5 2.2002 -2.5 6.10059 0 8.60059c2.2002 2.2002 6.10059 2.2002 8.30078 0c17.5 -17.9004 75.4004 -18.2002 93.6006 0zM310.499 191.996
c13.9004 0 24.8994 -11.0996 24.8994 -24.8994c0 -13.5 -11.0996 -24.5996 -24.8994 -24.5996c-13.5 0 -24.5996 11 -24.5996 24.5996c0 13.7998 11 24.8994 24.5996 24.8994z" />
    <glyph glyph-name="square-reddit" unicode="reddit&#x2d;square" 
d="M283.2 102.5c-2.40039 2.2998 -6.59863 2.29883 -8.99902 -0.000976562c-19.5 -19.5996 -81.7998 -19.1992 -100.5 0.000976562c-2.40039 2.40039 -6.5 2.40039 -8.90039 0c-2.7002 -2.7002 -2.7002 -6.7998 0 -9.2002c24.5996 -24.5996 93.8994 -24.5 118.399 0
c2.7002 2.40039 2.7002 6.5 0 9.2002zM191.902 156.299c0 -14.5996 -11.9004 -26.5 -26.5 -26.5c-14.9004 0 -26.8008 11.9004 -26.8008 26.5c0 14.9004 11.9004 26.8008 26.8008 26.8008c14.5996 0 26.5 -11.9004 26.5 -26.8008zM282.603 183.099
c14.9004 0 26.8008 -11.9004 26.8008 -26.8008c0 -14.5996 -11.9004 -26.5 -26.8008 -26.5c-14.5996 0 -26.5 11.9004 -26.5 26.5c0 14.9004 11.9004 26.8008 26.5 26.8008zM448.003 367.999c0 26.5 -21.5 48 -48 48h-352c-26.5 0 -48 -21.5 -48 -48v-352
c0 -26.5 21.5 -48 48 -48h352c26.5 0 48 21.5 48 48v352zM348.303 227.399c37.2998 0 49.7012 -50 16.1016 -67.2002c1.5 -5.40039 2.09961 -11.3008 2.09961 -17.001c0 -56.5 -63.7002 -102.3 -142.2 -102.3c-78.2002 0 -141.9 45.7998 -141.9 102.3
c0 5.7002 0.599609 11.2998 1.7998 16.7002c-34.2998 17.0996 -22 67.5 15.5 67.5c10.0996 0 19.3994 -4.2002 25.8994 -11c24.0996 16.7002 56.1992 27.4004 91.8994 28.9004l20.5 92.7998c0.900391 3.2998 4.10059 5.7002 7.40039 4.7998l65.7002 -14.5996
c4.5 8.7002 13.4004 14.9004 23.8008 14.9004c14.9004 0 26.8008 -12.2002 26.8008 -26.7998s-11.9004 -26.7998 -26.8008 -26.7998c-14.5996 0 -26.5 11.9004 -26.5 26.5l-59.5 13.4004l-18.7002 -84.2002c36 -1.2002 68.4004 -11.9004 92.5 -28.6006
c6.59961 6.5 15.5 10.7002 25.5996 10.7002zM348.304 227.399z" />
    <glyph glyph-name="stumbleupon-circle" unicode="stumbleupon&#x2d;circle" horiz-adv-x="496" 
d="M256 440c137 0 248 -111 248 -248s-111 -248 -248 -248s-248 111 -248 248s111 248 248 248zM256 262.5c9.7998 0 17.7988 -7.99902 17.6992 -17.5986v-20.5996l22.9004 -10.7002l34.0996 10.0996v23.7002c0 40.2998 -34 72.5996 -74.7002 72.5996
c-40.5 0 -74.7002 -32.0996 -74.7002 -72.0996v-108.4c0 -9.90039 -8 -17.8008 -17.7998 -17.8008s-17.7998 7.7998 -17.7998 17.7998v45.7998h-57.2998v-46.5c0 -41.4004 33.5 -74.9004 74.9004 -74.9004c41 0 74.9004 33 74.9004 73.9004v106.9
c0 9.7998 8 17.7998 17.7998 17.7998zM423.599 138.901c0 0 -0.000976562 0.5 0.0986328 46.4004h-57.2998v-48c0 -9.7002 -8 -17.6006 -17.7998 -17.6006s-17.7998 7.7998 -17.7998 17.5996v47.0996l-34.0996 -10.0996l-22.9004 10.7002v-46.7998
c0 -41 33.7002 -74.2002 74.9004 -74.2002c41.4004 0 74.9004 33.5 74.9004 74.9004zM423.598 138.901z" />
    <glyph glyph-name="stumbleupon" unicode="stumbleupon" horiz-adv-x="512" 
d="M502.9 182l-85.8994 0.000976562v-72c0 -14.7002 -12.0996 -26.5 -26.7998 -26.5s-26.7002 11.7998 -26.7002 26.5v70.5996l-51.0996 -15.2002l-34.2998 16v-70.2002c0 -61.5 50.5996 -111.3 112.399 -111.3c62.0996 0 112.399 50.2998 112.399 112.399v69.7002z
M278.201 240.201l-0.000976562 30.8984c0 14.7002 -12 26.7002 -26.7002 26.7002s-26.7002 -12 -26.7002 -26.7002v-160.3c0 -61.2998 -50.7998 -110.8 -112.399 -110.8c-62.0996 -0 -112.399 50.2998 -112.399 112.3v69.7002h86v-68.5996
c0 -14.9004 12 -26.7002 26.7002 -26.7002s26.7002 11.7998 26.7002 26.7002v162.4c0 60 51.2998 108.2 112.1 108.2c61 0 112.1 -48.5 112.1 -109v-35.5996l-51.0996 -15.2002zM278.2 240.199z" />
    <glyph glyph-name="delicious" unicode="delicious" 
d="M446.5 380c1 -3.7998 1.50195 -7.89941 1.60156 -11.999v-352.1c0 -26.5 -21.5 -48 -48 -48h-352c-4.09961 0 -8.19922 0.5 -11.999 1.5c-7.7002 2 -14.6006 5.7998 -20.3008 11c-1.2002 1.09961 -2.2998 2.19922 -3.2998 3.29883c-5.2002 5.7002 -9 12.6006 -11 20.3008
c-1 3.7998 -1.5 7.89941 -1.5 11.999v352c0 26.5 21.5 48 48 47.9004h352c4.09961 0 8.19922 -0.5 11.999 -1.5c1.90039 -0.400391 3.7002 -1 5.40039 -1.7002c1.90039 -0.700195 3.7002 -1.5 5.5 -2.5c1.40039 -0.700195 2.7002 -1.5 4 -2.40039
c1.09961 -0.799805 2.19922 -1.59961 3.29883 -2.5c2.5 -2 4.7998 -4.2998 6.89941 -6.7998c1.7002 -2.09961 3.2998 -4.5 4.7002 -6.90039c1.2998 -2.2998 2.39941 -4.59961 3.2998 -7.09961c0.5 -1.5 1 -3 1.40039 -4.5zM416.002 16v176h-192v192h-176
c-8.7998 0 -16 -7.2002 -16 -16v-176h192v-192h176c8.7998 0 16 7.2002 16 16zM416.002 16z" />
    <glyph glyph-name="digg" unicode="digg" horiz-adv-x="512" 
d="M81.7002 275.7v76.2998h51v-250.7h-132.7v174.4h81.7002zM81.7002 142.3v92.2998h-30.7998v-92.2998h30.7998zM378.9 275.7h133.1v-243.7h-133.1v40.7998h81.7998v28.5h-81.7998v174.4zM460.7 142.3v92.2998h-30.7998v-92.2998h30.7998zM225.101 101.3v174.4h133.3
v-243.7h-133.3v40.7998h82.0996v28.5h-82.0996zM276.301 234.6v-92.2998h30.7998v92.2998h-30.7998zM153.301 352v-51h51.2998v51h-51.2998zM153.301 275.7v-174.4h51.2998v174.4h-51.2998z" />
    <glyph glyph-name="pied-piper-pp" unicode="pied&#x2d;piper&#x2d;pp" 
d="M205.3 273.4c0 20.9004 -14.2002 37.8008 -31.7002 37.8008c-7.09961 0 -12.7998 -1.5 -17.2002 -4.2002v-68c4.40039 -2.5 10.1006 -3.7002 17.2002 -3.7002c17.5 0 31.7002 17 31.7002 38.0996zM257.899 206.4c17.4004 0 31.7002 -17 31.7002 -38.0996
c0 -20.9004 -14.2998 -37.8008 -31.7002 -37.8008c-7.09961 0 -12.7998 1.2002 -17.2002 3.7002v68c4.40039 2.7002 10.1006 4.2002 17.2002 4.2002zM447.999 368c0 26.5 -21.5 48 -48 48h-352c-26.5 0 -48 -21.5 -48 -48v-352c0 -26.5 21.5 -48 48 -48h352
c26.5 0 48 21.5 48 48v352zM184.999 192.9c-10.4004 0 -19.9004 1.69922 -28.5 4.79883v-50.5996l-51.7998 -10.0996v206.3h45.7002c10.5 5.59961 22.5996 8.7998 34.5996 8.7998c41 0 74.2002 -35.5996 74.2002 -79.5996s-33.2002 -79.5996 -74.2002 -79.5996z
M343.399 167.6c0 -44 -33.2021 -79.6006 -74.002 -79.6006c-10.5 0 -20.0996 1.5 -28.6992 4.7002v-50.5996l-51.7998 -10.0996v156.3c19.5996 1 38 9.7998 51.7998 24.7998c9.09961 9.59961 15.5 20.8994 19.2002 33.3994c3.2002 0.5 6.40039 0.700195 9.60059 0.700195
c40.7002 0 73.9004 -35.5996 73.9004 -79.5996z" />
    <glyph glyph-name="pied-piper-alt" unicode="pied&#x2d;piper&#x2d;alt" horiz-adv-x="576" 
d="M244 202l-27.6992 -5.7002l-1.7002 4.90039c6.7002 0.5 12.7002 3.7002 19.2998 3.7002c3.7998 0 6.89941 -0.900391 10.0996 -2.90039zM379.901 4.09961c9.5 0 28.2021 -45.0986 33.002 -55.0986c-35.9004 -13.4004 -70.3008 -15.9004 -106.001 -9.80078
l-6.90039 45.0996c15.7998 10.2998 60.8994 19.7998 79.8994 19.7998zM340.804 271.001c-7.59961 3.5 -63.9004 6.40137 -98.8008 -9.99902c6.2998 11.7998 13.2002 17 25.9004 21.7998c27.2998 10.2998 40.2002 30.5 58.9004 51.0996
c11.9004 -8.40039 12 -24.6006 31.5996 -23.001v-21.7998l6.2998 -0.299805c37.4004 14.4004 74.7002 30.2002 106.601 54.6006c48.2998 36.7998 52.8994 50 81.2998 100l2 2.59961c-0.599609 -14.0996 -6.2998 -27.2998 -12.3994 -39.8994
c-30.5 -63.7998 -78.7002 -100.3 -146.8 -116.7c-12.4004 -2.90039 -26.4004 -3.2002 -37.6006 -8.90039c1.40039 -9.7998 13.2002 -18.0996 13.2002 -23c0 -3.40039 -5.5 -7.2002 -7.5 -8.60059c-11.2002 12.9004 -16.1006 19.3008 -22.7002 22.1006zM555.503 448.002
l-0.299805 -1.40039l-0.599609 -0.599609l0.299805 0.900391zM496.303 65.9023c20.0996 -34.2002 43.6973 -54.3018 72.6973 -79.9014c-31 -19.2998 -70.4004 -32.2002 -103.5 -47.2002c-55.2002 46.2998 -23 229.899 -111.5 229.899
c-3.5 -0.700195 -2.40039 -0.299805 -4.60059 -1.7002c1.09961 -1.40039 2.59961 -2.90039 3.69922 -4c23.9004 -20.0996 33.4004 -24.3994 34.8008 -58.5996l0.299805 -9.5c0.799805 -21.5996 -5.5 -42.5 -9.7998 -63.5c-25.9004 0.700195 -51.2002 -11 -77.9004 -2.90039
c-0.700195 5.90039 -1.10059 30.9004 0.299805 41.1006c1.40039 9.5 33.6006 29.9004 33.001 43.7002c-5.5 0.599609 -9.2002 -2.60059 -12.4004 -6.90039c-13.2998 -19.5 -47.2002 -41.9004 -71.2998 -41.9004c-16.5996 0 -56.2998 71.5 -76.3994 85.9004
c-3.2002 2.2998 -5.2002 5.39941 -7.7998 8.59961c-16.0996 -3.7998 -139.399 -32.2002 -147.399 -32.2002c-6 0 -11.5 4.90039 -11.5 10.9004c0 5.5 3.40039 10.7002 8.90039 11.7998l139.6 30.4004c-9.5 17.2002 12.2998 17.5 21.5 20.0996
c3.2002 0.799805 6.2998 4 9.5 4c6.2998 0 11.7998 -8.90039 13.7998 -14.1006c6.2998 1.40039 45.7002 10.6006 49.4004 10.6006c15.2002 0 15.9004 -20.0996 2.90039 -22.6992l-52.2998 -11.5l-0.299805 -4.59961c-0.299805 -10.0996 45.4004 -60.0996 53.4004 -60.0996
c18.0996 0 54.8994 41.7002 54.8994 60.1006c0 30.7002 -42.7998 12.6006 -42.7998 33.6006c0 3.5 1.2002 6.59961 2.90039 9.7998l-19.5 5.5c13.0996 13.5996 13.7998 31.6992 10.8994 50.2988c14.7002 2.90039 26.7002 4.60059 41.4004 4.60059
c56.9004 0 45.7002 -8.59961 65.5 -54.2998l14.4004 7.2002c-2.2998 -34.2002 -36.2002 -17.5 -35.1006 -31l0.299805 -6c74.7002 2.90039 116.101 -58.5996 150.001 -115.5zM300.101 19.8008h8.89941l2.90039 -23.7998l-11.7998 -3.40039v27.2002zM231.399 170.201
l13.7998 3.5l31.2998 -50.9004l-21 -13.7998zM315.8 15.3008c22.5996 2.5 32.7012 6.2998 59.501 6.2998c0.299805 -1.40039 0.899414 -3.2002 0.899414 -4.60059c0 -7.5 -49.4004 -12.5996 -58.4004 -14.0996zM315.802 15.3008z" />
    <glyph glyph-name="drupal" unicode="drupal" 
d="M303.973 339.864c53.5605 -53.5645 114.312 -114.221 114.312 -205.301c0.0605469 -2.82227 0.0605469 -5.64355 0 -8.46387c-2.33691 -107.3 -91.2148 -192.39 -198.516 -190.053s-192.39 91.2168 -190.053 198.517c0 91.0801 60.751 151.736 114.312 205.301
c35.7686 35.6768 70.0615 69.7861 80.0186 108.136c10.1396 -38.3496 44.1523 -72.459 79.9258 -108.136zM129.647 116.864l16.1328 18.8066v0l45.4512 50.4258c1.69043 1.88965 1.69043 4.74805 0 6.6377l-43.5117 44.4336l-9.21875 9.21875
c-7.55176 -8.79199 -14.5713 -18.0273 -21.0215 -27.6572c-10.5547 -15.1641 -18.4141 -32.0361 -23.2314 -49.873v0s-9.77246 -36.5977 1.47461 -62.3174l0.830078 -1.75195c1.19824 -2.21191 2.39746 -4.33301 3.6875 -6.36133v0s4.88574 -8.48145 9.21875 -8.48145
h1.65918c1.46973 0.369141 2.69141 1.3877 3.31934 2.7666c4.16992 8.58398 9.27051 16.6836 15.21 24.1533zM226.26 -10.4453h0.18457c36.8105 0.101562 66.5684 30.0254 66.4658 66.8359c0.0175781 13.5928 -4.16797 26.8594 -11.9844 37.9805
c-0.842773 1.56348 -1.83008 3.04492 -2.94922 4.4248c-14.2891 17.8857 -28.8555 34.2012 -51.1641 57.9863c-18.8057 -21.8486 -36.1338 -38.4414 -50.334 -55.3125c-2.96484 -3.32617 -5.5918 -6.93945 -7.8418 -10.7861
c-26.1191 -44.6523 5.89355 -100.835 57.623 -101.129zM352.372 96.4014c3.83008 12.3633 5.84863 25.2148 5.99609 38.1572c-0.261719 30.0322 -9.68555 59.2686 -27.0107 83.8008c-20.5205 28.6084 -43.835 55.1055 -69.5996 79.0996v0
c-12.6279 12.627 -25.4443 25.3516 -37.4287 38.627c-10.8779 -11.9854 -22.4014 -23.5088 -33.833 -34.9395c-7.43359 -7.14258 -10.8799 -17.4824 -9.21777 -27.6562v-1.75195c1.10645 -3.28711 2.69043 -6.39355 4.7002 -9.21973
c0.338867 -0.438477 0.646484 -0.900391 0.921875 -1.38184c11.1748 -12.7012 22.9902 -24.8242 35.3994 -36.3223l59.0869 -61.3047l17.7881 -18.4346c14.6016 -15.0938 27.8076 -31.4775 39.457 -48.9512v0c1.3916 -2.40625 3.625 -4.21191 6.26953 -5.06934h1.29492
c2.9082 0.462891 5.30176 2.53516 6.17578 5.34668v0z" />
    <glyph glyph-name="joomla" unicode="joomla" 
d="M0.599609 355.9c0 -28.5996 19.8008 -52.501 46.7012 -58.3008c-10.2002 -34.0996 -2 -72.3994 24.7998 -98.8994c50.0996 -50 12.0996 -12.5 99.7998 -99.7002l44 44.2998l-99.5 99.5c-14.2998 14.2998 -14.2998 37.8994 0 52.1992
c12.7998 12.7998 34.8994 17 55.3994 -3.5l44.2998 44.2998c-29.4004 29.4004 -63.9004 37.6006 -96.5 30.001c-4.7002 28.2998 -29.2002 50.2002 -59.2002 50.2002c-33 0 -59.7998 -26.7998 -59.7998 -60.0996zM130.101 239.499
c28.5 28.4004 81.3018 80.8008 99.6016 99.9004c26.5996 26.5996 64.5 35 98.2998 25.0996c4.09961 29.0996 29.1992 51.5996 59.499 51.5996c33 0 59.7998 -26.9004 59.7998 -60.1006c0 -30.2998 -22.7002 -55.3994 -51.9004 -59.499
c9.59961 -33.5996 2.2998 -70 -28.9004 -101.2l-44 44.2998c20.5 20.4004 16.2998 42.6006 3.5 55.4004c-14.2998 14.2998 -37.5996 14.2998 -51.8994 0c-10 -10.0996 -89.7002 -89.7998 -99.7002 -99.7998zM396.402 87.2988
c29.0996 -4.09961 51.6006 -28.8994 51.6006 -59.0996c0 -33.2998 -26.7998 -60.0996 -59.7998 -60.0996c-29.2002 0 -53.4004 20.7002 -58.9004 48.1006c-34.7002 -10.7998 -75.1006 -2.2002 -102.7 28l44 44.2998c20.4004 -20.5 42.6006 -16.2998 55.4004 -3.5
c14.2998 14.2998 14.2998 37.5996 0 51.8994l-99.7002 99.7002l44.2998 44.2998c104.5 -104.4 87.7002 -87.5 99.5 -99.7002c25.4004 -25.4004 34.5 -61.2002 26.2998 -93.9004zM312.104 140.398c-87.2998 -87.2998 -67.4004 -67.7002 -99.5 -99.7002
c-25.7002 -25.4004 -61.5 -34.2002 -94.2002 -26c-6.09961 -26.9004 -30 -46.7002 -58.5996 -46.7002c-33 0 -59.7998 26.7998 -59.7998 60.0996c0 28.2998 19.5 52.2002 46.2002 58.2002c-8.5 33.0996 -0.700195 68.0996 29.5 98.2998l44 -44.2998
c-20.0996 -20.0996 -16.2998 -42 -3.2002 -55.4004c14.2998 -14.2998 37.5996 -14.2998 51.8994 0c49.2998 49.4004 12.7002 13.4004 99.7002 99.8008zM312.103 140.398z" />
    <glyph glyph-name="behance" unicode="behance" horiz-adv-x="576" 
d="M232 210.8c43.5996 -12.2998 64.7002 -45.2002 64.7002 -89.7002c0 -72 -60.5 -102.9 -124.9 -102.9h-171.8v354.4h167.1c60.7002 0 113.3 -17.2002 113.3 -87.7998c0 -35.7998 -16.5996 -58.7998 -48.3994 -74zM77.9014 312.1l-0.000976562 -82.6992h79
c27.7998 0 47.5 12.0996 47.5 42.1992c0 32.5996 -25.2998 40.5 -53.3994 40.5h-73.0996zM161.2 78.4004c31.7002 0 57.6006 11.2002 57.6006 47c0 36.2998 -21.7002 50.5996 -56 50.5996h-84.9004v-97.5996h83.2998zM519.7 319.101v34.9004h-143.7v-34.9004h143.7z
M576 142.801c0 -4.5 -0.301758 -9 -0.601562 -13.2002h-185.1c0 -41.0996 21.7002 -65.2998 63 -65.2998c21.4004 0 49 11.5996 55.7002 33.5h62.2002c-19.0996 -58.7002 -58.7998 -86.2998 -120.1 -86.2998c-81 0 -131.3 54.7998 -131.3 134.7
c0 77 53.0996 135.8 131.3 135.8c80.5 0 124.9 -63.2998 124.9 -139.2zM390.398 174.001h114.7c-3 34 -20.7998 54.7998 -56.2002 54.7998c-33.7998 0 -56.2002 -21.0996 -58.5 -54.7998z" />
    <glyph glyph-name="square-behance" unicode="behance&#x2d;square" 
d="M186.5 155c0 19.7002 -11.7002 27.4014 -30.2998 27.501h-46v-52.9004h45.0996c17.2002 0 31.2002 6.09961 31.2002 25.3994zM178.8 237.301c0 -16.2998 -10.7002 -22.8994 -25.7998 -22.8994h-42.7002v44.7998h39.5996c15.2002 0 28.9004 -4.2002 28.9004 -21.9004z
M311.1 214.101c19.2002 0 28.7998 -11.2002 30.5 -29.7002h-62.2002c1.2002 18.2998 13.4004 29.7002 31.7002 29.7002zM448 368.001c0 26.5 -21.5 48 -48 48h-352c-26.5 0 -48 -21.5 -48 -48v-352c0 -26.5 21.5 -48 48 -48h352c26.5 0 48 21.5 48 48v352zM271.7 263.001
v18.9004h77.7998v-18.9004h-77.7998zM228.7 152.701c0 -39 -32.7002 -55.7002 -67.6006 -55.9004h-93.0996v192h90.5c32.9004 0 61.4004 -9.2998 61.4004 -47.5c0 -19.2998 -9 -28.7998 -26.2002 -37c23.5996 -6.7002 35 -27.5 35 -51.5996zM380 167.501
c0 -2.40039 -0.201172 -4.90039 -0.300781 -7.2002h-100.2c0 -22.2002 11.7002 -35.2998 34.1006 -35.2998c11.5996 0 26.5 6.2002 30.2002 18.1006h33.7002c-10.4004 -31.9004 -31.9004 -46.8008 -65.1006 -46.8008c-43.7998 0 -71.0996 29.7002 -71.0996 73
c0 41.7998 28.7002 73.5996 71.1006 73.5996c43.5 0 67.5996 -34.2998 67.5996 -75.3994zM379.999 167.501z" />
    <glyph glyph-name="steam" unicode="steam" horiz-adv-x="496" 
d="M496 192c0 137 -111.199 248.001 -248.399 248.001c-130.5 0 -237.4 -100.4 -247.601 -228.101l133.1 -55c12.7998 8.7002 28 13 43.5 12.0996l59.2002 85.7002v1.2002c0 51.5 42 93.5 93.7002 93.5s93.7002 -41.9004 93.7002 -93.5
c0 -52.5996 -43.7002 -94.7998 -95.7998 -93.5l-84.5 -60.2002c1.7002 -41.0996 -31 -73.5 -70.2002 -73.5c-34 0 -62.5 24.2998 -68.9004 56.3994l-95.2002 39.2998c29.4004 -104.1 125.2 -180.399 239 -180.399c137.2 0 248.4 111 248.4 248zM155.701 63.7012
c19.7998 -8.2002 42.501 1.09863 50.8008 20.999c8.2998 19.7998 -1.10059 42.5 -20.9004 50.7002l-31.5 13c12.2002 4.59961 26 4.7998 38.9004 -0.600586c13 -5.40039 23.0996 -15.6006 28.5 -28.6006s5.30078 -27.2998 -0.0996094 -40.2998
c-11.2002 -26.7998 -42.1006 -39.5996 -69.001 -28.3994c-11.918 4.98242 -21.5957 14.1621 -27.2002 25.8008zM329.502 193.601c34.5 0 62.4004 28 62.4004 62.2998s-28 62.2998 -62.4004 62.2998s-62.4004 -28 -62.4004 -62.2998s28 -62.2998 62.4004 -62.2998z
M329.602 209.2c-25.7998 0 -46.8008 21.001 -46.9004 46.8008c0 25.7998 21 46.7998 46.9004 46.7998s46.9004 -20.9004 46.9004 -46.8008c0 -25.7998 -21 -46.7998 -46.9004 -46.7998z" />
    <glyph glyph-name="square-steam" unicode="steam&#x2d;square" 
d="M185.2 91.5c-7.7002 -18.5 -28.999 -27.1992 -47.5986 -19.3994l-28.5 11.7998c5 -10.5996 13.7998 -19.3994 25.3994 -24.1992c25.2002 -10.5 54.1006 1.40039 64.6006 26.5c5.09961 12.0996 5.09961 25.5 0.0996094 37.7002
c-5.09961 12.0996 -14.5 21.5996 -26.7002 26.6992c-12.0996 5 -25 4.7998 -36.4004 0.5l29.5 -12.2002c18.5996 -7.7002 27.2998 -28.9004 19.5996 -47.4004zM400.001 416.001c26.5 0 47.999 -21.498 47.999 -47.998v-352c0 -26.5 -21.5 -48 -48 -48h-352
c-26.5 0 -48 21.5 -48 48v112.8l89.0996 -36.9004c6 -30 32.7002 -52.7002 64.5 -52.7002c36.5996 0 67.2998 30.2998 65.7002 68.7998l79 56.2998c48.7002 -1.2002 89.6006 38.2998 89.6006 87.5c0 48.2002 -39.2998 87.5 -87.5996 87.5s-87.5996 -39.2998 -87.5996 -87.5
v-1.09961l-55.4004 -80.2002c-14.5 0.799805 -28.7002 -3.10059 -40.7002 -11.3008l-116.6 48.0996v160.7c0 26.5 21.5 48 48 48h352zM300.3 193.503c32.2002 0 58.4004 26.2002 58.4004 58.2998s-26.2002 58.2998 -58.4004 58.2998s-58.4004 -26.0996 -58.4004 -58.2998
s26.2002 -58.2998 58.4004 -58.2998zM300.399 208.103c-24.2002 0 -43.8994 19.5996 -43.8994 43.7998s19.7002 43.7998 43.9004 43.7998c24.2998 0 43.8994 -19.5996 43.8994 -43.7998s-19.7002 -43.7998 -43.9004 -43.7998z" />
    <glyph glyph-name="spotify" unicode="spotify" horiz-adv-x="496" 
d="M248 440c136.9 0 248 -111.1 248 -248s-111.1 -248 -248 -248s-248 111.1 -248 248s111.1 248 248 248zM348.7 75.0996c8.09961 0 15.1992 6.29883 15.1992 15.3984s-3.59961 12.5996 -9.69922 16.5c-71.4004 42.7002 -155.101 44.2998 -237.001 26.2002
c-7.5 -1.59961 -13.5996 -6.5 -13.5996 -16.7998c0 -8.09961 6.09961 -15.7998 15.7998 -15.7998c2.90039 0 8 1.59961 11.9004 2.59961c71.7002 14.7002 144.3 13.1006 206.7 -24.499c3.90039 -2.2998 6.5 -3.59961 10.7002 -3.59961zM375.601 140.698
c10.9004 0 19.3008 8.70117 19.4004 19.501c0 8.7002 -3.2002 14.9004 -11.2998 19.7002c-49.4004 29.4004 -112.101 45.5 -177.001 45.5c-41.5996 0 -70 -5.7998 -97.7998 -13.5996c-10.2998 -2.90039 -15.5 -10 -15.5 -20.7002s8.7002 -19.4004 19.4004 -19.4004
c4.5 0 7.09961 1.2998 11.8994 2.59961c82.9004 22.5 176.101 7.59961 238.601 -29.4004c3.59961 -1.90039 7.09961 -4.2002 12.2998 -4.2002zM406.601 216.899c12.2002 0 23.2012 9.69922 23.2012 23.2988c0 11.9004 -5.09961 18.1006 -12.8994 22.6006
c-55.9004 32.5996 -132.4 47.7998 -205.4 47.7998c-42.9004 0 -82.3008 -4.90039 -117.501 -15.2002c-9 -2.59961 -17.4004 -10.2998 -17.4004 -23.8994c0 -13.2998 10.0996 -23.5996 23.2998 -23.5996c4.7998 0 9.2998 1.59961 12.8994 2.59961
c82.4004 23 209.7 12.7998 280.9 -29.7002c4.5 -2.59961 7.7002 -3.89941 12.9004 -3.89941zM406.602 216.898z" />
    <glyph glyph-name="deviantart" unicode="deviantart" horiz-adv-x="320" 
d="M320 354.8l-0.000976562 93.1006h-97.5996c-0.599609 -0.599609 -8.89941 -9.19922 -9.19922 -9.19922l-43.7002 -84l-13.5 -9.2002h-156v-127.6h85.7998l7.40039 -9.2002l-93.2002 -179.4v-93.2002h92.7002c0.599609 0.599609 8.89941 9.19922 9.19922 9.19922
l43.7002 84l13.5 9.2002h160.9v127.7h-90.7998l-7.40039 9.5zM319.999 354.801z" />
    <glyph glyph-name="soundcloud" unicode="soundcloud" horiz-adv-x="640" 
d="M111.4 191.7c-0.299805 2.2002 -2.2002 4.2002 -4.40039 4.2002c-2.2998 0 -4.2002 -2 -4.2002 -4.2002l-5.59961 -65l5.59961 -68.2998c0 -2.5 2 -4.40039 4.2002 -4.40039s4.10059 1.90039 4.40039 4.40039l5.7998 68.2998zM132.801 237.3
c2.5 0 4.7002 -2.2002 4.7002 -5l5.7998 -105.6l-5.7998 -68.2998c0 -2.7998 -2.2002 -5 -4.7002 -5c-2.7998 0 -4.7002 2.2002 -5 5l-5 68.2998l5 105.6c0.299805 2.7998 2.2002 5 5 5zM158.301 261.399c2.7998 0 5.2998 -2.2002 5.2998 -5.2998l5.2998 -130
l-5.2998 -67.7998c0 -3.09961 -2.5 -5.2998 -5.2998 -5.2998c-3.09961 0 -5.2998 2.2002 -5.59961 5.2998l-4.40039 67.7998l4.40039 130c0.299805 3.09961 2.5 5.2998 5.59961 5.2998zM7.20117 164.8c1.40039 0 2.2002 -1.09961 2.5 -2.5l5.59961 -35.5996l-5.59961 -35
c-0.299805 -1.40039 -1.09961 -2.5 -2.5 -2.5s-2.2002 1.09961 -2.5 2.5l-4.7002 35l4.7002 35.5996c0.299805 1.40039 1.09961 2.5 2.5 2.5zM30.8008 186.7c1.40039 0 2.5 -1.09863 2.7998 -2.49902l7.2002 -57.5l-7.2002 -56.4004
c-0.299805 -1.40039 -1.39941 -2.5 -2.7998 -2.5s-2.5 1.09961 -2.5 2.7998l-6.40039 56.0996l6.40039 57.5c0 1.40039 1.09961 2.5 2.5 2.5zM56.1006 198.102c1.7002 0 3.09961 -1.40039 3.09961 -3.30078l6.90039 -68.0996l-6.90039 -65.7998
c0 -1.7002 -1.40039 -3.10059 -3.10059 -3.10059c-1.59961 0 -3 1.40039 -3.2998 3.10059l-5.7998 65.7998l5.7998 68.0996c0.200195 1.90039 1.60059 3.30078 3.30078 3.30078zM81.3994 200.302c1.90039 0 3.60059 -1.40039 3.90039 -3.60059l6.40039 -70
l-6.40039 -67.7998c-0.299805 -2.2002 -2 -3.60059 -3.90039 -3.60059s-3.60059 1.40039 -3.60059 3.60059l-5.7998 67.7998l5.7998 70c0 2.2002 1.7002 3.60059 3.60059 3.60059zM322.8 311.202c2.5 -1.40039 4.09961 -4.2002 4.5 -7.2002l3.90039 -177.5
l-3.90039 -64.2002c0 -4.7002 -3.90039 -8.60059 -8.60059 -8.60059s-8.60059 3.90039 -8.90039 8.60059l-1.7002 31.7002l-1.7002 32.5l3.2998 176.7v0.799805c0.200195 2.5 1.40039 5 3.30078 6.7002c1.40039 1.09961 3.40039 1.89941 5.60059 1.89941
c1.40039 0 3.10059 -0.599609 4.2002 -1.39941zM296.1 295.902c2.2002 -1.40039 3.59961 -3.90039 3.89941 -6.7002l3.2998 -162.8l-3.09961 -58.5996l-0.299805 -6.7002c0 -2.2998 -0.799805 -4.2002 -2.5 -5.60059c-1.40039 -1.40039 -3.40039 -2.5 -5.60059 -2.5
c-2.5 0 -4.7002 1.2002 -6.40039 3.10059c-1.09961 1.40039 -1.69922 3 -1.69922 4.7002v0.299805c-3.09961 65.2998 -3.09961 65.5996 -3.09961 65.5996l2.7998 160.8l0.299805 1.7002c0 2.7998 1.40039 5.2998 3.60059 6.7002
c1.2998 0.799805 2.7998 1.39941 4.39941 1.39941s3 -0.599609 4.40039 -1.39941zM184.698 273.402c3.40039 0 5.89941 -2.7998 6.09961 -6.09961l5 -140.6l-5 -67.2002c-0.299805 -3.2998 -2.7998 -5.7998 -6.09961 -5.7998c-3 0 -5.5 2.5 -5.7998 5.7998l-4.40039 67.2002
l4.40039 140.6c0 3.2998 2.7002 6.09961 5.7998 6.09961zM561.397 210.603c43.2998 0 78.5996 -35.3008 78.5 -78.9004c0 -43.2998 -35.2998 -78.2998 -78.5996 -78.2998h-218.3c-4.7002 0.599609 -8.60059 4.19922 -8.60059 9.19922v249.7c0 4.7998 1.7002 7 7.7998 9.2002
c15.2998 6.09961 32.5 9.39941 50.2998 9.39941c72.5 0 131.9 -55.5996 138.301 -126.399c9.5 3.90039 19.7998 6.10059 30.5996 6.10059zM264.697 270.901c4.2002 0 7.2002 -3.2998 7.5 -7.7998l3.90039 -136.7l-3.90039 -65.5996c0 -4.2002 -3.2998 -7.5 -7.5 -7.5
s-7.5 3.2998 -7.7998 7.5l-3.2998 65.5996l3.2998 136.7c0.299805 4.5 3.59961 7.7998 7.7998 7.7998zM211.098 278.701c3.59961 0 6.39941 -3.09961 6.69922 -6.69922l4.40039 -145.3l-4.40039 -66.9004c-0.299805 -3.59961 -3.09961 -6.39941 -6.69922 -6.39941
c-3.2998 0 -6.09961 2.7998 -6.39941 6.39941l-3.90039 66.9004l3.90039 145.3c0 3.59961 3.09961 6.69922 6.39941 6.69922zM237.798 275.301c3.90039 0 6.89844 -3 6.89844 -6.90039l4.2002 -141.7l-4.2002 -66.4004c0 -3.7998 -3.09961 -6.89941 -6.89941 -6.89941
s-6.59961 3 -6.89941 6.90039l-3.90039 66.4004l3.90039 141.7c0 3.7998 3 6.89941 6.90039 6.89941zM237.796 275.301z" />
    <glyph glyph-name="vine" unicode="vine" horiz-adv-x="384" 
d="M384 193.3c-70.5 -16.7998 -129.797 22.6982 -129.896 101.898c0 32.9004 12.5996 50 30.7998 50c17.0996 0 28.3994 -15.2998 28.3994 -46.5996c0 -17.7002 -4.7998 -37.2002 -8.2002 -48.5c17.0996 -29.7002 63.5 -20.5 63.5 -20.5
c24.5996 53.5996 33.2998 181.5 -81.6006 181.5c-64.5 0 -102.2 -49.5 -102.2 -115.1c0 -64.7002 30.2998 -120.3 80.0996 -145.6c-20.7998 -41.7998 -47.7002 -79 -75.6006 -106.9c-50.2998 61.0996 -96.0996 142.699 -114.8 301.799h-74.5
c34.2002 -265 137 -349.3 164.1 -365.6c15.5996 -9.2002 28.6992 -8.7002 42.6992 -0.799805c22.0996 12.4004 88.1992 78.8008 125.1 156.201c15.2002 0 33.7002 1.90039 52.1006 6.10059v52.0996zM384.003 193.298z" />
    <glyph glyph-name="codepen" unicode="codepen" horiz-adv-x="512" 
d="M502.285 288.296c6.00098 -3.99902 9.71484 -11.1426 9.71582 -18.2842v-155.999c0 -7.14258 -3.71484 -14.2861 -9.71484 -18.2852l-234 -156.022c-8.05957 -4.95996 -16.584 -4.91504 -24.5713 0l-234 156.022c-6.00098 4 -9.71484 11.1426 -9.71484 18.2852v155.999
c-0 7.1416 3.71387 14.2852 9.71387 18.2842l234 156c8.05957 4.95996 16.584 4.91504 24.5713 0zM278 384.869v-102.572l95.4287 -63.7148l76.8574 51.4287zM234 384.869l-172.286 -114.858l76.8574 -51.4287l95.4287 63.7148v102.572zM44 228.868v-73.7148
l55.1426 36.8574zM234 -0.847656v102.572l-95.4287 63.7148l-76.8574 -51.4287zM256 140.011l77.7148 52l-77.7148 52l-77.7148 -52zM278 -0.847656l172.286 114.858l-76.8574 51.4287l-95.4287 -63.7148v-102.572zM468 155.153v73.7148l-55.1426 -36.8574zM468 155.154z
" />
    <glyph glyph-name="jsfiddle" unicode="jsfiddle" horiz-adv-x="576" 
d="M510.634 210.538c45.6885 -25.334 68.373 -74.5615 56.833 -122.636c-12.1035 -50.4199 -55.5479 -86.6592 -108.212 -87.293c-84.0303 -1.01074 -168.079 -0.458984 -252.12 -0.479492c-30.3223 -0.00683594 -60.668 -0.492188 -90.959 0.539062
c-48.0938 1.63672 -91.7764 35.8633 -105.607 81.4326c-14.1289 46.5498 2.19043 94.623 41.9023 124.615c2.54688 1.92383 4.86914 6.51953 4.51367 9.54492c-3.74609 31.8604 7.14453 57.6709 32.6758 76.4082c26.2822 19.2881 55.2295 21.5879 85.3311 9.16699
c2.36621 -0.975586 4.64062 -2.17773 7.82422 -3.68555c16.5225 27.5342 38.123 48.6533 65.4932 63.9033c92.8594 51.7402 210.954 8.31152 246.849 -91.6455c5.55762 -15.4756 6.74512 -32.6064 9.09668 -49.0947c0.716797 -5.02832 1.65332 -8.15527 6.37988 -10.7764z
M531.742 53.6562c39.3145 48.375 22.416 117.667 -35.1436 144.496c-7.43555 3.46582 -9.72559 7.74414 -9.84766 15.8945c-1.87012 125.129 -132.78 187.062 -230.24 132.696c-26.1143 -14.5674 -46.4492 -34.8955 -60.6709 -61.2949
c-7.59082 -14.0908 -11.9287 -7.97656 -22.1973 -2.52637c-24.6123 13.0625 -49.0469 12.6396 -72.0342 -3.08301c-21.9668 -15.0254 -31.9102 -36.6201 -26.4199 -62.9814c2.40918 -11.5703 -0.914062 -17.0635 -10.0957 -23.1367
c-38.1904 -25.2578 -53.0889 -74.8604 -34.1865 -116.105c18.4355 -40.2285 51.3135 -59.6621 95.1748 -59.9941c0.700195 -0.00488281 163.729 -0.545898 163.729 0.154297c56.8848 0 113.777 -0.550781 170.651 0.230469
c28.9375 0.397461 53.0508 13.2188 71.2812 35.6504zM443.951 134.154c6.34766 33.8203 -11.334 66.4707 -42.7627 78.1846c-32.8066 12.2256 -62.5674 0.339844 -83.2705 -28.2139c-4.52441 -6.24023 1.83398 -17.1641 12.8086 -10.3535
c4.49316 2.78809 7.4209 7.97656 11.4102 11.7207c44.2764 41.5557 107.698 -14.251 78.8682 -63.46c-14.5693 -24.8691 -44.2656 -32.6055 -68.8232 -17.5068c-31.7178 19.5 -56.5049 62.7695 -107.296 101.244c-20.6221 15.6201 -44.416 15.1123 -66.9912 2.47461
c-23.0498 -12.9053 -34.1885 -33.4805 -35.4131 -55.9658c-0.213867 -34.2109 19.7295 -61.4746 48.627 -70.1787c29.5332 -8.89551 61.5049 3.01758 78.8633 29.3018c7.59766 11.5059 -4.98438 16.1309 -13.168 10.6221
c-4.9043 -3.30078 -8.19629 -8.88379 -12.7441 -12.8438c-51.2041 -44.5869 -117.06 33.1172 -67.0635 77.1885c18.2822 16.1152 40.2158 18.6699 60.2715 3.78223c24.7959 -18.4072 68.2402 -67.6738 95.9375 -93.3867c12.0215 -11.1602 27.127 -17.7041 44.0801 -17.7051
c32.0439 -0.000976562 60.8184 23.9385 66.666 55.0957zM443.948 134.152z" />
    <glyph glyph-name="rebel" unicode="rebel" horiz-adv-x="512" 
d="M256.5 -56c142.5 0 244.399 103.8 242.399 249.399c-1.59961 120.4 -66.0996 168.301 -116.199 204.801c0 0 -6.90039 2.7002 -0.800781 -2.7998c0 0 113.2 -133.1 10.5 -225c0 0 -55.2998 -47.4004 -87.7002 -2.80078
c-27.7002 37.9004 -16.4004 98.8008 -0.600586 127.301c0 0 18 31 45.4004 39.9004l-28.5 31.7998s-29.7002 -16.2998 -43.5 -39.2998c0 0 1.40039 33.7998 21.9004 62.5996l-44.2998 50.0996l-44.5996 -50.7002s22.7002 -31.7998 21.9004 -61.3994
c0 0 -18.7998 28.2002 -43.2002 38.7002l-28.7998 -31.7998s35.7002 -15.2002 45.7002 -40.1006c0 0 39.0996 -75.7998 0.599609 -125.899c0 0 -40.2002 -47 -90 2.5c-97.2002 96.5996 8.2998 220.899 14.0996 226.399
c0.799805 1.40039 -0.799805 0.800781 -1.09961 0.800781c-73.2998 -48.2002 -113.7 -121.2 -116.5 -200.4c-4.2002 -137.9 104 -254.101 243.3 -254.101z" />
    <glyph glyph-name="empire" unicode="empire" horiz-adv-x="496" 
d="M287.6 393.8l-4.7998 -23.9004c40.5 -7.7002 75.9004 -28.7998 101.9 -58.3994l18 15.5c7.5 -8.2998 14.0996 -17.3994 20.1992 -27.0996l15.7998 9.09961c-38.5 62.5996 -106.5 104.399 -184.6 106.6v-18.2002c11.4004 -0.299805 22.7002 -1.39941 33.5 -3.59961z
M53.3994 125.6c3.90039 -10.7998 8.29883 -21.0996 13.5986 -31.0996l-15.7998 -9.09961c-17.0996 31.5996 -27.0996 68.0996 -27.0996 106.6s9.90039 75 27.1006 106.5l15.7998 -9.09961c-5.2998 -9.7002 -10 -20.2002 -13.5996 -31l22.7002 -7.7002
c-6.40039 -18.2998 -9.7002 -38.2002 -9.7002 -58.7002s3.59961 -40.4004 10 -58.7002zM213.098 14l-4.70117 -23.8008c10.7998 -1.90039 22.2002 -3.30078 33.5 -3.60059v-18.2998c-78.0996 2.2998 -146.399 44.2998 -184.899 106.6l16 9.40039
c5.7998 -9.7002 12.7002 -18.7998 20.2002 -27.3994l18 15.7998c26.0996 -29.5996 61.5 -50.6992 101.9 -58.6992zM93.2969 327.099c-7.5 -8.2998 -14.0996 -17.5 -20.0996 -27.2002l-15.7998 9.09961c38.5 62.5996 106.5 104.399 184.6 106.6v-18.2002
c-11.4004 -0.299805 -22.7002 -1.39941 -33.5 -3.59961l4.7002 -23.7998c-40.5 -7.7002 -75.9004 -28.7998 -101.9 -58.3994zM402.697 56.8984c7.5 8.59961 14.3994 17.7002 20.0996 27.4004l16.0996 -9.40039c-38.5 -62.2998 -106.8 -104.399 -184.899 -106.6v18.2998
c11.4004 0.299805 22.7002 1.7002 33.5 3.60059l-4.7002 23.7998c40.5 8 75.9004 29.0996 101.9 58.6992zM495.996 191.999c0 137 -111 248 -248 248s-248 -111 -248 -248s111 -248 248 -248s248 111 248 248zM483.796 191.999c0 -130.1 -105.7 -235.8 -235.8 -235.8
s-235.8 105.7 -235.8 235.8s105.7 235.8 235.8 235.8s235.8 -105.7 235.8 -235.8zM444.796 298.599c17.2002 -31.5996 27.0996 -68.0996 27.0996 -106.6s-9.90039 -75 -27.1006 -106.4l-15.7998 9.09961c5.2998 10 9.7002 20.2002 13.6006 31l-23 7.7002
c6.40039 18.2998 10 38.2002 10 58.7002s-3.2998 40.4004 -9.7002 58.7002l22.7002 7.7002c-3.59961 10.7998 -8.2998 21.2998 -13.5996 31zM261.795 120.898l13.2998 -66.6992c-8.59961 -1.7002 -17.6992 -2.7998 -27.0996 -2.7998s-18.5 1.09961 -27.0996 2.7998
l13.2998 66.7002c-16.2998 3.2998 -30.5 11.5996 -40.7002 23.5l-51.2002 -44.7998c-11.9004 13.5996 -21.3008 29.3994 -27.1006 46.7998l64.2002 22.0996c-2.5 7.40039 -3.90039 15.2002 -3.90039 23.5s1.40039 16 3.90039 23.5l-64.5 22.0996
c6.09961 17.5 15.5 33.2002 27.4004 46.7998l51.2002 -44.7998c10.2998 11.9004 24.3994 20.5 40.6992 23.7998l-13.2998 66.4004c8.59961 2 17.6992 2.7998 27.0996 2.7998s18.5 -0.900391 27.0996 -2.80078l-13.2998 -66.4004
c16.2998 -3.2998 30.5 -11.8994 40.7002 -23.7998l51.2002 44.7998c11.9004 -13.5996 21.3008 -29.3994 27.4004 -46.7998l-64.5 -22.0996c2.5 -7.40039 3.90039 -15.2002 3.90039 -23.5s-1.40039 -16 -3.90039 -23.5l64.2002 -22.0996
c-5.7998 -17.5 -15.2002 -33.2002 -27.1006 -46.7998l-51.2002 44.7998c-10.2998 -11.9004 -24.3994 -20.2002 -40.6992 -23.5zM261.795 120.899z" />
    <glyph glyph-name="square-git" unicode="git&#x2d;square" 
d="M100.59 113.76c-3.30957 -4.05957 -6.58984 -8.36914 -6.59961 -13.459c0 -18.54 65.5498 -18.4805 65.5498 1.51953c0 9.83008 -10.3799 8.62988 -58.9502 11.9395zM128.54 230.399c30.96 0 31.7598 -44.4697 -0.75 -44.4697c-33 0 -31.54 44.4697 0.75 44.4697z
M448 367.999c0 26.5098 -21.4902 48 -48 48h-352c-26.5098 0 -48 -21.4902 -48 -48v-352c-0 -26.5098 21.4902 -48 48 -48h352c26.5098 0 48 21.4902 48 48v352zM221 298.689c0 14.4697 8.39941 22.3105 22.8799 22.3105c14.7402 0 23.1104 -7.82031 23.1104 -22.3105
s-8.38965 -22.8799 -23.1299 -22.8799c-14.4805 0 -22.8604 8.38965 -22.8604 22.8799zM199.179 253l-0.00976562 -21.582l-23.3799 -1.78027c4.57031 -5.84961 9.40039 -13.9795 9.40039 -25.6699c0 -48.6602 -57.1904 -47.1699 -74.1904 -42.4297l-8.37988 -13.4297
c66.54 -4.05957 94.7705 -2.70996 94.7705 -39.3799c0 -29.2197 -25.6504 -45.7295 -69.8701 -45.7295c-45.9902 0 -63.5205 11.6504 -63.54 31.7207c0 11.4404 5.09961 17.5205 14 25.9209c-8.38965 3.54004 -11.1797 9.88965 -11.1797 16.7598
c0 9.59961 7.42969 16.3691 23.1201 30.7393c-12.4502 6.11035 -21.8506 19.3105 -21.8506 38.1104c0 51.5996 56.5596 53.2998 81.5596 46.75h49.5498zM283.519 143.158l-0.0400391 -20.0889h-72.4199v20.0596c16.6904 2.29004 17 1.25 17 6.87012v74.7402
c0 5.30957 -1.25 4.61914 -17 10.1689l2.79004 20.5703h52.5996v-105.45c0 -4.08984 0.25 -4.58008 4.07031 -5.08984zM383.999 132.999c-10.9297 -5.37012 -26.9307 -10.1992 -41.3809 -10.1992c-30.2402 0 -41.6699 12.1904 -41.6699 40.9102v66.5703
c0 3.38965 0.650391 2.54004 -19.8193 2.54004v22.6201c22.3203 2.54004 31.21 13.7197 34 41.4199h24.1797c0 -41.1504 -0.870117 -38.6309 2 -38.6309h35.8203v-25.4102h-37.8496v-60.7197c0 -4.32031 -3.08008 -32.1006 37.8496 -16.7305zM383.998 133z" />
    <glyph glyph-name="git" unicode="git" horiz-adv-x="512" 
d="M216.29 289.61l0.0390625 -34.5498l-37.4102 -2.83984c7.26953 -9.36035 15 -22.3701 15 -41.0703c0 -77.8896 -91.4297 -75.4697 -118.699 -67.8896l-13.4297 -21.5498c106.47 -6.5 151.63 -4.33984 151.63 -63c0 -46.7598 -41.04 -73.1797 -111.79 -73.1797
c-73.5801 0 -101.63 18.71 -101.63 50.8203c-0 18.2998 8.12988 28.04 22.3994 41.4502c-13.4199 5.66992 -17.8896 15.8096 -17.8896 26.8096c0 15.3604 11.9004 26.21 37 49.21c-20 9.76953 -35 30.9092 -35 60.999c0 82.5498 90.4902 85.2803 130.49 74.79h79.29z
M152.869 47.71c0 15.7402 -16.6104 13.8105 -94.3203 19.1104c-5.2998 -6.54004 -10.5693 -13.4004 -10.5693 -21.54c0 -29.6699 104.89 -29.6299 104.89 2.42969zM102.06 182.29c52.0195 0 50.7402 71.1602 1.2002 71.1602c-51.6602 0 -54 -71.1602 -1.2002 -71.1602z
M235.36 81.7803h115.881v32.0996l-20.7305 2.83984c-6.11035 0.820312 -6.51074 1.62988 -6.51074 8.13965v168.71h-84.1699l-4.46973 -32.9199c25.1904 -8.87988 27.2402 -7.75977 27.2402 -16.2598v-119.51c0 -9 -0.490234 -7.33984 -27.2402 -11v-32.0996z
M287.812 326.09c23.5801 0 37 13.458 37 36.6084s-13.4199 35.7705 -37 35.7705c-23.1699 0 -36.5898 -12.5898 -36.5898 -35.7695s13.4199 -36.6094 36.5898 -36.6094zM512.002 97.5381l-10.9902 35.7773c-65.4902 -24.5703 -60.5703 19.9199 -60.5703 26.8398v97.1504
h60.5596v40.6504h-57.2998c-4.59961 0 -3.25977 -4.01953 -3.25977 61.8105h-38.6299c-4.46973 -44.2695 -18.6895 -62.1992 -54.4697 -66.2695v-36.1904c32.7598 0 31.71 1.36035 31.71 -4.05957v-106.51c0 -45.96 18.29 -65.46 66.6699 -65.46
c23.1797 0 48.79 7.73047 66.2803 16.2607zM512.002 97.5352z" />
    <glyph glyph-name="hacker-news" unicode="hacker&#x2d;news" 
d="M0 416h448v-448h-448v448zM21.2002 218.8c0.0996094 0.0996094 0.0986328 0.299805 0.0986328 0.399414c-0.0996094 -0.0996094 -0.199219 -0.299805 -0.298828 -0.399414h0.200195zM239.199 164.899l80.7988 155.1h-34.7998
c-54.7998 -101.2 -48.2998 -98.6006 -60.5996 -125.601c-10.0996 24.4004 -6.7998 27.3008 -59.2998 125.601h-37.2998l79.7998 -153.3v-102.7h31.4004v100.9z" />
    <glyph glyph-name="tencent-weibo" unicode="tencent&#x2d;weibo" horiz-adv-x="384" 
d="M72.2998 -47.7998c-10.9004 117.4 24.8008 215.9 90.501 287.2c37.4004 -25.7002 86.9004 1.09961 86.9004 45.0996c0 30.5 -24.7998 55.0996 -55.0996 55.0996c-41.4004 0 -66.2002 -43.0996 -50.6006 -77.0996c-70.2998 -73.7002 -113 -183.3 -101.4 -313.2
c2.09961 -19.2998 31.0996 -17 29.6992 2.90039zM192.001 447.9c92 0 166.6 -74.6006 166.6 -166.501c0 -102.3 -93.2998 -185.5 -204 -162.3c-19 4.7002 -12.5 33.2002 6.59961 29.1006c80.7998 -20.7998 167.7 42.2998 167.7 133.1c0 75.5 -61.5 136.9 -136.9 136.9
c-101 0 -168.3 -106.6 -122 -199.199c9 -17.9004 -17.5996 -30.8008 -26.2998 -13.4004c-56 108.1 22.4004 242.3 148.301 242.3z" />
    <glyph glyph-name="qq" unicode="qq" 
d="M433.754 27.5547c5.37012 0.651367 12.4209 29.6455 -9.34668 99.7051c-10.2324 32.9277 -22.0264 60.5547 -40.1445 105.777c2.8916 118.83 -46.5273 214.957 -160.265 214.963c-115.018 -0.00585938 -163.316 -98.0625 -160.262 -214.962
c-18.1494 -45.3008 -29.8838 -72.7549 -40.1445 -105.779c-21.7705 -70.0596 -14.7168 -99.0537 -9.34668 -99.7041c11.5254 -1.39258 44.8594 52.7412 44.8594 52.7412c0 -31.3467 16.1387 -72.2529 51.0586 -101.792c-16.8652 -5.20117 -54.8281 -19.165 -45.7832 -34.415
c7.31641 -12.3428 125.511 -7.88086 159.633 -4.03711c34.1221 -3.84375 152.316 -8.30566 159.633 4.03711c9.04004 15.2539 -28.9609 29.2285 -45.8027 34.4209c34.915 29.5391 51.0508 70.4414 51.0508 101.786c0 0 33.334 -54.1338 44.8604 -52.7412zM433.753 27.5557z
" />
    <glyph glyph-name="weixin" unicode="weixin" horiz-adv-x="576" 
d="M385.2 280.4c-92.4004 0 -165.396 -69.0977 -165.297 -153.998c0 -14.2002 2.2002 -27.9004 6.2002 -40.8008c-6.2002 -0.5 -12.1006 -0.799805 -18.3008 -0.799805c-24.4004 0 -43.8008 4.90039 -68.2012 9.7002l-68 -34.0996l19.2998 58.5996
c-48.5996 34.0996 -77.8994 78.1992 -77.8994 131.6c0 92.5996 87.5 165.399 194.7 165.399c95.5996 0 179.699 -58.2998 196.299 -136.7c-6.2002 0.799805 -12.4004 1.09961 -18.8008 1.09961zM280.704 333.303c-14.7002 0 -29.2002 -9.7002 -29.2998 -24.4004
c0 -14.5 14.5 -24.2002 29.2998 -24.2002c14.5 0 24.2002 9.7002 24.2002 24.2002c0 14.7002 -9.7002 24.4004 -24.2002 24.4004zM144.304 284.703c14.7998 0 24.3994 9.59961 24.3994 24.1992c0 14.7002 -9.59961 24.4004 -24.3994 24.4004
c-14.5 0 -29.2998 -9.59961 -29.2998 -24.3994c0 -14.5 14.7998 -24.2002 29.2998 -24.2002zM563.004 128.604c0 -43.7998 -29.001 -82.7012 -68.2012 -112.102l14.7998 -48.5996l-53.4004 29.2998c-19.7002 -4.7998 -39.2998 -9.89941 -58.5996 -9.89941
c-92.5996 0 -165.399 63.4004 -165.399 141.301s72.7002 141.301 165.4 141.301c87.5 0 165.4 -63.4004 165.4 -141.301zM343.903 153.103c14.7002 0 24.3994 9.60059 24.3994 19.6006c0 9.59961 -9.59961 19.2998 -24.3994 19.2998
c-9.59961 0 -19.2998 -9.59961 -19.2998 -19.2998c0 -9.90039 9.59961 -19.6006 19.2998 -19.6006zM451.002 153.104c14.5 0 24.5 9.60059 24.4004 19.6006c0 9.59961 -9.90039 19.2998 -24.4004 19.2998c-9.59961 0 -19.2998 -9.59961 -19.2998 -19.2998
c0 -9.90039 9.59961 -19.6006 19.2998 -19.6006z" />
    <glyph glyph-name="slideshare" unicode="slideshare" horiz-adv-x="512" 
d="M187.7 294.3c34 0 61.7002 -25.7002 61.7002 -57.7002c0 -31.7002 -27.7002 -57.7002 -61.7002 -57.7002s-61.7002 26 -61.7002 57.7002c0 32 27.7002 57.7002 61.7002 57.7002zM331.101 294.3c34.2998 0 61.7998 -25.7002 61.7002 -57.7002
c0 -31.7002 -27.4004 -57.7002 -61.7002 -57.7002c-34 0 -61.7002 26 -61.7002 57.7002c0 32 27.7002 57.7002 61.7002 57.7002zM487.7 204.3c15.2002 10.5 25.2002 -3.99805 16.1006 -17.7979c-18.2998 -22.5996 -53.2002 -50.2998 -106.3 -72
c56.2998 -191.7 -137.4 -222.3 -134.301 -124c0 0.700195 -0.299805 53.7998 -0.299805 93.5c-4.2998 0.799805 -8.59961 2 -13.6992 3.09961c0 -40 -0.299805 -95.9004 -0.299805 -96.6006c3.09961 -98.2002 -190.601 -67.6006 -134.301 124.1
c-53.2002 21.7002 -88 49.4004 -106.3 72c-9.09961 13.7002 0.900391 28.2998 16 17.7002c2 -1.40039 4.2998 -2.90039 6.2998 -4.30078v198.3c0 27.4004 20.5996 49.7002 46 49.7002h359.1c25.4004 0 46 -22.2998 46 -49.7002v-198.3zM457.2 185.102l0.0996094 0.00195312
v190.6c0 32.7998 -10.5996 45.7002 -40.8994 45.7002h-317.7c-31.7002 0 -40.6006 -10.7998 -40.6006 -45.7002v-192.4c67.7002 -35.4004 125.7 -29.1006 157.4 -28.001c13.4004 0.299805 22 -2.2998 27.0996 -7.7002c1.7002 -1.59961 10 -9.39941 20.2998 -17.0996
c1.09961 15.7998 10 25.7998 33.7002 24.8994c32.2998 -1.40039 91.7002 -7.7002 160.601 29.7002zM457.2 185.104z" />
    <glyph glyph-name="twitch" unicode="twitch" horiz-adv-x="512" 
d="M391.17 344.53v-109.7h-38.6299v109.7h38.6299zM285 345v-109.75h-38.6299v109.75h38.6299zM120.83 448h366.861v-256l-173.771 -164.58h-77.25l-96.5303 -91.4199v91.4199h-115.83v329.16zM449.071 210.25v201.17h-308.93v-274.29h86.8701v-64l67.5996 64h77.2402z
M449.071 210.25z" />
    <glyph glyph-name="yelp" unicode="yelp" horiz-adv-x="384" 
d="M42.9004 207.68c-12.3643 6.03613 -27.2158 -0.171875 -31.6084 -13.2109c-9.22656 -27.4346 -12.2988 -56.5645 -9 -85.3203c1.5166 -13.7344 14.8086 -22.9697 28.209 -19.5996l107.52 26.8096c20.7002 5.2002 23.7002 33.3105 4.5 42.7109zM86.9023 -31.5713
c-11.3896 7.79004 -13.3027 23.8281 -4.0791 34.0908l74.21 82.4004c14.3096 15.8096 40.5098 5.19922 39.8096 -16.1006l-3.90039 -110.82c-0.467773 -13.8018 -13.0098 -24.0156 -26.6201 -21.6797c-28.4863 4.82422 -55.585 15.7803 -79.4199 32.1094zM232.243 78.3496
c-11.2998 18.1104 6.20117 40.4072 26.5107 33.9072l105.42 -34.2598c13.0459 -4.33789 19.3965 -19.0771 13.5889 -31.5391c-12.4316 -26.1094 -30.4219 -49.1846 -52.71 -67.6094c-10.6729 -8.79492 -26.6445 -6.21094 -34 5.50098zM380.574 210.577
c5.49512 -12.6797 -1.31543 -27.3076 -14.5723 -31.209l-106.64 -30.5098c-20.5 -5.90039 -37.0996 17.0098 -25.1992 34.71l62 91.9199c7.69727 11.4033 23.6533 13.4678 34 4.39941c21.6758 -19.1338 38.8848 -42.7949 50.4111 -69.3105zM62.1113 417.818
c35.2939 16.8018 73.3643 27.0029 112.33 30.0996c13.2803 1.07617 24.6201 -9.47754 24.5 -22.8008v-208.34c0 -23.2998 -30.9102 -31.5996 -42.6104 -11.3994l-104.12 180.44c-6.62695 11.5166 -2.07227 26.2373 9.90039 32z" />
    <glyph glyph-name="paypal" unicode="paypal" horiz-adv-x="384" 
d="M111.4 152.1c5.7998 31.2002 31.9004 23.5 75.3008 24.2002c67.5996 0.799805 118.6 27.7002 140.1 90.2998c21.5996 60.7998 16.0996 117 -44 140.3c-38.9004 15.0996 -51.7002 11.3994 -204 11.3994c-9.90039 0 -18.5 -7.2998 -20 -16.8994l-58.5996 -371.9
c-1 -7.2998 4.5 -13.8994 12.0996 -13.8994h74.5996c2 0 2.7002 0.700195 3 2.5c4.09961 25.2998 18 114.8 21.5 134zM357.102 296c28.4004 -21.2002 30.3008 -57.7979 23.8008 -92.5977c-16.5 -83.5 -71.9004 -112.3 -142.9 -112.3
c-15 0 -24.7002 2.2998 -29.2998 -19.7002c-15.5 -97.4004 -13.7002 -85.9004 -14.4004 -91.3008c-1.7002 -8.59961 -8.7998 -14.8994 -17.3994 -14.8994h-63.5c-7.09961 0 -11.5996 5.7998 -10.5996 12.8994c0 0 4.5 29.2998 27.0996 169.7
c0.799805 6.09961 4.7998 9.39941 10.8994 9.39941c54 0 164.6 -9.90039 204.5 103.899c3.7002 11.0996 6.7998 22.1992 8.7998 33.5996c0.5 3.09961 1.2002 2.59961 3 1.2998zM357.102 296.002z" />
    <glyph glyph-name="google-wallet" unicode="google&#x2d;wallet" 
d="M156.8 321.2c-0.700195 -38.7002 3.49902 -75.8994 -3.00098 -112.3c29.5 -47.2002 42.7998 -96.2002 56 -148.5c12.5 31.7998 23 64.5 31.2998 98.2998c-20.0996 49.4004 -46.6992 101.9 -84.2988 162.5zM109.299 248.001c5 0 10 -2.5 13 -6.5
c43.7998 -59.7998 66.2998 -123.8 82.5 -193.5h-103.5c-20 69.5 -49.5 133 -91.7002 187.3c-4 5.2002 0 12.7002 6.5 12.7002h93.2002zM157.099 336.001h108.7c74.7998 -103 131.2 -230 143.2 -368h-113.7c-8.2002 133.5 -69.7002 260 -138.2 368zM408.898 404.501
c19 -67.5 31.1006 -139 31.1006 -212.6c0 -69.5 -9.5 -142.5 -25.2998 -203c-10.9004 92.5 -42.4004 184.6 -90.6006 270.8c-4.2002 50.5 -13.2998 99.5 -26.5 146c-1.2002 5.2998 2.5 10.2998 7.7998 10.2998h88.2998c7 0 13.4004 -4.7002 15.2002 -11.5zM408.899 404.501z
" />
    <glyph glyph-name="cc-visa" unicode="cc&#x2d;visa" horiz-adv-x="576" 
d="M470.1 216.7l-2.80078 13.4004c-2 -5.7998 -5.5 -15.2002 -5.2998 -14.9004c0 0 -12.7002 -34.5996 -16 -43.5h33.4004c-1.7002 7.7998 -9.2998 45 -9.2998 45zM575.999 368c0 26.5 -21.5 48 -48 48h-480c-26.5 0 -48 -21.5 -48 -48v-352c0 -26.5 21.5 -48 48 -48h480
c26.5 0 48 21.5 48 48v352zM152.499 116.8l-42.5 0.00195312l-35.7998 135c-12.2998 7.2998 -26.3994 13.0996 -42.1992 17.0996l0.700195 3.09961h64.7002c8.7998 -0.400391 15.8994 -3.2002 18.1992 -13.1006l14 -71.4004l4.2998 -21.5l39.2998 106h42.5zM246.899 116.602
h-40.0996l25.0996 155.4h40.2002zM386.8 167.401c-0.299805 -32.2002 -27.7988 -53.1025 -69.999 -53.0029c-18 0.200195 -35.4004 4 -44.8008 8.2998l5.59961 34.9004l5.2998 -2.5c13.0996 -5.7998 21.6992 -8.2998 37.6992 -8.2998c11.5 0 23.9004 4.7998 24.1006 15.2002
c0 6.7002 -5.2998 11.7002 -20.7998 19.2998c-15.2002 7.5 -35.5 19.9004 -35.2002 42.2002c0.200195 30.2002 28.1006 51.4004 67.8008 51.4004c15.5 0 28.0996 -3.5 36 -6.59961l-5.5 -33.5996l-3.59961 1.7002c-7.2002 3.09961 -16.7998 6.19922 -29.8994 5.89941
c-15.7998 0 -22.8994 -6.7998 -23.0996 -13.3994c0 -7.2998 8.59961 -12.0996 22.6992 -19.1992c23.0996 -11.0996 33.8994 -24.5996 33.6992 -42.2998zM528.001 116.6l-37.1992 0.000976562s-3.59961 17.7998 -4.7998 23.2998h-51.5996
c-1.5 -4.09961 -8.40039 -23.2998 -8.40039 -23.2998h-42.2002l59.7002 142.5c4.09961 10.0996 11.3994 12.8994 20.999 12.8994h31.0996z" />
    <glyph glyph-name="cc-mastercard" unicode="cc&#x2d;mastercard" horiz-adv-x="576" 
d="M482.9 37.7002c0 6.5 -4.59961 11.7002 -11.1992 11.7002c-6.7998 0 -11.2002 -5.2002 -11.2002 -11.7002s4.40039 -11.7002 11.2002 -11.7002c6.59961 0 11.1992 4.90039 11.1992 11.7002zM172.101 49.4004c6.5 0 10.8008 -5.2002 10.9004 -11.7002
c0 -6.7998 -4.40039 -11.7002 -10.9004 -11.7002c-7.09961 0 -11.1992 5.2002 -11.1992 11.7002s4.09961 11.7002 11.1992 11.7002zM289.602 49.7002c5.2002 0 8.69922 -3 9.59961 -8.7002h-19.0996c0.799805 5.2002 4.09961 8.7002 9.5 8.7002zM397.4 49.4004
c6.7998 0 11.2002 -5.2002 11.2002 -11.7002c0 -6.7998 -4.40039 -11.7002 -11.2002 -11.7002s-10.8994 5.2002 -10.8994 11.7002s4.09961 11.7002 10.8994 11.7002zM503.301 23.3008c-0.299805 0.5 -0.200195 0.899414 -0.5 1.09961s-0.599609 0.200195 -1.09961 0.5
c-0.299805 0.299805 -0.599609 0.299805 -1.09961 0.299805c-0.299805 0 -0.599609 0 -1.09961 -0.299805c-0.299805 -0.200195 -0.5 -0.200195 -0.799805 -0.5c-0.200195 -0.299805 -0.5 -0.599609 -0.5 -1.09961
c-0.299805 -0.299805 -0.299805 -0.599609 -0.299805 -1.09961c0 -0.299805 0 -0.599609 0.299805 -1.09961c0 -0.299805 0.200195 -0.5 0.5 -0.799805c0.299805 -0.200195 0.5 -0.5 0.799805 -0.5c0.599609 -0.299805 0.799805 -0.299805 1.09961 -0.299805
c0.599609 0 0.799805 0 1.09961 0.299805c0.599609 0 0.799805 0.200195 1.09961 0.5c0.200195 0.299805 0.200195 0.5 0.5 0.799805c0 0.599609 0.299805 0.799805 0.299805 1.09961c0 0.599609 -0.299805 0.799805 -0.299805 1.09961zM501.101 21.8994l1.09961 -1.30078
h-0.799805l-1.09961 1.40039h-0.299805v-1.40039h-0.799805v3.5h1.59961c0.599609 0 0.799805 -0.299805 1.09961 -0.299805c0.299805 -0.299805 0.299805 -0.5 0.299805 -0.799805s0 -0.5 -0.299805 -0.799805c-0.299805 0 -0.299805 -0.299805 -0.799805 -0.299805z
M576.001 366.998c0 26.5 -21.5 48 -48 48h-480c-26.5 0 -48 -21.5 -48 -48v-352c0 -26.5 21.5 -48 48 -48h480c26.5 0 48 21.5 48 48v352zM64.001 227.398c0 76.2002 62.0996 138.3 138.5 138.2c27.2002 0 53.9004 -8.09961 76.5 -23.0996
c-72.4004 -59.2998 -72.9004 -171.2 0 -230.5c-22.5996 -14.9004 -49.2998 -23.1006 -76.5 -23.1006c-76.4004 0 -138.5 62 -138.5 138.5zM288.001 118.599c-70.5 54.9004 -70.2002 162.2 0 217.5c70.2002 -55.2998 70.5 -162.5 0 -217.5zM145.701 42.2988h0.201172v-23
h-8.2002c0 20.2002 2 30.2002 -8.2002 30.2002c-11.5 0 -9 -11.9004 -9 -30.2002h-7.90039c0 20 2 30.2002 -8.2002 30.2002c-11.5 0 -9 -11.2998 -9 -30.2002h-8.2002v36.7002h8.2002v-4.40039c3 4 6.7998 5.40039 10.5996 5.40039c5.7002 0 9.7998 -2.40039 12.2002 -6.5
c3.2998 5.09961 8.2002 6.5 12.7998 6.5c9 -0.299805 14.7002 -6 14.7002 -14.7002zM190.603 55.999v-36.7998h-7.90039v4.59961c-2.7002 -3.5 -6.5 -5.40039 -11.7002 -5.40039c-10.2998 0 -18.2002 8.09961 -18.2002 19.2998c0 11.0996 7.90039 19.2998 18.2002 19.2998
c5.2002 0 9 -2.09961 11.7002 -5.39941v4.40039h7.90039zM231.103 30.3994c0 -13.5 -21.4004 -15.0996 -32.6006 -7.5l3.5 6.2998c7.2002 -5 20.7002 -5.5 20.7002 0.799805c0 6.7002 -22.9004 0.700195 -22.9004 15c0 14.2002 20.7998 14.2998 30.2002 8.2002l-3.2998 -6.5
c-6.59961 3.7002 -18.5 4.60059 -18.5 -1.09961c0 -7 22.9004 -0.200195 22.9004 -15.2002zM266.503 21.0996c-5.2998 -3.5 -22.6006 -6.69922 -22.6006 10.9004v16.7002h-7.59961v7.2998h7.59961v11.2002h8.2002v-11.2002h13.0996v-7.40039h-13.0996v-16.5996
c0 -8.5 8.40039 -6.2002 12.2002 -4.10059zM279.802 34.501c2.2998 -10.7002 14.1006 -11.3008 21.9004 -4.90039l3.7998 -6c-11.2002 -9.7002 -33.7998 -6.2998 -33.7998 14.2002c0 11.4004 7.59961 19.3008 18.1992 19.3008c10 0 17.4004 -6.40039 17.4004 -22.6006h-27.5
zM338.902 56l-2.39941 -7.60059c-3.2998 1.7002 -12.7998 3.2002 -12.7998 -8.39941v-20.7002h-8.2002v36.7002h8.2002v-4.40039c3.59961 6.2002 10.5996 6.40039 15.1992 4.40039zM349.503 37.6992c0 -11.2002 11.5 -15.0996 20.7002 -8.59961l3.7998 -6.5
c-10.2998 -8.7998 -32.7002 -4.7998 -32.7002 15c0 19.0996 21.0996 24.0996 32.6992 15l-3.7998 -6.5c-9.09961 6.7002 -20.6992 3 -20.6992 -8.40039zM416.203 56l0.000976562 -36.8008h-8.2002v4.59961c-7.5 -10.7998 -29.9004 -5.2998 -29.9004 13.9004
c0 18.7002 21.5996 24.9004 29.8994 13.9004v4.40039h8.2002zM449.904 55.999l-2.40039 -7.59961c-3.7998 1.90039 -12.7998 2.60059 -12.7998 -8.39941v-20.7002h-7.90039v36.7002h7.90039v-4.40039c4.2002 7.2998 12.7998 5.59961 15.2002 4.39941zM490.204 70.8994
v-51.6992h-7.90039v4.59961c-7.40039 -10.7002 -29.9004 -5.5 -29.9004 13.9004c0 19 21.7002 24.7998 29.9004 13.8994v19.2998h7.90039zM497.804 146h-1.89941v0.799805h4.59961v-0.799805h-1.90039v-4.59961h-0.799805v4.59961zM504.404 22.2002
c0 -0.299805 0 -0.799805 -0.299805 -1.39941c-0.299805 -0.299805 -0.5 -0.799805 -0.799805 -1.09961s-0.799805 -0.5 -1.09961 -0.799805c-0.5 -0.299805 -1.09961 -0.299805 -1.59961 -0.299805c-0.299805 0 -0.899414 0 -1.39941 0.299805
c-0.599609 0.299805 -0.799805 0.5 -1.09961 0.799805c-0.5 0.299805 -0.799805 0.799805 -0.799805 1.09961c-0.299805 0.599609 -0.299805 1.09961 -0.299805 1.39941c0 0.5 0 1.09961 0.299805 1.59961c0 0.299805 0.299805 0.799805 0.799805 1.09961
c0.299805 0.299805 0.599609 0.5 1.09961 0.799805c0.599609 0 1.09961 0.299805 1.39941 0.299805c0.5 0 1.09961 -0.299805 1.59961 -0.299805c0.299805 -0.299805 0.799805 -0.5 1.09961 -0.799805s0.5 -0.799805 0.799805 -1.09961
c0.299805 -0.5 0.299805 -1.09961 0.299805 -1.59961zM507.604 146.9l-0.000976562 -5.40039h-1.09961v4.09961l-1.40039 -3.5h-1.09961l-1.59961 3.5v-4.09961h-0.799805v5.40039h1.40039l1.59961 -3.5l1.59961 3.5h1.40039zM512.004 227.4
c0 -76.5 -62.1006 -138.5 -138.501 -138.4c-27 0 -53.9004 8.09961 -76.5 23.0996c73.2002 59 72.1006 171.2 0.000976562 230.5c22.5996 14.9004 49.2998 23.1006 76.5 23.1006c76.4004 0 138.5 -62.0996 138.5 -138.3z" />
    <glyph glyph-name="cc-discover" unicode="cc&#x2d;discover" horiz-adv-x="576" 
d="M520.4 251.9c0 -8.40039 -5.5 -12.7998 -15.7998 -12.7998h-4.7002v24.9004h4.90039c10.0996 0 15.5996 -4.2002 15.5996 -12.1006zM528 416.001c26.5 0 48 -21.5 48 -48v-352c0 -26.5 -21.5 -48 -48 -48h-480c-26.5 0 -48 21.5 -48 48v352c0 26.5 21.5 48 48 48h480z
M483.9 277.101v-82h16v32.7998h2.2002l22.2002 -32.7998h19.5996l-25.7998 34.4004c12.0996 2.5 18.6992 10.5996 18.6992 23.1992c0 28.5 -30.2998 24.4004 -52.8994 24.4004zM428 277.001v-82h45.2998v13.7998h-29.2998v22.2002h28.2998v13.7998h-28.2998v18.2002h29.2998
v14h-45.2998zM359.3 277.001h-17.499l35 -84.2002h8.59961l35.5 84.2002h-17.5l-22.2002 -55.2002zM303.4 280.001c-24.5996 0 -44.5996 -19.9004 -44.5996 -44.6006c0 -24.5996 19.9004 -44.5996 44.6006 -44.5996c24.5996 0 44.5996 19.9004 44.5996 44.6006
c0 24.5996 -19.9004 44.5996 -44.6006 44.5996zM254.101 273.901c-30.2002 15 -63.2998 -6.80078 -63.2998 -38.001c0 -32.5 33.5996 -52.5 63.2998 -38.2002v19c-19.2998 -19.2998 -46.7998 -5.7998 -46.7998 19.2002c0 23.7002 26.7002 39.1006 46.7998 19.001v19z
M156.9 207.601c-7.59961 0 -13.8008 3.69922 -17.501 10.7988l-10.2998 -9.90039c17.7998 -26.0996 56.5996 -18.1992 56.5996 11.3008c0 13.0996 -5.40039 19 -23.6006 25.5996c-9.59961 3.40039 -12.2998 5.90039 -12.2998 10.3008c0 8.7002 14.5 14.1006 24.9004 2.50098
l8.40039 10.7998c-19.0996 17.0996 -49.6992 8.89941 -49.6992 -14.3008c0 -11.2998 5.2002 -17.2002 20.2002 -22.7002c25.7002 -9.09961 14.7002 -24.3994 3.2998 -24.3994zM55.3994 195c30.9004 0 44.0996 22.4004 44.0996 40.9004
c0 24.0996 -18 41.0996 -44.0996 41.0996h-23.4004v-82h23.4004zM122.898 195v82h-16v-82h16zM543.998 15l-0.000976562 144.999c-33.2998 -20.7998 -226.399 -124.399 -415.999 -159.999h401c8.2002 -0 15 6.7998 15 15zM74.0967 256.399
c5.7002 -5 8.90039 -12.5986 8.90039 -20.499s-3.2002 -15.5 -8.90039 -20.7002c-4.90039 -4.40039 -11.6006 -6.40039 -21.9004 -6.40039h-4.2002v54.2002h4.2002c10.2998 0 16.7002 -1.7002 21.9004 -6.60059z" />
    <glyph glyph-name="cc-amex" unicode="cc&#x2d;amex" horiz-adv-x="576" 
d="M48 -32l480.001 0.000976562c26.5 0 48 21.5 48 48v1.09961h-61.7002l-31.9004 35.0996l-31.9004 -35.0996h-203.7v163.8h-65.7998l81.7002 184.67h78.5996l28.0996 -63.1699v63.1699h97.2002l16.9004 -47.5703l17 47.5703h75.5v2.42969c0 26.5098 -21.5 48 -48 48h-480
c-26.5098 0 -48 -21.4902 -48 -48v-352c0 -26.5 21.4902 -48 48 -48zM482.601 84.001l41.999 -46.2988h51.4004l-68 72.0996l68 72.0996h-50.5996l-42 -46.7002l-41.5 46.7002h-51.4004l67.5 -72.5l-67.5 -71.7002h49.9004zM576 151.102l-39.2998 -41.3994l39.2998 -41.9004
v83.2998zM307.6 70.9023v-0.0996094v22.2998h80.9004v32.2998h-80.9004v22.4004h83v33.0996h-122v-143.2h122v33.2002h-83zM537.3 302.303v-100.6h38.7002v143.3h-60.2002l-32.2002 -89.2998l-31.9004 89.2998h-61.2002v-143.3h38.7002v100.3l36.7998 -100.3h34.4004z
M334.5 230.402l12 -28.7002h44.0996l-63.2998 143.3h-51.2002l-62.4004 -143.3h43l11.9004 28.7002h65.9004zM301.5 309.502l19.4004 -46.9004h-38.9004z" />
    <glyph glyph-name="cc-paypal" unicode="cc&#x2d;paypal" horiz-adv-x="576" 
d="M186.3 189.8c0 9.7998 -7 15.5 -16.2998 15.5c-12.2002 0 -21.7002 -9.7998 -21.7002 -22c0 -9.7998 6.7998 -15 16 -15c12.2998 0 22 9.2998 22 21.5zM80.5 238.3c11.2998 0 19.7998 -1.5 17.5 -14.9004c-2 -12.7002 -10.5 -14.2002 -21.5 -14.2002l-8.2002 -0.299805
l4.2998 26.7002c0.200195 1.7002 1.7002 2.7002 3.2002 2.7002h4.7002zM364.5 238.3c8.5 0 18 -0.500977 18.0996 -11.1006c0 -15 -9 -18 -22 -18l-8 -0.299805l4.2002 26.7002c0.200195 1.7002 1.40039 2.7002 3.2002 2.7002h4.5zM576 367.999c0 26.5 -21.5 48 -48 48h-480
c-26.5 0 -48 -21.5 -48 -48v-352c0 -26.5 21.5 -48 48 -48h480c26.5 0 48 21.5 48 48v352zM128.3 232.599c0 -28.7998 -17.501 -45.7998 -46.1006 -45.7998c-4.7998 0 -17 2.5 -18 -4.7002l-4.5 -26.5996c-0.299805 -2.7998 -2.7998 -5.7002 -5.5 -5.7002h-19
c-2 0 -3.5 2 -3.2002 4l16.4004 102.1c0.200195 2.7002 2.7002 4.7002 5.2002 4.7002h40c18.5 0 34.7002 -7 34.7002 -28zM212.499 223.799c2 0 3.5 -2 3.2002 -3.90039l-10.2002 -64.2998c-0.5 -2.7998 -2.7998 -5.7002 -5.5 -5.7002h-17.2002
c-2.2002 0 -3.2002 1.7002 -3.2002 4c0 1.5 0.5 4.7002 1 6.2002c-6.2998 -7 -17.5 -11.9004 -26.5 -11.9004c-19.5 0 -31.7002 12.7002 -31.7002 32.2002c0 23.7002 18.7002 45.2002 43.2002 45.2002c9.5 0 17.9004 -1.5 23.7002 -10
c0.200195 2.7002 0.400391 8.2002 4.2002 8.2002h19zM252.999 125.898c-1 -1.5 -2.7002 -2.5 -4.5 -2.59961h-19.2002c-1.7002 0 -3.2002 1.40039 -3.2002 3.2002c0 3 17.7998 27.7998 20.5 31.5996c-1.7002 5.2998 -21.2002 60.8994 -21.2002 62.0996
c0 1.7002 1.5 3.5 3.2002 3.5h18.7002c2.5 0 4.7002 -1.7998 5.5 -4l11 -37.5l26.5 39c1 1.5 2.7998 2.5 4.5 2.5h19.2002c1.7002 0 3.2002 -1.7998 3.2002 -3.5c0 -0.700195 0 -1.2002 -0.5 -1.7002zM412.299 232.599c0 -28.7998 -17.5 -45.7998 -45.9004 -45.7998
c-4.7998 0 -17 2.5 -18 -4.7002l-4.5 -29c-0.5 -1.7002 -2 -3.2002 -4 -3.2002h-20.5c-1.90039 0 -3.40039 2 -3.2002 4l16.2002 102c0.299805 2.7002 2.7998 4.7002 5.5 4.7002h39.7002c18.5 0 34.7002 -7 34.7002 -28zM496.499 223.799c2 0 3.5 -2 3.2002 -3.90039
l-10.2002 -64.2998c-0.5 -2.7998 -2.7998 -5.7002 -5.5 -5.7002h-17.2998c-2.2002 0 -3.2002 1.7002 -3.2002 4c0 1.5 0.700195 4.7002 1 6.2002c-6 -7 -17.2002 -11.9004 -26.5 -11.9004c-19.5 0 -31.7002 12.7002 -31.7002 32.2002
c0 23.7002 18.7002 45.2002 43.2002 45.2002c9.7002 0 18.2002 -1.5 23.7002 -10c0.299805 2.7002 0.5 8.2002 4.2998 8.2002h19zM543.999 257.099v-0.299805l-16.2002 -101.2c-0.200195 -2.7998 -2.7002 -5.7002 -5.2002 -5.7002h-16.5c-2 0 -3.5 1.7002 -3.5 3.5
l0.299805 0.5l16.2002 104c0.200195 1.5 1.7002 2.7002 3.2002 2.7002h18.5c1.7002 0 3.2002 -1.5 3.2002 -3.5zM453.999 205.299c9.2998 0 16.2998 -5.7002 16.2002 -15.5c0 -12.2998 -9.7002 -21.5 -21.7002 -21.5c-9.2002 0 -16.2002 5.2998 -16.2002 15
c0 12.2998 9.5 22 21.7002 22z" />
    <glyph glyph-name="cc-stripe" unicode="cc&#x2d;stripe" horiz-adv-x="576" 
d="M492.4 227.2c8.7002 0 18 -6.7002 18 -22.7002h-36.7002c0 16 9.7998 22.7002 18.7002 22.7002zM375 224.601c12.9004 0.0996094 21.8994 -14.501 21.8994 -33.1006c0 -19.0996 -8.7998 -33.3994 -21.8994 -33.3994c-8.2998 0 -13.2998 3 -16.7998 6.7002
l-0.200195 52.7998c3.7002 4.09961 8.7998 7 17 7zM527.999 416c26.5 0 48 -21.5 48 -48v-352c0 -26.5 -21.5 -48 -48 -48h-480c-26.5 0 -48 21.5 -48 48v352c0 26.5 21.5 48 48 48h480zM122.199 166.9c0 42.2998 -54.2998 34.6982 -54.2998 50.6982
c0 5.5 4.59961 7.7002 12.0996 7.7002c10.7998 0 24.5 -3.2998 35.2998 -9.09961v33.4004c-11.7998 4.7002 -23.5 6.5 -35.2998 6.5c-28.7998 0 -48 -15 -48 -40.2002c0 -39.2998 54 -32.8994 54 -49.8994c0 -6.59961 -5.7002 -8.69922 -13.6006 -8.69922
c-11.7998 0 -26.8994 4.90039 -38.8994 11.3008v-33.9004c13.2002 -5.7002 26.6006 -8.10059 38.8008 -8.10059c29.5996 0.200195 49.8994 14.7002 49.8994 40.2998zM190.999 223.498l0.00195312 30.3008h-26.9004v30.7998l-34.7002 -7.40039l-0.200195 -113.9
c0 -21 15.7998 -36.5 36.8994 -36.5c11.5996 0 20.1992 2.09961 24.8994 4.69922v28.9004c-4.5 -1.7998 -27 -8.2998 -27 12.6006v50.5h27zM265.001 221.099l-0.000976562 32.6992h-0.0996094c-4.7002 1.7002 -21.2998 4.7998 -29.5996 -10.5l-2.2002 10.5h-30.7002v-124.5
h35.5v84.4004c8.40039 11 22.6006 8.90039 27.1006 7.40039zM309.1 129.298v124.5h-35.7002v-124.5h35.7002zM309.1 272.198v28.9004l-35.7002 -7.59961v-28.9004zM383.199 126.698c25.4004 0.0996094 48.6016 20.5 48.6016 65.5996
c0 41.2998 -23.5 63.7998 -48.4004 63.7998c-13.9004 0 -22.9004 -6.59961 -27.8008 -11.0996l-1.7998 8.7998h-31.2998v-165.8l35.5 7.5l0.0996094 40.2002c5.09961 -3.7002 12.6992 -9 25.0996 -9zM543.601 178.198c0.0996094 2 0.398438 9.40039 0.398438 12.9004
c0 36.4004 -17.5996 65.1006 -51.2998 65.1006c-33.7998 0 -54.2998 -28.7002 -54.2998 -64.9004c0 -42.7998 24.2002 -64.5 58.7998 -64.5c17 0 29.7002 3.90039 39.4004 9.2002v28.5996c-9.7002 -4.90039 -20.7998 -7.90039 -34.8994 -7.90039
c-13.7998 0 -26 4.90039 -27.5996 21.5h69.5z" />
    <glyph glyph-name="lastfm" unicode="lastfm" horiz-adv-x="512" 
d="M225.8 80.9004c0 0 -31.6982 -31.1016 -97.8984 -31.1016c-82.2002 0 -127.9 48.0996 -127.9 137.199c0 92.7002 45.7002 147.2 131.8 147.2c117.7 0 129.3 -66.2002 161.3 -163c14 -42.7998 38.7002 -73.8994 97.9004 -73.8994c39.9004 0 61 8.7998 61 30.5
c0 31.9004 -34.9004 35.1006 -79.8008 45.7002c-48.5996 11.7002 -68 36.9004 -68 76.8008c0 64 51.5996 83.9004 104.399 83.9004c59.7998 0 96.2002 -21.7002 100.9 -74.5l-58.5996 -7c-2.2998 25.2002 -17.5 35.7998 -45.7002 35.7998
c-25.7998 0 -41.5996 -11.7998 -41.5996 -31.7002c0 -17.5996 7.59961 -28.0996 33.3994 -34c52.2998 -11.5 115 -19.2002 115 -92.1006c0 -58.5996 -49.2998 -80.8994 -122 -80.8994c-101.4 0 -136.601 45.7002 -155.4 102.601
c-26.0996 81.5996 -34.3994 134.899 -100.899 134.899c-35.7002 0 -72.1006 -25.7998 -72.1006 -97.8994c0 -56.2998 28.7002 -91.5 69.2002 -91.5c45.7002 0 76.2002 34 76.2002 34z" />
    <glyph glyph-name="square-lastfm" unicode="lastfm&#x2d;square" 
d="M400 416c26.5 0 48 -21.5 48 -48v-352c0 -26.5 -21.5 -48 -48 -48h-352c-26.5 0 -48 21.5 -48 48v352c0 26.5 21.5 48 48 48h352zM307.8 103.1c45.4004 0 76.2002 13.8975 76.1006 50.5977c0 45.5 -39.0996 50.4004 -71.7998 57.5
c-16.0996 3.7002 -20.8994 10.2998 -20.8994 21.2998c0 12.5 9.90039 19.7998 26 19.7998c17.5996 0 27.0996 -6.59961 28.5996 -22.3994l36.7002 4.40039c-2.90039 33 -25.6006 46.5996 -63.001 46.5996c-32.9004 0 -65.2002 -12.4004 -65.2002 -52.4004
c0 -24.9004 12.0996 -40.7002 42.5 -48c28.0996 -6.59961 49.8994 -8.69922 49.8994 -28.5996c0 -13.5996 -13.2002 -19.0996 -38.1006 -19.0996c-37 0 -52.4004 19.4004 -61.2002 46.2002c-20 60.5 -27.2998 101.9 -100.8 101.9c-53.9004 0 -82.5 -34.0996 -82.5 -92
c0 -55.7002 28.5996 -85.7998 79.8994 -85.7998c41.4004 0 61.2002 19.4004 61.2002 19.4004l-11.7002 31.9004s-19 -21.2998 -47.5996 -21.2998c-25.2998 0 -43.2998 22 -43.2998 57.2002c0 45.0996 22.7002 61.1992 45.1006 61.1992c41.5 0 46.7002 -33.2998 63 -84.2998
c11.7002 -35.5 33.7002 -64.0996 97.1006 -64.0996zM307.8 103.097z" />
    <glyph glyph-name="ioxhost" unicode="ioxhost" horiz-adv-x="640" 
d="M616 288c13.2998 0 24 -10.7002 24 -24c0 -13.2002 -10.7002 -24 -24 -24h-52.7002c3.09961 -15.5 4.69922 -31.5996 4.69922 -48c0 -137 -111 -248 -248 -248c-102.9 0 -191.2 62.7002 -228.7 152h-67.2998c-13.2998 0 -24 10.7002 -24 24c0 13.2002 10.7002 24 24 24
h52.7002c-3.09961 15.5 -4.69922 31.5996 -4.69922 48c0 137 111 248 248 248c102.9 0 191.2 -62.7002 228.7 -152h67.2998zM520 192c0 16.5996 -2 32.5996 -5.7998 48h-298.2c-13.2998 0 -24 10.7002 -24 24c0 13.2002 10.7002 24 24 24h279.5
c-33.9004 62 -99.8008 104 -175.501 104c-110.5 0 -200 -89.5 -200 -200c0 -16.5996 2 -32.5996 5.7998 -48h298.2c13.2998 0 24 -10.7002 24 -24c0 -13.2002 -10.7002 -24 -24 -24h-279.5c33.9004 -62 99.8008 -104 175.501 -104c110.5 0 200 89.5 200 200zM216 216
c-13.2998 0 -24 -10.7998 -24 -24c0 -13.2998 10.7002 -24 24 -24h208c13.2998 0 24 10.7998 24 24c0 13.2998 -10.7002 24 -24 24h-208z" />
    <glyph glyph-name="angellist" unicode="angellist" 
d="M347.1 232.6c48 -11.7002 54.9014 -50.6025 54.9014 -93.7021c0 -114.3 -73.4004 -202.899 -191.4 -202.899c-96.2002 0 -164.601 76.4004 -164.501 148.601c0 37.0996 14.2002 61.6992 51.1006 71.6992c-3.09961 8.2998 -8 20.7998 -8 29.7002
c0 23.5 24.9004 52.5996 48.3008 52.5996c6.90039 0 13.7002 -2 20 -4.2998c-12.4004 35.2002 -46.6006 126.7 -46.6006 162c0 28.7998 14.5996 51.7002 45.6992 51.7002c40 0 85.4004 -144 95.1006 -172.5c12.5 31.4004 52.5 163.101 97.0996 163.101
c28 0 43.7002 -22.2998 43.7002 -48.8994c0 -30.2002 -33.7002 -124.5 -45.4004 -157.1zM311.7 339.998l-33.1006 -93.7002l34 -6c8.5 23.4004 47.0996 128.9 47.0996 148c0 7.09961 -2.2998 16 -10.8994 16c-16 0 -33.0996 -52 -37.0996 -64.2998zM142.299 399.698
c0 -29.0996 34.5996 -120 45.5 -148.8c7.7002 4.40039 19.7998 2.7002 35.3994 1.40039l-34.5996 100.3c-31.7998 92.7998 -46.2998 59 -46.2998 47.0996zM139.999 203.998c-7.7002 0 -20.3018 -13.3984 -20.4014 -21.0986c0 -20.7998 56 -97.7002 76.9004 -97.7002
c5.7002 0 10.6006 6.2998 10.6006 11.3994c0 12.7998 -37.7998 107.399 -67.0996 107.399zM324.297 17.7002c55.2998 61.5 49.1006 158.606 31.001 174.706c-24 21.0996 -106 29.0996 -138.3 29.0996c-17.2998 0 -17.3994 -6.40039 -17.3994 -13.1006
c0 -43.7002 92.9004 -39.7002 120.601 -39.7002c11.2002 0 15.7998 -9.90039 16.8994 -21.1006c-7.40039 -7.40039 -17.7002 -11.7002 -27.4004 -15.4004c-9.40039 -3.40039 -19.1006 -7.10059 -27.1006 -13.1006c-22 -16 -43.7002 -43.4004 -43.7002 -71.7002
c0 -17.7002 10.5996 -32.9004 10.5996 -50.3008c0 -0.299805 -2 -6.5 -2 -7.40039c-32.5996 2.2998 -40.5996 34.5996 -41.6992 61.6992c-3.40039 -0.900391 -8 -0.600586 -11.7002 -0.600586c5.09961 -17.7998 -11.9004 -42 -38 -42
c-37.7998 0 -88 57.2002 -58.2998 86.9004c28.7002 -35.9004 35 -51.4004 51.0996 -51.4004c4 0 11.7002 3.40039 11.7002 8.30078c0 12.7998 -42.9004 73.0996 -54.3008 73.0996c-16.7998 0 -37.7002 -24.9004 -20.6006 -68.3008
c22.5996 -55.7002 69.5 -88.2998 128.9 -88.2998c43.4004 0 80.6006 16.5996 109.7 48.5996zM225.698 143.707c3.2002 -8.2998 6.60059 -16.5996 9.40039 -25.0996c6.2998 7.09961 12.8994 13.6992 20.2998 19.0996c-10 2 -20 2.90039 -29.7002 6z" />
    <glyph glyph-name="buysellads" unicode="buysellads" 
d="M224 297.3l-42.8994 -160.7h85.7998zM448.001 368c0 26.5 -21.5 48 -48 48h-352c-26.5 0 -48 -21.5 -48 -48v-352c0 -26.5 21.5 -48 48 -48h352c26.5 0 48 21.5 48 48v352zM382.701 42.7002h-90.7998l-24.2002 91.5996l-111.7 -91.5996h-90.7002l94.5 298.7h128.4z" />
    <glyph glyph-name="connectdevelop" unicode="connectdevelop" horiz-adv-x="576" 
d="M550.5 207c6.69629 -1.33887 11.7832 -7.50293 11.7852 -14.7354c0 -7.5 -5.3584 -13.6611 -12.3223 -15l-54.9111 -95.3584c0.536133 -1.60742 0.803711 -3.21484 0.803711 -4.82227c0 -7.23242 -5.08984 -13.3936 -12.0537 -14.7324l-51.6973 -90.2676
c0.536133 -1.33887 0.802734 -2.67773 0.802734 -4.28516c0 -8.30371 -6.69727 -15.2676 -15.2686 -15.2676c-4.28613 0 -8.30371 1.875 -10.9814 4.82129h-107.143c-2.67871 -3.21387 -6.96484 -5.35645 -11.5176 -5.35645s-8.83887 2.14258 -11.5166 5.35547h-106.875
c-2.67871 -3.21387 -6.69629 -5.35645 -11.5176 -5.35645c-8.30371 0 -15.2676 6.69727 -15.2676 15.2686c0 1.875 0.535156 3.75 1.07129 5.35742l-51.6973 89.7324c-6.96484 1.33887 -12.0537 7.5 -12.0537 14.7324c0 1.875 0.267578 3.21387 0.803711 4.82129
l-55.1787 95.3584c-6.96484 1.60742 -12.0537 7.76855 -12.0537 15.001c0 7.5 5.3584 13.6611 12.5908 15l53.3037 92.1426c0 0.536133 -0.267578 1.07227 -0.267578 1.60742c0 6.16113 3.75098 11.251 9.10742 13.6611l55.9834 97.2334
c-0.536133 1.33887 -1.07227 3.21387 -1.07227 4.82129c0 8.57227 6.96484 15.2686 15.2676 15.2686c4.82227 0 8.83887 -2.14258 11.7861 -5.625h106.071c2.67871 3.48242 6.69629 5.625 11.5176 5.625s8.83887 -2.14258 11.5176 -5.62402h106.606
c2.94727 3.48242 6.96484 5.625 11.7861 5.625c8.30371 0 15.2676 -6.69727 15.2676 -15.2686c0 -1.60742 -0.535156 -3.21484 -1.07129 -4.82227l55.4473 -95.8926c8.03613 -0.267578 14.7324 -6.96484 14.7324 -15.001c0 -2.67871 -0.803711 -5.08984 -1.875 -7.23145z
M153.532 -2.73535v75.8027h-43.6602zM153.532 81.1035v50.625l-44.999 -47.4102c0.535156 -1.07227 1.07129 -2.14355 1.33887 -3.21484h43.6602zM153.532 143.516l0.000976562 92.9453l-50.0889 51.9648c-2.41113 -1.60742 -5.08887 -2.41113 -7.76758 -2.67871
l-51.9648 -90c0.267578 -1.07227 0.267578 -2.14355 0.267578 -3.48242s0 -2.67871 -0.535156 -4.01758l55.7129 -96.4287c1.33887 -0.266602 2.67871 -1.07031 4.01758 -1.60645zM153.532 245.837v72.0518l-43.9277 -15.8037
c0 -0.267578 0.267578 -0.803711 0.267578 -1.07129c0 -2.94629 -0.803711 -5.62402 -2.14258 -7.7666zM153.532 326.461v59.7324l-43.6602 -75.5361zM480.051 287.353l-0.268555 0.268555l-98.0361 -101.518l63.75 -67.2324l35.3584 167.143zM291.746 92.8896
l-11.25 -11.7861h22.7676zM291.479 104.14l79.2861 82.2324l-83.0361 87.5889l-79.5527 -84.375zM296.836 98.2471l16.876 -17.1426h124.019l5.8916 28.125l-67.5 71.25zM410.409 403.604l-117.053 -124.018l83.0352 -87.5889l97.5 101.25
c-1.33984 2.14258 -2.14258 4.82031 -2.14258 7.7666v0.536133l-57.8574 100.714c-1.33984 0.267578 -2.41113 0.803711 -3.48242 1.33984zM401.302 405.747h-4.28711l-166.339 -60l57.0537 -60.2676zM277.818 405.747h-103.928l50.8926 -53.5713l148.393 53.5713h-75
c-2.67871 -2.67773 -6.16016 -4.28516 -10.1787 -4.28516s-7.50098 1.60742 -10.1787 4.28516zM161.569 400.122v-70.7158l54.9111 19.8213l-51.1611 53.8398c-0.881836 -0.304688 -1.77539 -0.573242 -2.67871 -0.803711zM161.569 320.835v-83.3047l40.9824 -42.0527
l79.5527 84.1074l-59.7324 63.2139zM161.569 228.156v-76.0713l36.4277 38.3037zM161.569 140.299v-59.1963h107.678l17.1426 17.6777l-82.7676 85.9824zM168.533 -21.7539l1.33789 0.000976562l91.6074 94.8213h-99.9102v-89.7324l1.07129 -1.60742
c2.41113 -0.803711 4.28613 -1.875 5.89355 -3.48242zM298.443 -21.7529h104.197l-91.6074 94.8213h-38.3037l-91.6074 -94.8213h96.4287c2.67969 2.41016 6.42773 4.28516 10.4463 4.28516s7.76758 -1.875 10.4463 -4.28516zM418.445 -9.9668l17.4111 83.0361h-114.376
l89.1963 -91.875c1.07227 0.536133 2.14355 1.07129 3.48242 1.33887zM431.301 12.2656l34.8223 60.8027h-21.9639zM466.123 81.1045c0.267578 1.07227 0.802734 2.14355 1.33789 2.94629l-17.1426 18.2139l-4.55273 -21.1602h20.3574zM532.283 188.516
c-0.267578 1.33887 -0.536133 2.41016 -0.536133 3.74902c0 1.60742 0.536133 2.94629 0.802734 4.28516l-45.8027 79.2861l-34.5537 -163.928l20.625 -21.9639c1.33887 0.802734 2.67871 1.33887 4.01758 1.87402z" />
    <glyph glyph-name="dashcube" unicode="dashcube" 
d="M326.6 344l102.199 104v-427c0 -50.5 -40.0996 -85 -91.1992 -85h-227.2c-51.0996 0 -91.1992 34.5 -91.1992 85v229.5c0 50.2002 40.0996 93.5 91.1992 93.5h216.2zM153.898 31.5v-0.0996094h223.8l-51.0996 52.2998v123.5c0 17.7002 -14.2998 32.5 -32 32.5h-140.7
c-17.7002 0 -32.4004 -14.7998 -32.4004 -32.5v-142.9c0 -17.7002 14.7002 -32.7998 32.4004 -32.7998zM153.898 31.5z" />
    <glyph glyph-name="forumbee" unicode="forumbee" 
d="M5.7998 138.3c46.0996 123.7 143.199 222.2 266.6 269.2c-16 3.5 -32.7002 5.5 -49.2998 5.5c-123.3 0 -223.1 -100 -223.1 -223.3c0 -17.2002 2 -34.4004 5.7998 -51.4004zM398.7 327.5c-151.1 -44 -269.2 -164.4 -312.3 -315.7
c-17.2002 13.4004 -32.7002 30.9004 -45.2002 49c43.4004 149.9 160.101 267.7 309.7 312c18.0996 -12.5996 34.0996 -27.7998 47.7998 -45.2998zM414.499 74.7998c13.0996 -35.2998 24.2012 -73.3008 33.501 -109.801c-36.0996 9.2998 -72 20.5 -107 33.5996
c-25.7002 -16 -54.6006 -26.9004 -84.6006 -31.3008c42.5996 79.7002 108.199 147.4 187.6 190.301c-4.09961 -29.0996 -14.2998 -57.6992 -29.5 -82.7988zM444.201 220.299c-113.7 -46.7002 -204.201 -139.4 -250.501 -253.5
c-19.5996 2.7002 -38.5 7.60059 -56.5996 15.2002c44.9004 138.5 153.4 249.3 291.301 295.1c7.90039 -18.0996 13.2002 -37.2998 15.7998 -56.7998zM444.2 220.299z" />
    <glyph glyph-name="leanpub" unicode="leanpub" horiz-adv-x="576" 
d="M386.539 336.515c-39.5264 -0.823242 -70.8164 -14.2725 -98.5391 -42.5439c-28.8213 29.3691 -61.4844 42.5439 -102.657 42.5439c-30.7422 0 -63.6807 -6.31152 -92.2266 -18.1143l-31.291 -258.288c41.4463 17.0176 77.9521 27.7227 123.517 27.7227
c36.2334 0 71.6416 -8.7832 102.657 -27.9971c31.0166 19.2139 66.4248 28.8213 102.657 27.9971l10.9785 -0.275391zM569.07 0.000976562l-42.543 349.141c-39.251 22.2334 -87.0107 34.8594 -132.3 34.8594c-37.0547 0 -75.209 -7.68457 -106.225 -29.0947
c-31.0156 21.4102 -69.1699 29.0947 -106.225 29.0947c-45.2891 0 -93.0488 -12.626 -132.3 -34.8594l-42.5449 -349.141h1.37305c24.4277 0 46.9355 5.76367 69.1689 15.6445c34.3096 15.6445 69.9922 24.9775 107.87 24.9775c38.9766 0 74.9336 -12.9004 102.656 -40.623
c27.7227 27.7217 63.6797 40.623 102.656 40.623c37.8779 0 73.5605 -9.33301 107.87 -24.9775c23.0566 -10.4297 45.0156 -15.6445 70.542 -15.6445zM525.704 44.7422c-47.2109 19.4873 -82.8945 33.4863 -135.046 33.4863c-37.6045 0 -70.8164 -9.60645 -102.656 -29.6445
c-31.8398 20.0381 -65.0527 29.6445 -102.657 29.6445c-52.1514 0 -87.834 -13.999 -135.045 -33.4863l34.0361 280.246c30.7422 13.999 67.248 21.4102 101.009 21.4102c38.4287 0 74.3848 -12.0771 102.657 -38.7021c28.2725 26.625 64.2295 38.7021 102.657 38.7021
c33.7607 0 70.2666 -7.41113 101.009 -21.4102zM525.703 44.7422z" />
    <glyph glyph-name="sellsy" unicode="sellsy" horiz-adv-x="640" 
d="M539.71 210.692c55.1572 -13.4834 94.0732 -63.123 94.0723 -119.507c0 -68.0273 -55.4639 -123.185 -123.184 -123.185h-381.198c-67.7207 0 -123.185 55.1572 -123.184 123.186c0 47.4961 27.8848 91.0088 70.7852 111.233
c-2.14453 7.35449 -3.06445 15.0156 -3.06445 22.3691c0 46.2705 37.6914 83.9609 83.9619 83.9609c20.2227 0 39.835 -7.35352 55.1572 -20.5293c18.3857 74.7686 85.7998 127.78 163.02 127.78c92.542 0 167.924 -75.3818 167.924 -167.924
c0 -12.5635 -1.22559 -25.1279 -4.29004 -37.3848zM199.879 46.4473v110.928c0 8.27344 -7.04688 15.3213 -15.3213 15.3213h-30.9492c-8.27344 0 -15.3213 -7.04785 -15.3213 -15.3213v-110.928c0 -8.27344 7.04688 -15.3213 15.3213 -15.3213h30.9492
c8.27344 0 15.3213 7.04688 15.3213 15.3213zM289.355 46.4473v131.458c0 8.27344 -7.04785 15.3213 -15.3223 15.3213h-30.9492c-8.27344 0 -15.3213 -7.04688 -15.3213 -15.3213v-131.458c0 -8.27344 7.04688 -15.3213 15.3213 -15.3213h30.9492
c8.27441 0 15.3223 7.04688 15.3223 15.3213zM378.832 46.4473v162.714c0 8.27344 -7.04688 15.3213 -15.3213 15.3213h-30.9492c-8.27441 0 -15.3223 -7.04688 -15.3223 -15.3213v-162.714c0 -8.27344 7.04785 -15.3213 15.3223 -15.3213h30.9492
c8.27441 0 15.3213 7.04688 15.3213 15.3213zM465.859 46.4473v224.613c0 8.58008 -7.04785 15.6279 -15.3223 15.6279h-28.4971c-8.27441 0 -15.3213 -7.04883 -15.3213 -15.6279v-224.613c0 -8.27344 7.04688 -15.3213 15.3213 -15.3213h28.4971
c8.27441 0 15.3223 7.04688 15.3223 15.3213zM465.859 46.4473z" />
    <glyph glyph-name="shirtsinbulk" unicode="shirtsinbulk" 
d="M100 37.7002l4.40039 9.90039l30.5996 -13.4004l-4.40039 -9.90039zM139.4 20.2002l4.40039 9.90039l30.5996 -13.4004l-4.40039 -9.90039zM311.5 34.2002l30.5996 13.4004l4.40039 -9.90039l-30.5996 -13.4004zM179.1 3l4.40039 9.60059l30.2998 -13.4004
l-4.40039 -9.90039zM60.3994 55.2012l4.40039 9.89941l30.5996 -13.7002l-4.40039 -9.59961zM271.8 16.7002l30.5996 13.4004l4.40039 -9.90039l-30.5996 -13.4004zM232.5 -0.799805l30.5996 13.3994l4.40039 -9.59961l-30.5996 -13.7002zM350.9 51.3994l30.5996 13.7012
l4.40039 -9.90039l-30.5996 -13.4004zM170 401.4v-10.5h-33.5v10.5h33.5zM122.8 401.4l-0.0996094 -10.5h-33.5v10.5h33.5996zM75.5 401.4l0.0996094 -10.5h-33.2998v10.5h33.2002zM217 401.4v-10.5h-33.2002v10.5h33.2002zM311.5 401.4v-10.5h-33.5v10.5h33.5zM358.8 401.4
v-10.5h-33.5v10.5h33.5zM264.2 401.4v-10.5h-33.2002v10.5h33.2002zM405.7 401.4v-10.5h-33.2998v10.5h33.2998zM52.7998 96.9004v-33.5h-10.7998v33.5h10.7998zM122.8 312.801l-0.0996094 -10.5h-33.5v10.5h33.5996zM52.7998 302.201v-23h-10.7998v33.5h33.5996v-10.5
h-22.7998zM221.7 73.6016c-50.2002 0 -91.2998 40.7998 -91.2998 91.2998c0 50.2002 41.0996 91.2998 91.2998 91.2998c50.5 0 91.2998 -41.0996 91.2998 -91.2998c0 -50.5 -40.7998 -91.2998 -91.2998 -91.2998zM173.5 184.701
c0 -44.2998 77.5996 -11.8984 77.5996 -37.998c0 -13.0996 -24 -14.2998 -32.7002 -14.2998c-12.2998 0 -29.7998 2.7002 -35.8994 14.9004h-0.900391l-9 -18.4004c14.7998 -9.2998 29.0996 -12.2002 47.1992 -12.2002c19.5 0 51 5.7998 51 31.2002
c0 48.0996 -78.5 16.2998 -78.5 37.8994c0 13.0996 20.7998 14.8994 29.7998 14.8994c10.7998 0 29.2002 -3.2002 35.6006 -13.1006h0.900391l8.7998 16.9004c-15.0996 6.2002 -27.3994 12 -44.2998 12c-20.0996 0 -49.5996 -6.40039 -49.5996 -31.8008zM52.7998 269.603
v-33.5996h-10.7998v33.5996h10.7998zM395.2 63.4023v33.5h10.7998v-33.5h-10.7998zM52.7998 140.103v-33.5h-10.7998v33.5h10.7998zM-0 444.303h448v-406l-226.3 -98.5996l-221.7 98.5996v406zM418.8 57.2031h0.100586v270.1h-389.7v-270.1l192.8 -85.7002zM418.801 356.503
h0.100586v58.5996h-389.7v-58.5996h389.6zM52.8018 226.403v-33.5h-10.7998v33.5h10.7998zM52.8018 183.203v-33.5h-10.7998v33.5h10.7998zM170.002 312.803v-10.5h-33.5v10.5h33.5zM395.202 149.703v33.5h10.7998v-33.5h-10.7998zM395.202 192.903v33.5h10.7998v-33.5
h-10.7998zM217.002 312.804v-10.5h-33.2002v10.5h33.2002zM395.202 236.004v33.5h10.7998v-33.5h-10.7998zM395.202 106.504v33.5h10.7998v-33.5h-10.7998zM264.202 312.804v-10.5h-33.2002v10.5h33.2002zM311.502 312.804v-10.5h-33.5v10.5h33.5zM395.202 279.204
l0.0996094 23h-22.7998v10.5h33.5v-33.5h-10.7998zM358.802 312.804v-10.5h-33.5v10.5h33.5zM358.802 312.804z" />
    <glyph glyph-name="simplybuilt" unicode="simplybuilt" horiz-adv-x="512" 
d="M481.2 384c14.7002 0 26.501 -11.7998 26.7012 -26.2998v-331.4c0 -14.5 -11.7998 -26.2998 -26.5996 -26.2998h-450.4c-14.7998 -0 -26.5996 11.7998 -26.5996 26.2998v331.4c0 14.5 11.7998 26.2998 26.3994 26.2998h106c14.5996 0 26.5996 -11.7998 26.5996 -26.2998
v-39.5996h185.3v39.5996c0 14.5 12.0996 26.2998 26.5996 26.2998h106zM149.801 92.2002c36.9004 0 66.6016 29.7002 66.6016 66.4004c0 36.9004 -29.7002 66.6006 -66.6006 66.6006c-36.7002 0 -66.4004 -29.7002 -66.4004 -66.6006
c0 -36.7002 29.7998 -66.4004 66.3994 -66.4004zM362.202 92.2002c36.5996 0 66.3994 29.6992 66.3994 66.5996c0 36.7002 -29.7998 66.4004 -66.3994 66.4004c-36.9004 0 -66.6006 -29.7998 -66.6006 -66.3994c0 -36.9004 29.7002 -66.6006 66.6006 -66.6006z" />
    <glyph glyph-name="skyatlas" unicode="skyatlas" horiz-adv-x="640" 
d="M640 118.7c0 61.9004 -51.2002 107.197 -111.9 107.197c-11.7998 0 -24 -1.59961 -35.9004 -4.69922c0.900391 6.90039 1.2002 13.7002 1.2002 20.6006c0 79.4004 -59.7002 137.801 -139.101 137.801c-38.0996 0 -77.5 -14.9004 -102.8 -43.7002
c-3.7002 -4.09961 -7.7998 -8.7998 -7.7998 -14.3994c0 -6.2002 5 -11.2002 11.2002 -11.2002c8.7998 0 35.7002 36.9004 88.7998 36.9004c66 0 116.9 -48.0996 116.9 -114.699c0 -12.5996 -5.2998 -24.6992 -5.2998 -36.2988c0 -8.40039 7.5 -15.6006 15.9004 -15.6006
c11.9004 0 29.4004 11.5996 46.9004 11.5996c91.4004 0 96.5 -139.7 -3.40039 -139.7c-139.4 0 -176.601 245.9 -361.9 245.9c-85.2998 0 -152.8 -63.2002 -152.8 -149.101s70.5996 -145 154 -144.9c54.4004 0 113.801 25.5996 154.701 61.1992
c5.59961 5 18.6992 16.2998 18.6992 24.0996c0 5.90039 -5 10.9004 -10.9004 10.9004s-17.2002 -12.2002 -22.7998 -16.2998c-34.4004 -24.7002 -82.8008 -42.5 -125.301 -42.5c-152.7 0 -152.5 212.2 -5.59961 212.2c163.1 0 193.8 -249.7 359.7 -249.7
c65 0 117.5 48.5 117.5 114.4z" />
    <glyph glyph-name="pinterest-p" unicode="pinterest&#x2d;p" horiz-adv-x="384" 
d="M204 441.5c94.2002 0 180.001 -64.8008 180.001 -164.101c0 -93.2998 -47.7002 -196.8 -153.9 -196.8c-25.2002 0 -57 12.5996 -69.2998 36c-22.7998 -90.2998 -21 -103.8 -71.4004 -172.8c-5.2002 -1.90039 -3.5 -2.30078 -6.90039 1.49902
c-1.7998 18.9004 -4.5 37.5 -4.5 56.4004c0 61.2002 28.2002 149.7 42 209.101c-7.5 15.2998 -9.59961 33.8994 -9.59961 50.6992c0 80 93.9004 92 93.9004 25.7998c0 -39 -26.4004 -75.5996 -26.4004 -113.399c0 -25.7998 21.2998 -43.7998 46.2002 -43.7998
c69 0 90.2998 99.5996 90.2998 152.699c0 71.0996 -50.4004 109.8 -118.5 109.8c-79.2002 0 -140.4 -57 -140.4 -137.4c0 -38.7002 23.7002 -58.5 23.7002 -67.7998c0 -7.7998 -5.7002 -35.3994 -15.6006 -35.3994c-24 0 -63.5996 40 -63.5996 110.4
c0 110.7 101.4 179.101 204 179.101z" />
    <glyph glyph-name="whatsapp" unicode="whatsapp" 
d="M380.9 350.9c41.9004 -42 67.1006 -97.7002 67.1006 -157c0 -122.4 -101.8 -222 -224.1 -222h-0.0996094c-37.2002 0 -73.7002 9.2998 -106.101 27l-117.7 -30.9004l31.5 115c-19.4004 33.7002 -29.6006 71.9004 -29.6006 111c0 122.4 99.5996 222 222 222
c59.2998 0 115.1 -23.0996 157 -65.0996zM223.9 9.30078c101.7 0 186.599 82.8008 186.599 184.601c0.0996094 49.2998 -21.3008 95.5996 -56.1006 130.5s-81.0996 54.1006 -130.399 54.1006c-101.8 0 -184.6 -82.7998 -184.6 -184.5
c0 -34.9004 9.7002 -68.8008 28.2002 -98.2012l4.40039 -7l-18.5996 -68.0996l69.7998 18.2998l6.7002 -4c28.2998 -16.7998 60.7998 -25.7002 94 -25.7002zM325.099 147.502c5.5 -2.7002 9.19922 -4.10156 10.499 -6.60156
c1.40039 -2.2998 1.40039 -13.3994 -3.19922 -26.3994s-26.6992 -24.7998 -37.3994 -26.3994c-17.5996 -2.59961 -31.3994 -1.2998 -66.5996 13.9004c-55.7002 24.0996 -92 80.0996 -94.7998 83.7998c-2.7002 3.7002 -22.6006 30.1006 -22.6006 57.4004
s14.2998 40.7002 19.3994 46.2998c5.09961 5.5 11.0996 6.90039 14.7998 6.90039s7.40039 0 10.6006 -0.200195c3.40039 -0.200195 8 1.2998 12.5 -9.5c4.59961 -11.0996 15.6992 -38.3994 17.0996 -41.1992s2.30078 -6 0.500977 -9.7002
c-10.5996 -21.2002 -22 -20.5 -16.2998 -30.2998c21.5 -36.9004 42.9004 -49.7002 75.5 -66c5.5 -2.7998 8.7998 -2.2998 12 1.40039c3.2998 3.7998 13.8994 16.2002 17.5996 21.7998s7.40039 4.69922 12.5 2.79883c5.09961 -1.7998 32.3994 -15.2002 37.8994 -18z" />
    <glyph glyph-name="viacoin" unicode="viacoin" horiz-adv-x="384" 
d="M384 416l-48 -112h48v-48h-68.5l-13.7998 -32h82.2998v-48h-102.8l-89.2002 -208l-89.2002 208h-102.8v48h82.2998l-13.7998 32h-68.5v48h48l-48 112h64l80.7998 -192h94.5l80.7002 192h64zM192 112l27 64h-54z" />
    <glyph glyph-name="medium" unicode="medium&#x2d;m" horiz-adv-x="640" 
d="M180.5 373.738c99.6914 0 180.5 -81.3652 180.5 -181.738s-80.8193 -181.738 -180.5 -181.738s-180.5 81.3711 -180.5 181.738s80.8135 181.738 180.5 181.738zM468.75 363.092c49.8477 0 90.25 -76.5908 90.25 -171.094h0.00683594
c0 -94.4814 -40.4062 -171.101 -90.251 -171.101s-90.251 76.624 -90.251 171.1s40.4004 171.095 90.2451 171.095zM608.256 345.271c17.5273 0 31.7441 -68.6221 31.7441 -153.271c0 -84.6309 -14.209 -153.276 -31.7441 -153.276s-31.7354 68.6279 -31.7354 153.274
c0 84.6455 14.209 153.273 31.7354 153.273zM608.256 345.271z" />
    <glyph glyph-name="y-combinator" unicode="y&#x2d;combinator" 
d="M448 416h-448v-448h448v448zM236 160.5v-92.7998h-29.5v94.5l-76.7002 143.8h35l45.2002 -91l12.2002 -26.7998c3.7998 8.5 8.09961 17.5 12.7998 26.7998l45.7998 91h32.7002z" />
    </font>
</defs>
</svg>
